<svg width="65" height="14" viewBox="0 0 65 14" fill="none" xmlns="http://www.w3.org/2000/svg">
<g id="Group 3">
<path id="Star 1" d="M7.06568 0.265259L8.86245 4.55516L13.4976 4.93834L9.97291 7.97282L11.0408 12.4995L7.06568 10.0851L3.09052 12.4995L4.15844 7.97282L0.633737 4.93834L5.26891 4.55516L7.06568 0.265259Z" fill="#DF9832"/>
<path id="Star 2" d="M19.7466 0.265259L21.5434 4.55516L26.1785 4.93834L22.6538 7.97282L23.7217 12.4995L19.7466 10.0851L15.7714 12.4995L16.8393 7.97282L13.3146 4.93834L17.9498 4.55516L19.7466 0.265259Z" fill="#DF9832"/>
<path id="Star 3" d="M32.4268 0.265259L34.2235 4.55516L38.8587 4.93834L35.334 7.97282L36.4019 12.4995L32.4268 10.0851L28.4516 12.4995L29.5195 7.97282L25.9948 4.93834L30.63 4.55516L32.4268 0.265259Z" fill="#DF9832"/>
<path id="Star 4" d="M45.1069 0.265259L46.9037 4.55516L51.5389 4.93834L48.0142 7.97282L49.0821 12.4995L45.1069 10.0851L41.1318 12.4995L42.1997 7.97282L38.675 4.93834L43.3102 4.55516L45.1069 0.265259Z" fill="#DF9832"/>
<path id="Star 5" d="M57.7878 0.265259L59.5846 4.55516L64.2198 4.93834L60.6951 7.97282L61.763 12.4995L57.7878 10.0851L53.8127 12.4995L54.8806 7.97282L51.3559 4.93834L55.9911 4.55516L57.7878 0.265259Z" fill="#DF9832"/>
</g>
</svg>
