<svg width="166" height="166" viewBox="0 0 166 166" fill="none" xmlns="http://www.w3.org/2000/svg">
<path d="M147.864 90.254C147.007 90.2009 146.26 89.982 145.625 89.597C144.99 89.212 144.507 88.6929 144.176 88.0397C143.844 87.393 143.704 86.6441 143.757 85.7928C143.781 85.3965 143.831 85.0147 143.906 84.6475C143.974 84.2799 144.075 83.9209 144.207 83.5703C144.346 83.2201 144.521 82.8722 144.732 82.5264L147.529 82.6993C147.159 83.1983 146.869 83.7218 146.659 84.2698C146.449 84.8177 146.329 85.3289 146.3 85.8033C146.278 86.1542 146.329 86.4475 146.451 86.6834C146.573 86.9258 146.748 87.1094 146.975 87.2343C147.201 87.3658 147.461 87.4405 147.753 87.4586C148.065 87.4779 148.341 87.446 148.581 87.363C148.828 87.2804 149.076 87.1066 149.328 86.8416C149.585 86.5836 149.886 86.1978 150.231 85.6842C150.503 85.2836 150.78 84.9224 151.061 84.6006C151.341 84.2852 151.645 84.017 151.972 83.7958C152.305 83.5816 152.683 83.4256 153.106 83.3278C153.53 83.2301 154.024 83.1987 154.59 83.2336C155.396 83.2769 156.091 83.4764 156.676 83.8322C157.26 84.1945 157.699 84.688 157.993 85.3128C158.293 85.9445 158.414 86.6857 158.355 87.5366C158.319 88.1149 158.206 88.6754 158.016 89.2181C157.825 89.7673 157.571 90.2897 157.254 90.7854L154.883 89.8855C155.191 89.4414 155.422 89.0187 155.578 88.6173C155.739 88.2164 155.831 87.8372 155.853 87.4798C155.873 87.1679 155.827 86.9009 155.717 86.6789C155.613 86.4637 155.46 86.2945 155.259 86.1711C155.058 86.0543 154.824 85.9877 154.557 85.9712C154.219 85.9503 153.93 85.9846 153.69 86.0741C153.45 86.1637 153.207 86.3443 152.962 86.6162C152.723 86.8949 152.43 87.2976 152.085 87.8242C151.704 88.3942 151.306 88.8653 150.892 89.2376C150.484 89.6103 150.033 89.8825 149.54 90.0542C149.053 90.2263 148.495 90.2929 147.864 90.254Z" fill="#FFFCF4"/>
<path d="M154.451 98.3439C154.534 97.9355 154.485 97.5536 154.305 97.1982C154.124 96.8428 153.831 96.5177 153.426 96.223C153.026 95.936 152.536 95.6807 151.957 95.4571C151.377 95.2398 150.733 95.0594 150.024 94.9159C148.984 94.7051 148.084 94.6256 147.323 94.6773C146.568 94.7303 145.967 94.9107 145.519 95.2186C145.071 95.5264 144.792 95.9547 144.681 96.5034C144.593 96.9373 144.583 97.3638 144.651 97.7827C144.718 98.2017 144.816 98.6233 144.942 99.0475L142.55 98.5626C142.408 98.1154 142.327 97.6472 142.306 97.1582C142.284 96.6755 142.327 96.1693 142.434 95.6397C142.648 94.5869 143.107 93.7467 143.812 93.119C144.522 92.499 145.45 92.1023 146.594 91.9291C147.745 91.7571 149.083 91.8256 150.608 92.1346C151.654 92.3466 152.593 92.6497 153.423 93.0438C154.258 93.4456 154.955 93.9255 155.512 94.4836C156.077 95.043 156.475 95.6684 156.707 96.3597C156.937 97.0574 156.971 97.8083 156.808 98.6122C156.694 99.1737 156.514 99.7019 156.268 100.197C156.021 100.691 155.702 101.152 155.311 101.577L153.245 100.361C153.551 100.065 153.807 99.7544 154.012 99.4306C154.223 99.1081 154.37 98.7458 154.451 98.3439Z" fill="#FFFCF4"/>
<path d="M145.022 111.33C143.964 110.924 143.047 110.461 142.271 109.94C141.501 109.421 140.893 108.853 140.446 108.235C140 107.618 139.733 106.95 139.646 106.233C139.556 105.523 139.664 104.769 139.969 103.973C140.277 103.17 140.704 102.532 141.248 102.058C141.799 101.586 142.45 101.271 143.201 101.113C143.952 100.955 144.787 100.94 145.707 101.07C146.626 101.2 147.615 101.468 148.672 101.874C150.168 102.448 151.354 103.109 152.231 103.857C153.109 104.605 153.67 105.431 153.916 106.334C154.163 107.237 154.087 108.206 153.691 109.239C153.278 110.315 152.662 111.093 151.843 111.574C151.021 112.06 150.032 112.277 148.874 112.223C147.722 112.171 146.438 111.874 145.022 111.33ZM147.636 104.52C146.615 104.128 145.73 103.879 144.983 103.774C144.242 103.67 143.638 103.707 143.173 103.884C142.713 104.064 142.396 104.381 142.221 104.837C142.044 105.299 142.064 105.746 142.282 106.178C142.497 106.617 142.916 107.042 143.538 107.456C144.159 107.875 144.991 108.285 146.037 108.686C147.599 109.286 148.826 109.558 149.719 109.503C150.618 109.451 151.2 109.078 151.466 108.385C151.641 107.929 151.615 107.48 151.387 107.037C151.16 106.594 150.733 106.162 150.107 105.74C149.481 105.319 148.657 104.912 147.636 104.52Z" fill="#FFFCF4"/>
<path d="M132.308 118.911L134.008 116.173L144.676 117.876L144.717 117.81C144.303 117.599 143.917 117.394 143.559 117.194C143.202 117.004 142.878 116.822 142.587 116.649C142.293 116.481 142.029 116.325 141.797 116.181L136.172 112.688L137.522 110.515L149.651 118.046L147.961 120.767L137.495 119.166L137.454 119.232C137.849 119.447 138.215 119.647 138.552 119.833C138.894 120.023 139.21 120.199 139.499 120.364C139.788 120.528 140.048 120.682 140.281 120.826L145.798 124.252L144.438 126.442L132.308 118.911Z" fill="#FFFCF4"/>
<path d="M126.507 125.618L131.554 119.821L133.034 121.11L137.514 131.135L140.495 127.71L142.27 129.255L137.358 134.897L135.885 133.615L131.421 123.603L128.304 127.183L126.507 125.618Z" fill="#FFFCF4"/>
<path d="M120.962 130.525L123.764 132.651L126.173 130.584L124.498 127.492L126.729 125.578L133.401 138.665L130.711 140.973L118.746 132.426L120.962 130.525ZM125.634 134.186L128.68 136.552C128.923 136.755 129.162 136.953 129.397 137.147C129.626 137.344 129.847 137.532 130.06 137.71C130.272 137.897 130.469 138.071 130.65 138.233C130.517 138.047 130.376 137.838 130.227 137.605C130.079 137.372 129.927 137.125 129.772 136.864C129.616 136.602 129.463 136.335 129.314 136.06L127.405 132.666L125.634 134.186Z" fill="#FFFCF4"/>
<path d="M109.421 142.512C109.026 141.749 108.83 140.996 108.834 140.254C108.837 139.511 109.034 138.83 109.424 138.21C109.808 137.593 110.379 137.088 111.136 136.695C111.489 136.513 111.842 136.359 112.195 136.234C112.546 136.104 112.905 136.006 113.274 135.939C113.646 135.878 114.034 135.849 114.439 135.852L115.729 138.341C115.111 138.28 114.512 138.3 113.934 138.402C113.356 138.503 112.857 138.663 112.435 138.882C112.122 139.044 111.897 139.238 111.757 139.464C111.612 139.693 111.544 139.938 111.554 140.197C111.558 140.459 111.627 140.72 111.762 140.98C111.906 141.257 112.075 141.478 112.269 141.641C112.467 141.81 112.744 141.934 113.1 142.013C113.454 142.101 113.94 142.161 114.558 142.193C115.041 142.22 115.493 142.272 115.914 142.348C116.328 142.426 116.715 142.548 117.072 142.715C117.427 142.89 117.755 143.135 118.057 143.448C118.358 143.761 118.64 144.168 118.9 144.671C119.278 145.385 119.464 146.084 119.459 146.768C119.449 147.456 119.251 148.086 118.867 148.66C118.479 149.242 117.905 149.726 117.145 150.113C116.631 150.38 116.092 150.571 115.529 150.687C114.96 150.806 114.381 150.856 113.792 150.839L113.346 148.343C113.885 148.378 114.366 148.36 114.79 148.287C115.218 148.219 115.59 148.103 115.908 147.938C116.185 147.795 116.391 147.618 116.525 147.41C116.656 147.21 116.723 146.992 116.725 146.756C116.722 146.523 116.658 146.288 116.536 146.051C116.38 145.751 116.202 145.52 116.001 145.36C115.801 145.2 115.521 145.085 115.162 145.014C114.8 144.952 114.304 144.909 113.675 144.883C112.99 144.849 112.382 144.75 111.849 144.586C111.32 144.428 110.855 144.181 110.454 143.847C110.056 143.518 109.712 143.073 109.421 142.512Z" fill="#FFFCF4"/>
<path d="M102.327 140.711L104.87 139.79L108.926 150.981L111.424 150.076L112.232 152.307L104.713 155.033L103.904 152.802L106.383 151.903L102.327 140.711Z" fill="#FFFCF4"/>
<path d="M90.8728 150.764C90.6606 149.651 90.5714 148.628 90.6053 147.693C90.6404 146.766 90.8028 145.949 91.0925 145.244C91.3823 144.54 91.8088 143.961 92.3721 143.509C92.929 143.058 93.6263 142.753 94.4641 142.593C95.3082 142.432 96.0754 142.458 96.7655 142.671C97.4569 142.89 98.0676 143.278 98.5977 143.833C99.1277 144.388 99.5798 145.09 99.954 145.94C100.328 146.79 100.621 147.771 100.834 148.884C101.134 150.457 101.197 151.814 101.023 152.954C100.85 154.094 100.444 155.006 99.8057 155.691C99.1676 156.376 98.3049 156.823 97.2178 157.03C96.0858 157.246 95.0998 157.132 94.2598 156.69C93.4133 156.248 92.708 155.521 92.1437 154.508C91.5807 153.502 91.157 152.254 90.8728 150.764ZM98.0386 149.397C97.8336 148.323 97.5791 147.44 97.275 146.749C96.9721 146.065 96.6228 145.571 96.2272 145.269C95.8327 144.973 95.3957 144.871 94.916 144.962C94.43 145.055 94.0606 145.308 93.808 145.721C93.5489 146.135 93.4077 146.715 93.3845 147.462C93.3548 148.21 93.4449 149.134 93.6547 150.234C93.9682 151.877 94.3834 153.064 94.9004 153.794C95.4186 154.53 96.0423 154.828 96.7713 154.689C97.2509 154.598 97.6191 154.339 97.8757 153.912C98.1323 153.485 98.2749 152.895 98.3033 152.14C98.3317 151.386 98.2435 150.472 98.0386 149.397Z" fill="#FFFCF4"/>
<path d="M84.4261 158.197C83.3715 158.214 82.4936 158.074 81.7923 157.779C81.0911 157.484 80.5665 157.033 80.2185 156.426C79.8641 155.82 79.6797 155.054 79.6654 154.13C79.6564 153.544 79.7197 153.009 79.8555 152.525C79.9914 152.048 80.2094 151.618 80.5095 151.236C80.8032 150.86 81.1823 150.528 81.6466 150.241L78.6106 144.008L81.6278 143.962L84.0479 149.521L84.8681 149.508L84.7817 143.913L87.5255 143.87L87.746 158.146L84.4261 158.197ZM84.4098 155.883L84.9664 155.874L84.9016 151.676L84.2864 151.685C83.6745 151.695 83.2152 151.887 82.9085 152.263C82.5952 152.639 82.4444 153.201 82.4559 153.95C82.4663 154.62 82.6334 155.113 82.9573 155.427C83.2747 155.741 83.7589 155.893 84.4098 155.883Z" fill="#FFFCF4"/>
<path d="M77.2139 143.731L75.6212 157.919L72.8942 157.613L74.4869 143.425L77.2139 143.731Z" fill="#FFFCF4"/>
<path d="M65.7912 141.725L72.054 143.119L68.9521 157.055L62.6893 155.661L63.1964 153.383L66.7806 154.181L67.5104 150.901L64.1741 150.159L64.6833 147.871L68.0196 148.614L68.8577 144.848L65.2735 144.051L65.7912 141.725Z" fill="#FFFCF4"/>
<path d="M56.3679 142.806C56.6637 141.999 57.0868 141.346 57.6371 140.848C58.1875 140.349 58.823 140.034 59.5436 139.903C60.2582 139.77 61.0158 139.85 61.8166 140.144C62.1894 140.281 62.5411 140.437 62.8716 140.614C63.2043 140.784 63.5197 140.983 63.8178 141.211C64.1136 141.444 64.3971 141.711 64.6683 142.011L63.7034 144.643C63.331 144.146 62.9122 143.718 62.447 143.36C61.9819 143.002 61.5262 142.742 61.08 142.578C60.7499 142.457 60.4544 142.422 60.1934 142.471C59.9262 142.519 59.7004 142.634 59.5158 142.816C59.3251 142.996 59.1793 143.223 59.0784 143.498C58.9708 143.791 58.9226 144.065 58.9336 144.319C58.9423 144.578 59.0378 144.867 59.2199 145.183C59.3937 145.503 59.6774 145.902 60.0711 146.379C60.3771 146.755 60.6442 147.123 60.8724 147.484C61.0945 147.843 61.2648 148.211 61.3834 148.587C61.4936 148.967 61.5351 149.374 61.5077 149.808C61.4804 150.242 61.3693 150.725 61.1743 151.256C60.9025 152.017 60.5126 152.626 60.0046 153.085C59.4906 153.541 58.8922 153.821 58.2094 153.924C57.5183 154.031 56.7735 153.935 55.975 153.635C55.431 153.436 54.9261 153.167 54.4603 152.83C53.9884 152.491 53.5604 152.098 53.1761 151.652L54.7159 149.637C55.0535 150.059 55.3924 150.402 55.7327 150.665C56.0707 150.935 56.4078 151.131 56.744 151.254C57.0374 151.362 57.3062 151.395 57.5505 151.353C57.7865 151.314 57.9922 151.216 58.1679 151.059C58.3374 150.899 58.4681 150.694 58.56 150.443C58.6765 150.125 58.7263 149.839 58.7092 149.583C58.692 149.327 58.5882 149.043 58.3977 148.73C58.1989 148.421 57.8965 148.026 57.4907 147.544C57.0532 147.017 56.7153 146.501 56.4769 145.997C56.2363 145.5 56.1042 144.99 56.0806 144.469C56.0547 143.953 56.1505 143.399 56.3679 142.806Z" fill="#FFFCF4"/>
<path d="M43.9889 135.728C44.4529 135.005 45.0076 134.459 45.653 134.092C46.2985 133.725 46.9872 133.556 47.7191 133.584C48.4455 133.61 49.1677 133.852 49.8856 134.313C50.2198 134.527 50.5291 134.756 50.8133 135.001C51.1011 135.239 51.3658 135.502 51.6074 135.788C51.8456 136.08 52.0643 136.403 52.2638 136.755L50.7506 139.114C50.495 138.548 50.179 138.04 49.8026 137.589C49.4262 137.139 49.038 136.786 48.638 136.529C48.3421 136.339 48.0613 136.24 47.7957 136.232C47.5246 136.221 47.2792 136.284 47.0595 136.421C46.8343 136.555 46.6426 136.746 46.4845 136.992C46.3157 137.255 46.2092 137.512 46.1649 137.762C46.117 138.017 46.1476 138.319 46.2567 138.668C46.3568 139.018 46.5472 139.469 46.8278 140.02C47.045 140.454 47.2257 140.871 47.3701 141.273C47.509 141.672 47.5954 142.067 47.6295 142.46C47.6545 142.855 47.6066 143.262 47.4858 143.679C47.3649 144.097 47.1516 144.544 46.8458 145.021C46.4154 145.704 45.9025 146.214 45.3071 146.551C44.7062 146.885 44.0613 147.028 43.3724 146.981C42.6745 146.936 41.9683 146.68 41.254 146.214C40.7663 145.901 40.3317 145.529 39.9503 145.099C39.5633 144.665 39.2308 144.189 38.9525 143.67L40.893 142.038C41.131 142.523 41.3874 142.931 41.6623 143.262C41.9338 143.599 42.2202 143.864 42.5216 144.057C42.7846 144.226 43.0399 144.316 43.2876 144.328C43.5262 144.342 43.7483 144.291 43.954 144.175C44.1541 144.056 44.3263 143.884 44.4704 143.659C44.6532 143.374 44.764 143.105 44.8028 142.852C44.8417 142.598 44.8021 142.298 44.684 141.952C44.5569 141.607 44.3476 141.156 44.056 140.598C43.7436 139.987 43.5257 139.41 43.4023 138.867C43.2755 138.33 43.2571 137.803 43.3474 137.289C43.4341 136.78 43.6479 136.26 43.9889 135.728Z" fill="#FFFCF4"/>
<path d="M33.7569 137.555C34.0731 137.826 34.4304 137.969 34.8287 137.985C35.2269 138.001 35.6535 137.904 36.1083 137.693C36.554 137.484 37.0156 137.181 37.4932 136.784C37.9657 136.383 38.4373 135.908 38.9079 135.36C39.5988 134.555 40.1072 133.807 40.4331 133.117C40.7547 132.432 40.8902 131.819 40.8396 131.279C40.789 130.738 40.5512 130.285 40.1263 129.92C39.7903 129.632 39.4228 129.415 39.0239 129.271C38.625 129.126 38.2095 129.005 37.7773 128.909L39.367 127.056C39.8267 127.15 40.275 127.307 40.712 127.528C41.1441 127.744 41.5652 128.028 41.9753 128.38C42.7906 129.079 43.3004 129.89 43.5048 130.812C43.7 131.734 43.5943 132.737 43.1878 133.821C42.7771 134.909 42.0651 136.044 41.052 137.225C40.3568 138.036 39.6348 138.707 38.886 139.24C38.1281 139.773 37.3695 140.148 36.6103 140.363C35.8468 140.583 35.1068 140.625 34.3901 140.491C33.6685 140.352 32.9964 140.016 32.3738 139.482C31.9389 139.109 31.5656 138.694 31.2536 138.238C30.9417 137.781 30.6955 137.278 30.515 136.729L32.5831 135.518C32.6931 135.93 32.8395 136.304 33.0222 136.641C33.2007 136.983 33.4456 137.287 33.7569 137.555Z" fill="#FFFCF4"/>
<path d="M27.0056 123.02C27.8734 122.292 28.7233 121.715 29.5555 121.288C30.3826 120.866 31.1745 120.61 31.931 120.519C32.6876 120.428 33.4006 120.518 34.0701 120.789C34.7354 121.055 35.3421 121.515 35.8903 122.168C36.4427 122.827 36.7943 123.509 36.9451 124.215C37.0909 124.926 37.0509 125.648 36.825 126.381C36.5991 127.115 36.2065 127.852 35.6472 128.594C35.0879 129.335 34.3743 130.07 33.5066 130.798C32.2797 131.827 31.1264 132.544 30.0467 132.949C28.9669 133.354 27.9723 133.445 27.063 133.222C26.1536 132.999 25.3432 132.464 24.6318 131.616C23.891 130.733 23.509 129.817 23.4858 128.868C23.4584 127.913 23.7489 126.943 24.3574 125.956C24.9609 124.974 25.8436 123.995 27.0056 123.02ZM31.6948 128.608C32.5327 127.905 33.179 127.252 33.6337 126.65C34.0835 126.052 34.3438 125.506 34.4146 125.013C34.4805 124.524 34.3564 124.093 34.0426 123.719C33.7245 123.34 33.3237 123.141 32.8402 123.122C32.3525 123.097 31.777 123.257 31.1138 123.601C30.4464 123.94 29.6839 124.47 28.8261 125.19C27.5444 126.265 26.7111 127.207 26.3262 128.014C25.9364 128.826 25.98 129.516 26.4571 130.084C26.7709 130.458 27.1767 130.653 27.6744 130.669C28.1721 130.685 28.7572 130.521 29.4295 130.178C30.1019 129.835 30.857 129.311 31.6948 128.608Z" fill="#FFFCF4"/>
<path d="M26.54 108.223L28.107 111.039L21.4352 119.535L21.4732 119.603C21.8581 119.344 22.225 119.107 22.5739 118.89C22.914 118.671 23.2304 118.476 23.523 118.306C23.8125 118.13 24.0767 117.976 24.3157 117.843L30.1013 114.623L31.3454 116.859L18.8696 123.801L17.3121 121.002L23.797 112.633L23.759 112.565C23.3792 112.806 23.0262 113.028 22.7 113.232C22.3682 113.439 22.0603 113.629 21.7765 113.802C21.4927 113.975 21.2314 114.128 20.9924 114.261L15.3177 117.418L14.0641 115.165L26.54 108.223Z" fill="#FFFCF4"/>
<path d="M23.5111 99.976L26.1299 107.202L24.2845 107.87L13.3457 106.922L14.893 111.191L12.6803 111.993L10.1314 104.96L11.9677 104.295L22.8881 105.25L21.2709 100.788L23.5111 99.976Z" fill="#FFFCF4"/>
<path d="M21.9404 92.8885L18.7241 94.3109L19.3664 97.419L22.8829 97.4503L23.4777 100.329L8.79619 99.8324L8.07889 96.3608L21.3495 90.0289L21.9404 92.8885ZM16.4756 95.2042L12.9306 96.7245C12.6351 96.8387 12.346 96.9516 12.0632 97.0632C11.7792 97.1685 11.5078 97.2711 11.2493 97.371C10.983 97.4659 10.7352 97.5537 10.5059 97.6343C10.733 97.6073 10.9844 97.5853 11.2601 97.5682C11.5358 97.5512 11.8256 97.5378 12.1294 97.5282C12.4332 97.5186 12.7415 97.5148 13.0544 97.5166L16.9479 97.4899L16.4756 95.2042Z" fill="#FFFCF4"/>
<path d="M17.0643 76.7471C17.9233 76.7736 18.6761 76.9695 19.3227 77.3347C19.9692 77.6999 20.4683 78.2038 20.8197 78.8465C21.1713 79.4826 21.3339 80.2269 21.3076 81.0794C21.2954 81.4763 21.2575 81.8595 21.1939 82.2288C21.1369 82.5983 21.0476 82.9603 20.9259 83.3148C20.7977 83.6691 20.6338 84.0222 20.434 84.3743L17.6326 84.2878C17.9871 83.7776 18.2608 83.2455 18.4538 82.6913C18.6467 82.1371 18.7506 81.6225 18.7652 81.1474C18.7761 80.796 18.7167 80.5043 18.5871 80.2724C18.4577 80.0339 18.2775 79.8557 18.0467 79.7378C17.816 79.6135 17.5543 79.5468 17.2615 79.5377C16.9491 79.5281 16.6743 79.5684 16.437 79.6588C16.1933 79.749 15.9499 79.9304 15.707 80.2029C15.4578 80.4688 15.1688 80.8637 14.8399 81.3877C14.5798 81.7965 14.3143 82.1661 14.0436 82.4964C13.7731 82.8203 13.4779 83.0978 13.1581 83.3289C12.832 83.5533 12.4588 83.7209 12.0385 83.8317C11.6183 83.9424 11.125 83.9891 10.5589 83.9716C9.7518 83.9532 9.05058 83.7752 8.45524 83.4376C7.86011 83.0936 7.40596 82.6138 7.09278 81.9984C6.77329 81.3763 6.62996 80.6391 6.6628 79.7868C6.68069 79.2077 6.77626 78.6439 6.94952 78.0956C7.12298 77.5408 7.36081 77.0108 7.66301 76.5056L10.0605 77.332C9.76644 77.7853 9.54799 78.215 9.40518 78.6209C9.25586 79.0267 9.17568 79.4085 9.16462 79.7664C9.15498 80.0787 9.20866 80.3442 9.32566 80.5628C9.43636 80.7746 9.59412 80.9391 9.79894 81.0561C10.004 81.1667 10.2399 81.2261 10.5067 81.2343C10.845 81.2448 11.133 81.2015 11.3705 81.1047C11.6079 81.0078 11.845 80.8197 12.0816 80.5404C12.3119 80.2544 12.5916 79.8429 12.9209 79.306C13.284 78.7244 13.667 78.2412 14.0697 77.8564C14.4659 77.4713 14.9079 77.1853 15.3956 76.9984C15.8769 76.8114 16.4331 76.7276 17.0643 76.7471Z" fill="#FFFCF4"/>
<path d="M22.0859 71.3772L21.6505 74.0469L9.90144 72.1306L9.47383 74.7522L7.13174 74.3702L8.41928 66.4764L10.7614 66.8585L10.3369 69.4608L22.0859 71.3772Z" fill="#FFFCF4"/>
<path d="M18.8427 56.561C19.9175 56.9188 20.8544 57.3404 21.6534 57.826C22.4462 58.3095 23.0795 58.8497 23.5533 59.4465C24.027 60.0434 24.3238 60.698 24.4434 61.4103C24.5652 62.1164 24.4914 62.874 24.222 63.6832C23.9505 64.4986 23.5535 65.1555 23.0307 65.6539C22.5018 66.1503 21.8658 66.4944 21.1227 66.6861C20.3795 66.8779 19.5457 66.9297 18.6213 66.8415C17.6969 66.7534 16.6973 66.5304 15.6224 66.1726C14.1029 65.6667 12.8879 65.0599 11.9777 64.352C11.0674 63.6441 10.469 62.8445 10.1825 61.9532C9.896 61.0619 9.92753 60.0911 10.2771 59.041C10.6411 57.9477 11.2213 57.1425 12.0179 56.6254C12.8165 56.1022 13.7953 55.8413 14.9544 55.8429C16.1073 55.8425 17.4034 56.0818 18.8427 56.561ZM16.5386 63.4824C17.5763 63.8279 18.4709 64.0365 19.2224 64.1083C19.9677 64.178 20.5689 64.1139 21.0258 63.9161C21.4766 63.7162 21.7791 63.3846 21.9334 62.9214C22.0896 62.4519 22.0493 62.0062 21.8124 61.5842C21.5775 61.1561 21.1399 60.7497 20.4994 60.3649C19.8611 59.974 19.0107 59.6017 17.9482 59.248C16.3607 58.7195 15.1222 58.5028 14.2329 58.5979C13.3373 58.6909 12.7724 59.0895 12.5379 59.7937C12.3837 60.2569 12.4302 60.7047 12.6774 61.1369C12.9247 61.5692 13.3705 61.9818 14.0151 62.3748C14.6596 62.7677 15.5008 63.137 16.5386 63.4824Z" fill="#FFFCF4"/>
<path d="M15.4752 47.2697C15.9778 46.3425 16.5296 45.6456 17.1305 45.179C17.7315 44.7123 18.3817 44.476 19.081 44.47C19.7835 44.4583 20.5411 44.6727 21.3538 45.1133C21.869 45.3925 22.3042 45.7098 22.6595 46.0653C23.0091 46.4177 23.2769 46.8184 23.4631 47.2674C23.6466 47.7075 23.7498 48.2003 23.7725 48.7458L30.6937 49.1539L29.2558 51.8068L23.224 51.1922L22.8331 51.9134L27.7526 54.5799L26.4449 56.9925L13.8929 50.1888L15.4752 47.2697ZM17.5006 48.3898L17.2354 48.8792L20.9271 50.8803L21.2203 50.3394C21.512 49.8014 21.5691 49.3066 21.3918 48.855C21.2175 48.3977 20.8013 47.9906 20.1431 47.6339C19.5536 47.3143 19.0426 47.2188 18.6101 47.3472C18.1807 47.4699 17.8109 47.8175 17.5006 48.3898Z" fill="#FFFCF4"/>
<path d="M31.5495 48.1269L19.9426 39.8128L21.5406 37.5819L33.1474 45.896L31.5495 48.1269Z" fill="#FFFCF4"/>
<path d="M38.6703 39.333L34.4048 44.1257L23.7395 34.6339L28.005 29.8411L29.7485 31.3928L27.3074 34.1357L29.8169 36.3691L32.0892 33.8158L33.84 35.374L31.5677 37.9272L34.4492 40.4917L36.8903 37.7488L38.6703 39.333Z" fill="#FFFCF4"/>
<path d="M42.3688 30.4423C42.9307 31.0925 43.2961 31.7792 43.465 32.5023C43.6339 33.2254 43.6008 33.9339 43.3656 34.6276C43.1354 35.317 42.6977 35.9406 42.0524 36.4982C41.7519 36.7579 41.4443 36.9894 41.1295 37.1926C40.8189 37.4008 40.492 37.5801 40.1487 37.7305C39.8011 37.876 39.4302 37.9943 39.0358 38.0856L37.2031 35.9651C37.8186 35.8807 38.3956 35.7219 38.9341 35.4888C39.4727 35.2557 39.9217 34.9837 40.2813 34.673C40.5473 34.4431 40.7218 34.2019 40.8048 33.9495C40.8927 33.6928 40.9019 33.4396 40.8324 33.1899C40.7678 32.936 40.6398 32.6981 40.4482 32.4765C40.2439 32.2401 40.0281 32.0651 39.801 31.9516C39.5696 31.8332 39.2714 31.7769 38.9063 31.7826C38.5419 31.7792 38.0556 31.8338 37.4473 31.9464C36.9703 32.0317 36.5186 32.0865 36.0922 32.1108C35.6707 32.1309 35.2666 32.1015 34.88 32.0225C34.4941 31.9344 34.1181 31.7732 33.7521 31.5388C33.3861 31.3045 33.0179 30.973 32.6475 30.5445C32.1147 29.9379 31.771 29.3013 31.6165 28.6346C31.4669 27.9637 31.5125 27.3047 31.7535 26.6575C31.9952 26.0012 32.4408 25.3967 33.0903 24.844C33.5287 24.4651 34.0083 24.1538 34.5292 23.9102C35.055 23.6623 35.6061 23.4786 36.1825 23.359L37.1972 25.6831C36.6644 25.7735 36.2003 25.9036 35.8048 26.0733C35.4051 26.238 35.0698 26.4375 34.7989 26.6716C34.5625 26.8759 34.4034 27.0951 34.3217 27.3292C34.2407 27.5541 34.2265 27.7815 34.279 28.0115C34.3364 28.2373 34.4524 28.4511 34.6269 28.6531C34.8483 28.9092 35.075 29.0919 35.3071 29.2011C35.5391 29.3103 35.838 29.3575 36.2037 29.3426C36.5701 29.3185 37.0624 29.2458 37.6805 29.1247C38.3544 28.9984 38.9692 28.9531 39.5251 28.989C40.0768 29.0199 40.5865 29.1517 41.0542 29.3842C41.5176 29.6118 41.9558 29.9645 42.3688 30.4423Z" fill="#FFFCF4"/>
<path d="M54.4058 23.0465C54.8154 23.802 55.0251 24.5511 55.0351 25.2936C55.0451 26.0361 54.8609 26.721 54.4826 27.3482C54.1099 27.9722 53.5487 28.4875 52.7989 28.8939C52.4498 29.0832 52.0997 29.2433 51.7486 29.3744C51.4006 29.5111 51.0429 29.6162 50.6753 29.6895C50.3047 29.7571 49.917 29.7932 49.5122 29.7979L48.1766 27.3339C48.7958 27.3833 49.3934 27.3519 49.9694 27.2396C50.5454 27.1273 51.0424 26.958 51.4602 26.7315C51.7693 26.5639 51.9914 26.3658 52.1266 26.137C52.2675 25.9051 52.3307 25.6598 52.3163 25.401C52.3077 25.1391 52.2335 24.8794 52.0939 24.6218C51.945 24.3471 51.7718 24.1299 51.5742 23.9704C51.3736 23.8052 51.0944 23.6862 50.7366 23.6136C50.3814 23.5321 49.8947 23.4812 49.2764 23.4609C48.7922 23.4419 48.3392 23.3987 47.9175 23.331C47.5015 23.2603 47.1131 23.145 46.7524 22.985C46.3944 22.8163 46.0617 22.5782 45.7544 22.2708C45.4471 21.9635 45.1585 21.5608 44.8886 21.0628C44.4981 20.3562 44.2989 19.6607 44.2908 18.9764C44.2885 18.289 44.4743 17.655 44.8484 17.0746C45.2251 16.4854 45.7899 15.9904 46.5428 15.5897C47.0522 15.3136 47.5874 15.1123 48.1484 14.986C48.7151 14.8566 49.2928 14.7952 49.8814 14.802L50.3745 17.2895C49.8347 17.2636 49.3535 17.2912 48.9308 17.3722C48.5051 17.4475 48.1348 17.5704 47.82 17.741C47.5453 17.8899 47.3429 18.07 47.213 18.2811C47.0857 18.4834 47.023 18.7025 47.025 18.9384C47.0327 19.1712 47.1001 19.4049 47.2273 19.6396C47.3887 19.9372 47.571 20.1643 47.7742 20.3207C47.9775 20.4771 48.2593 20.5872 48.6198 20.651C48.9828 20.706 49.4792 20.7406 50.1089 20.7547C50.7942 20.7757 51.4045 20.8633 51.9398 21.0175C52.472 21.166 52.9416 21.4039 53.3486 21.7313C53.7525 22.0529 54.1049 22.4913 54.4058 23.0465Z" fill="#FFFCF4"/>
<path d="M57.6185 13.2134C57.2284 13.3597 56.9305 13.6036 56.7248 13.945C56.5191 14.2865 56.3988 14.7071 56.3639 15.207C56.3327 15.6985 56.3759 16.249 56.4933 16.8585C56.6169 17.4658 56.8056 18.1078 57.0595 18.7844C57.4323 19.7779 57.8424 20.5836 58.2898 21.2015C58.7349 21.8133 59.2067 22.2274 59.7051 22.4437C60.2035 22.66 60.7147 22.6698 61.239 22.4731C61.6534 22.3176 62.0203 22.0999 62.3395 21.8202C62.6587 21.5405 62.9646 21.2345 63.2572 20.9022L64.1148 23.188C63.8109 23.5455 63.457 23.8625 63.0532 24.1392C62.6555 24.4136 62.2037 24.6457 61.6978 24.8355C60.692 25.2129 59.7361 25.2691 58.8301 25.0041C57.9278 24.7307 57.0998 24.1548 56.346 23.2764C55.59 22.3919 54.9386 21.2212 54.392 19.7644C54.0169 18.7648 53.7763 17.8085 53.6702 16.8957C53.5679 15.9745 53.6055 15.1294 53.7829 14.3605C53.958 13.5855 54.2771 12.9165 54.7403 12.3533C55.2096 11.7878 55.8282 11.3609 56.5962 11.0728C57.1326 10.8715 57.6759 10.7441 58.226 10.6907C58.7762 10.6372 59.3355 10.6638 59.904 10.7704L59.9684 13.166C59.5546 13.064 59.1561 13.0119 58.7728 13.0097C58.3873 13.0014 58.0025 13.0693 57.6185 13.2134Z" fill="#FFFCF4"/>
<path d="M73.9885 14.2286C74.2008 15.3414 74.2899 16.3649 74.2561 17.2993C74.221 18.2272 74.0585 19.0436 73.7688 19.7484C73.479 20.4532 73.0525 21.0316 72.4892 21.4837C71.9323 21.9346 71.235 22.2399 70.3972 22.3997C69.5531 22.5607 68.7859 22.5347 68.0958 22.3217C67.4044 22.1023 66.7937 21.7151 66.2637 21.16C65.7336 20.605 65.2815 19.9025 64.9073 19.0526C64.5331 18.2027 64.2399 17.2214 64.0276 16.1086C63.7276 14.5354 63.6643 13.1789 63.8379 12.0389C64.0116 10.899 64.4174 9.98644 65.0556 9.30136C65.6937 8.61627 66.5564 8.17005 67.6436 7.96269C68.7755 7.74679 69.7615 7.86029 70.6015 8.30319C71.448 8.74487 72.1533 9.47194 72.7176 10.4844C73.2807 11.4905 73.7043 12.7386 73.9885 14.2286ZM66.8228 15.5954C67.0277 16.6698 67.2822 17.5524 67.5863 18.2434C67.8892 18.9279 68.2385 19.4213 68.6342 19.7236C69.0286 20.0196 69.4657 20.1218 69.9453 20.0303C70.4313 19.9376 70.8007 19.6849 71.0534 19.2722C71.3124 18.8582 71.4536 18.2779 71.4768 17.5311C71.5065 16.7832 71.4164 15.8592 71.2066 14.7592C70.8931 13.1157 70.4779 11.929 69.9609 11.1991C69.4427 10.4629 68.8191 10.1642 68.09 10.3033C67.6104 10.3948 67.2423 10.6539 66.9856 11.0806C66.729 11.5074 66.5865 12.0979 66.558 12.8523C66.5296 13.6066 66.6178 14.521 66.8228 15.5954Z" fill="#FFFCF4"/>
<path d="M86.9727 21H83.75L79.5703 11.0391H79.4922C79.5312 11.5013 79.5605 11.9375 79.5801 12.3477C79.6061 12.7513 79.6224 13.1224 79.6289 13.4609C79.6419 13.7995 79.6484 14.1055 79.6484 14.3789V21H77.0898V6.72266H80.293L84.4531 16.459H84.5312C84.5052 16.0098 84.4824 15.5931 84.4629 15.209C84.4434 14.8184 84.4271 14.457 84.4141 14.125C84.401 13.793 84.3945 13.4902 84.3945 13.2168V6.72266H86.9727V21Z" fill="#FFFCF4"/>
<path d="M96.1245 22.3885L88.5392 21.1513L88.8552 19.214L95.0176 10.1266L90.5358 9.39558L90.9147 7.07276L98.2976 8.27698L97.9832 10.2046L91.8239 19.2728L96.5081 20.0368L96.1245 22.3885Z" fill="#FFFCF4"/>
<path d="M103.022 24.4485L103.351 20.9472L100.325 19.9903L98.5805 23.044L95.7778 22.1578L103.379 9.58713L106.759 10.6559L105.806 25.3289L103.022 24.4485ZM103.669 18.5486L104.073 14.7126C104.117 14.399 104.16 14.0915 104.2 13.7903C104.247 13.491 104.29 13.2041 104.329 12.9297C104.376 12.651 104.421 12.3919 104.462 12.1524C104.375 12.3637 104.271 12.5939 104.152 12.8428C104.032 13.0918 103.902 13.3512 103.762 13.621C103.622 13.8908 103.475 14.1618 103.321 14.4339L101.443 17.8449L103.669 18.5486Z" fill="#FFFCF4"/>
<path d="M119.458 28.0347C119.015 28.7713 118.477 29.3327 117.843 29.7187C117.208 30.1047 116.525 30.2941 115.792 30.287C115.066 30.2833 114.337 30.0618 113.605 29.6227C113.265 29.4182 112.949 29.198 112.658 28.9623C112.363 28.7321 112.091 28.4774 111.841 28.1982C111.594 27.9133 111.366 27.5978 111.156 27.2515L112.6 24.849C112.872 25.4074 113.203 25.9061 113.592 26.3451C113.982 26.7841 114.38 27.1259 114.787 27.3707C115.089 27.5517 115.372 27.6423 115.638 27.6424C115.909 27.6459 116.153 27.5757 116.368 27.4318C116.589 27.2912 116.775 27.0954 116.926 26.8442C117.087 26.5764 117.186 26.3168 117.223 26.0656C117.263 25.8088 117.224 25.5079 117.105 25.1628C116.994 24.8155 116.791 24.3705 116.494 23.8277C116.264 23.4011 116.071 22.989 115.915 22.5914C115.765 22.1972 115.667 21.8041 115.621 21.4122C115.585 21.0181 115.62 20.6105 115.729 20.1897C115.838 19.7688 116.038 19.3156 116.329 18.8301C116.739 18.1347 117.237 17.6096 117.822 17.2549C118.413 16.9035 119.054 16.7413 119.744 16.7685C120.443 16.7934 121.156 17.0283 121.884 17.473C122.38 17.7714 122.826 18.13 123.22 18.549C123.619 18.9712 123.965 19.4375 124.259 19.9479L122.367 21.6368C122.115 21.1588 121.847 20.7584 121.562 20.4356C121.281 20.1072 120.987 19.8508 120.68 19.6664C120.412 19.5055 120.154 19.4227 119.906 19.4181C119.667 19.4113 119.447 19.4687 119.245 19.5903C119.048 19.7152 118.881 19.8921 118.744 20.1209C118.569 20.4111 118.466 20.6835 118.435 20.938C118.404 21.1926 118.452 21.4913 118.58 21.8341C118.717 22.1747 118.94 22.6198 119.248 23.1693C119.578 23.7702 119.813 24.3403 119.952 24.8796C120.095 25.4134 120.128 25.9387 120.053 26.4557C119.982 26.967 119.783 27.4933 119.458 28.0347Z" fill="#FFFCF4"/>
<path d="M121.462 34.8557L119.34 33.178L126.723 23.8399L124.639 22.1924L126.111 20.3309L132.385 25.2915L130.913 27.153L128.845 25.5176L121.462 34.8557Z" fill="#FFFCF4"/>
<path d="M136.191 39.4047C135.356 40.17 134.532 40.7838 133.719 41.246C132.911 41.7038 132.131 41.9946 131.379 42.1185C130.627 42.2423 129.911 42.1834 129.231 41.9418C128.554 41.7049 127.928 41.2721 127.352 40.6433C126.771 40.0097 126.39 39.3434 126.209 38.6443C126.032 37.9408 126.041 37.2177 126.234 36.475C126.428 35.7324 126.788 34.9786 127.314 34.2136C127.841 33.4486 128.522 32.6834 129.357 31.9181C130.538 30.8361 131.659 30.0694 132.72 29.618C133.781 29.1667 134.77 29.0324 135.689 29.2153C136.607 29.3983 137.44 29.8977 138.188 30.7137C138.966 31.5632 139.388 32.4618 139.452 33.4092C139.521 34.3615 139.273 35.3436 138.709 36.3558C138.148 37.3635 137.309 38.3798 136.191 39.4047ZM131.262 34.0264C130.456 34.7654 129.839 35.4458 129.411 36.0676C128.988 36.685 128.751 37.2415 128.702 37.737C128.658 38.2281 128.8 38.6537 129.13 39.0137C129.464 39.3784 129.874 39.5599 130.357 39.558C130.846 39.5608 131.414 39.3759 132.061 39.0033C132.713 38.6355 133.452 38.0733 134.278 37.3167C135.511 36.1863 136.303 35.2094 136.652 34.386C137.006 33.5582 136.932 32.8707 136.431 32.3235C136.101 31.9635 135.687 31.7865 135.189 31.7924C134.691 31.7983 134.114 31.9874 133.457 32.3597C132.8 32.7319 132.069 33.2875 131.262 34.0264Z" fill="#FFFCF4"/>
<path d="M145.831 40.7825C146.4 41.6702 146.744 42.4899 146.863 43.2415C146.981 43.993 146.874 44.6765 146.542 45.2919C146.213 45.9127 145.66 46.4727 144.881 46.9718C144.388 47.2882 143.9 47.5161 143.417 47.6557C142.94 47.7917 142.46 47.8329 141.977 47.7792C141.503 47.7275 141.021 47.5799 140.533 47.3365L136.834 53.201L135.205 50.661L138.655 45.6753L138.212 44.9848L133.502 48.006L132.02 45.6962L144.038 37.9877L145.831 40.7825ZM143.872 42.0156L143.571 41.5471L140.037 43.8143L140.369 44.3322C140.699 44.8473 141.105 45.1362 141.586 45.1988C142.071 45.267 142.628 45.099 143.258 44.6947C143.823 44.3327 144.153 43.9313 144.25 43.4905C144.349 43.0553 144.223 42.5636 143.872 42.0156Z" fill="#FFFCF4"/>
<path d="M137.342 54.4849L150.23 48.3411L151.411 50.8182L138.523 56.962L137.342 54.4849Z" fill="#FFFCF4"/>
<path d="M141.653 65.1516L139.535 59.0952L153.012 54.3821L155.13 60.4385L152.927 61.2089L151.715 57.7429L148.544 58.8519L149.672 62.0782L147.46 62.8519L146.331 59.6256L142.69 60.899L143.902 64.365L141.653 65.1516Z" fill="#FFFCF4"/>
<path d="M147.6 72.6963C146.758 72.8702 145.98 72.8547 145.266 72.6498C144.553 72.445 143.95 72.0709 143.459 71.5275C142.969 70.9905 142.638 70.3044 142.465 69.4692C142.385 69.0803 142.333 68.6988 142.309 68.3249C142.278 67.9522 142.281 67.5794 142.317 67.2063C142.359 66.832 142.437 66.4503 142.549 66.0615L145.294 65.4943C145.068 66.0729 144.925 66.6541 144.866 67.238C144.807 67.8219 144.826 68.3465 144.922 68.812C144.993 69.1563 145.119 69.4262 145.299 69.6216C145.48 69.8235 145.697 69.9549 145.949 70.0159C146.202 70.0832 146.472 70.0873 146.759 70.028C147.065 69.9647 147.323 69.8616 147.533 69.7185C147.749 69.5742 147.943 69.3412 148.116 69.0196C148.297 68.7031 148.486 68.2518 148.684 67.6657C148.842 67.2076 149.014 66.7865 149.201 66.4022C149.389 66.0244 149.611 65.6859 149.869 65.3867C150.134 65.0927 150.458 64.8429 150.841 64.6375C151.224 64.432 151.692 64.272 152.247 64.1574C153.036 63.9876 153.76 63.9977 154.417 64.1876C155.076 64.3839 155.629 64.7449 156.077 65.2707C156.532 65.8015 156.843 66.4852 157.009 67.3217C157.127 67.8891 157.165 68.4596 157.124 69.0332C157.084 69.6131 156.976 70.1839 156.799 70.7456L154.275 70.4992C154.456 69.9899 154.569 69.5212 154.613 69.0932C154.664 68.6639 154.653 68.2739 154.581 67.9232C154.518 67.6172 154.404 67.3715 154.239 67.1861C154.082 67.0058 153.89 66.8825 153.664 66.8163C153.439 66.7564 153.196 66.7535 152.934 66.8075C152.603 66.876 152.333 66.985 152.124 67.1344C151.916 67.2839 151.729 67.5219 151.564 67.8485C151.406 68.1802 151.23 68.6455 151.035 69.2443C150.817 69.8943 150.556 70.4533 150.254 70.9212C149.958 71.3879 149.595 71.7688 149.164 72.0639C148.739 72.3577 148.218 72.5685 147.6 72.6963Z" fill="#FFFCF4"/>
<path opacity="0.6" fill-rule="evenodd" clip-rule="evenodd" d="M82.8008 116.144C101.136 116.144 116 101.28 116 82.9448C116 64.6094 101.136 49.7456 82.8008 49.7456C64.4654 49.7456 49.6016 64.6094 49.6016 82.9448C49.6016 101.28 64.4654 116.144 82.8008 116.144ZM76.3684 95.8829L94.4205 82.9448L76.3684 70.0067V95.8829Z" fill="#FFFCF4"/>
</svg>
