<svg width="145" height="52" viewBox="0 0 145 52" fill="none" xmlns="http://www.w3.org/2000/svg">
<g id="Group">
<path id="Vector" d="M0.0114836 19.9042C0.0459343 19.5247 0.0689015 19.1452 0.103352 18.7656C0.344507 16.4155 0.976104 14.2405 1.92924 12.2115C2.72161 10.5182 3.68623 9.01474 4.81162 7.65721C6.20113 5.96394 7.7629 4.57721 9.46247 3.42403C11.7477 1.89133 14.1707 0.86953 16.7316 0.35863C18.1441 0.0958814 19.5795 -0.035493 21.0149 0.0082985C23.0935 0.0812843 25.149 0.417019 27.1587 1.0447C27.4457 1.13228 27.7328 1.24906 28.0314 1.33664C28.1807 1.38043 28.2037 1.46801 28.1807 1.65778C27.9281 3.62839 27.6754 5.58441 27.4228 7.55503C27.1472 9.70081 26.8716 11.8612 26.596 14.007C26.596 14.08 26.596 14.1967 26.5271 14.2259C26.4582 14.2551 26.4122 14.1675 26.3663 14.1091C25.1031 12.737 23.6906 11.686 22.06 11.2043C19.3039 10.4015 16.789 11.1021 14.5612 13.2917C13.5506 14.2843 12.8157 15.5543 12.4941 17.16C12.0807 19.2473 12.7123 21.2618 14.1478 22.5025C15.1813 23.4075 16.3296 23.8308 17.5699 23.933C19.5565 24.0936 21.4284 23.5535 23.2313 22.4879C23.9547 22.0646 24.6438 21.5537 25.3098 20.999C25.3557 20.9552 25.4132 20.8676 25.4821 20.9114C25.5395 20.9698 25.4935 21.0574 25.4821 21.1304C25.1835 22.7653 24.8849 24.4001 24.5863 26.035C24.1385 28.4436 23.7021 30.8667 23.2657 33.2752C23.2313 33.465 23.1509 33.5234 23.0246 33.5672C22.2092 33.8883 21.3595 34.0781 20.5212 34.2386C19.3154 34.4722 18.1096 34.6181 16.8923 34.7057C15.8588 34.7787 14.8253 34.8663 13.7918 34.8079C11.541 34.7057 9.34763 34.224 7.24614 33.1146C5.51212 32.195 3.96183 30.9397 2.67567 29.1588C1.26319 27.2028 0.378958 24.911 0.103352 22.269C0.0574179 21.8748 0.0344507 21.4807 0 21.0866C0 20.6779 0 20.2691 0 19.875L0.0114836 19.9042Z" fill="#1E1C1C"/>
<path id="Vector_2" d="M78.3182 51.3758C78.0886 51.3028 77.8474 51.3174 77.6177 51.2882C76.389 51.1569 75.2177 50.7919 74.2071 49.8139C73.3229 48.9673 72.8061 47.8433 72.7143 46.4274C72.7143 46.3106 72.6913 46.1938 72.6568 46.0771C72.5535 46.7631 72.4501 47.4346 72.3583 48.1207C72.2205 49.0403 72.0827 49.9453 71.9563 50.8649C71.9219 51.0839 71.8415 51.1423 71.6922 51.1277C70.475 51.1277 69.2577 51.1277 68.0404 51.1277C67.7878 51.1277 67.7878 51.1131 67.8337 50.7919C68.0175 49.5366 68.2012 48.2812 68.3964 47.0259C68.4309 46.8215 68.385 46.7631 68.2242 46.7631C67.5007 46.7631 66.7773 46.7631 66.0653 46.7631C65.916 46.7631 65.8471 46.8215 65.8241 47.0113C65.6404 48.2812 65.4452 49.5512 65.2614 50.8357C65.227 51.0547 65.1695 51.1423 64.9973 51.1423C63.7686 51.1423 62.5398 51.1423 61.2996 51.1423C61.1273 51.1423 61.0814 51.0839 61.1044 50.8649C61.4489 48.5878 61.7819 46.3106 62.1264 44.0335C62.3331 42.6467 62.5398 41.26 62.7465 39.8733C62.7465 39.8441 62.7465 39.8149 62.7121 39.7711C62.5857 40.0338 62.4594 40.282 62.3331 40.5447C60.8977 43.5517 59.4622 46.5588 58.0268 49.5658C57.8086 50.0183 57.5904 50.4708 57.3722 50.9379C57.3033 51.0839 57.2344 51.1423 57.0966 51.1423C55.9827 51.1423 54.8688 51.1423 53.7434 51.1423C53.5826 51.1423 53.5252 51.0693 53.5137 50.8649C53.4333 49.1425 53.3415 47.4054 53.2611 45.6829C53.2381 45.3034 53.2266 44.9239 53.2151 44.5444C53.2151 44.4714 53.2266 44.3838 53.1462 44.3692C53.0659 44.3692 53.0659 44.4568 53.0544 44.5298C52.8706 45.537 52.5146 46.4566 52.1587 47.3616C51.6878 48.5294 51.24 49.7117 50.7921 50.8941C50.7117 51.0839 50.6199 51.1569 50.4476 51.1569C49.3911 51.1569 48.3346 51.1569 47.2667 51.1569C47.0829 51.1569 47.014 51.0839 46.9796 50.8503C46.4973 48.1353 46.0149 45.4348 45.5212 42.7197C45.2915 41.4206 45.0618 40.136 44.8207 38.8369C44.7747 38.5741 44.7977 38.5449 44.9929 38.5449C46.3365 38.5449 47.6686 38.5449 49.0122 38.5449C49.1729 38.5449 49.2303 38.6179 49.2418 38.8223C49.3222 40.5155 49.4141 42.2088 49.4945 43.9167C49.5289 44.5589 49.5519 45.2012 49.5863 45.8289C49.5863 45.8873 49.5634 45.9749 49.6323 45.9895C49.6897 45.9895 49.6897 45.9165 49.7012 45.8581C50.149 43.9751 50.9414 42.2964 51.6074 40.5301C51.8256 39.9463 52.0553 39.3624 52.2735 38.7785C52.3424 38.6033 52.4228 38.5449 52.5721 38.5449C53.5252 38.5449 54.4898 38.5449 55.443 38.5449C55.6037 38.5449 55.6611 38.6033 55.6726 38.8223C55.7415 39.9317 55.8219 41.0556 55.8908 42.165C55.9712 43.3766 56.0516 44.5881 56.132 45.7997C56.132 45.8727 56.132 45.9457 56.1894 45.9895C56.2468 45.9749 56.2468 45.9019 56.2583 45.8581C56.4994 44.7633 56.8669 43.7269 57.2574 42.7051C57.7397 41.4206 58.222 40.136 58.6928 38.8369C58.7732 38.6179 58.8765 38.5449 59.0603 38.5449C61.6326 38.5449 64.2164 38.5449 66.7887 38.5449C67.0529 38.5449 67.0529 38.5449 67.0069 38.8661C66.8232 40.0776 66.6509 41.2892 66.4672 42.5008C66.4327 42.7051 66.4672 42.7781 66.6509 42.7781C67.3744 42.7781 68.0979 42.7781 68.8098 42.7781C68.9476 42.7781 69.0165 42.7051 69.0395 42.5299C69.2118 41.3184 69.3955 40.1068 69.5792 38.8953C69.6367 38.5449 69.6252 38.5303 69.9008 38.5303C71.0951 38.5303 72.2894 38.5303 73.4837 38.5303C73.7822 38.5303 73.7822 38.5303 73.7248 38.8953C73.4837 40.4863 73.254 42.0774 73.0128 43.6685C73.0128 43.6977 73.0128 43.7123 73.0128 43.7853C73.2425 43.0554 73.5296 42.4132 73.9085 41.8293C74.7469 40.5301 75.8148 39.6543 77.0436 39.0704C78.1345 38.5595 79.2714 38.3114 80.4427 38.3406C81.66 38.3844 82.8313 38.6763 83.8878 39.4791C85.1739 40.4717 85.8859 41.8877 85.8744 43.8437C85.8744 43.8729 85.8744 43.8875 85.8974 43.9167C85.9778 43.4058 86.0467 42.9095 86.1271 42.3986C86.3108 41.187 86.4945 39.9608 86.6668 38.7493C86.6898 38.5887 86.7472 38.5303 86.8735 38.5303C88.1941 38.5303 89.5147 38.5303 90.8353 38.5303C91.042 38.5303 90.9846 38.7055 90.9617 38.8369C90.8468 39.6105 90.732 40.3988 90.6172 41.1724C90.3416 43.0408 90.0659 44.9093 89.7789 46.7777C89.7444 47.0113 89.8133 47.0405 89.9626 47.0405C90.9846 47.0405 92.0067 47.0405 93.0287 47.0405C93.3273 47.0405 93.3273 47.0405 93.2699 47.4054C93.0976 48.5586 92.9254 49.7117 92.7531 50.8649C92.7301 51.0693 92.6612 51.1277 92.5005 51.1277C90.02 51.1277 87.5396 51.1277 85.0591 51.1277C84.8754 51.1277 84.8409 51.0547 84.8754 50.8357C85.1165 49.2446 85.3462 47.6535 85.5873 46.0625C85.5873 46.0333 85.5873 46.0041 85.5988 45.9165C85.4725 46.2522 85.3692 46.5588 85.2543 46.8361C84.5538 48.471 83.4744 49.5658 82.1538 50.3102C81.1317 50.8941 80.0637 51.2007 78.9498 51.2882C78.7546 51.2882 78.5594 51.2736 78.3642 51.3612H78.3297L78.3182 51.3758ZM81.4877 44.6027C81.4877 43.7561 81.1891 43.143 80.6724 42.8073C79.7996 42.2526 78.3068 42.457 77.5144 43.7853C77.2043 44.3108 77.0206 44.8947 77.0665 45.5516C77.124 46.442 77.5603 47.0113 78.2723 47.2302C78.9728 47.4346 79.6503 47.3324 80.2705 46.8945C81.0054 46.3836 81.4303 45.5807 81.4762 44.6027H81.4877Z" fill="#1E1C1C"/>
<path id="Vector_3" d="M105.879 51.3758C105.661 51.2736 105.443 51.3174 105.213 51.3028C104.053 51.2006 102.928 50.9087 101.848 50.354C101.63 50.2518 101.63 50.2518 101.584 50.5292C101.515 50.9379 101.316 51.1422 100.987 51.1422C98.6098 51.1422 96.2212 51.1422 93.8441 51.1422C93.7752 51.1422 93.7178 51.1422 93.6489 51.1422C93.4881 51.1422 93.4537 51.0693 93.4766 50.8795C93.603 50.0329 93.7293 49.1862 93.8556 48.3542C94.3264 45.172 94.7972 42.0044 95.2681 38.8222C95.291 38.6325 95.3599 38.5449 95.5207 38.5449C98.0241 38.5449 100.528 38.5449 103.019 38.5449C103.192 38.5449 103.226 38.6179 103.203 38.8222C103.054 39.8294 102.893 40.8366 102.755 41.8585C102.732 42.0482 102.629 42.0482 102.514 42.0482C101.906 42.0482 101.297 42.0482 100.7 42.0482C100.252 42.0482 99.7926 42.0482 99.3447 42.0482C99.1955 42.0482 99.1151 42.092 99.1036 42.2964C99.0921 42.4861 99.0462 42.6613 99.0232 42.8511C98.9773 43.1722 98.9773 43.1868 99.2414 43.1868C100.149 43.1868 101.056 43.1868 101.963 43.1868C102.162 43.1868 102.242 43.3084 102.204 43.5517C102.078 44.4275 101.94 45.3034 101.825 46.1792C101.791 46.442 101.699 46.5003 101.504 46.5003C100.573 46.5003 99.6433 46.5003 98.7131 46.5003C98.5409 46.5003 98.472 46.5587 98.449 46.7777C98.4261 46.9966 98.4031 47.2302 98.3572 47.4492C98.3112 47.6535 98.3572 47.6973 98.5179 47.6973C99.5055 47.6973 100.482 47.6973 101.469 47.6973C101.584 47.6973 101.699 47.6973 101.814 47.6973C102.043 47.6973 102.043 47.6973 102.009 47.9747C101.929 48.5002 101.848 49.0256 101.779 49.5511C101.779 49.5949 101.745 49.6387 101.791 49.6971C102.078 49.157 102.353 48.6169 102.629 48.0768C102.847 47.6681 103.065 47.2594 103.272 46.8361C103.364 46.6609 103.433 46.6317 103.571 46.7631C104.133 47.3032 104.742 47.7119 105.443 47.8725C105.844 47.9601 106.246 47.9893 106.637 47.8579C106.74 47.8141 106.844 47.7703 106.935 47.7119C107.119 47.5659 107.291 47.3908 107.245 47.0842C107.211 46.7777 107.004 46.7193 106.821 46.6755C106.304 46.5441 105.776 46.4566 105.259 46.3252C104.662 46.1792 104.087 45.9019 103.617 45.391C103.1 44.8217 102.882 44.0918 102.985 43.2452C103.146 41.8293 103.777 40.7929 104.662 39.9754C105.569 39.1434 106.602 38.7055 107.705 38.5011C109.071 38.253 110.415 38.4281 111.701 39.085C111.873 39.1726 112.046 39.3039 112.218 39.4061C112.321 39.4645 112.356 39.5375 112.287 39.6835C111.793 40.6469 111.299 41.6103 110.817 42.5883C110.736 42.7489 110.668 42.7051 110.564 42.6321C110.001 42.2088 109.416 41.9022 108.761 41.8293C108.44 41.7855 108.107 41.8001 107.797 41.9314C107.682 41.9752 107.59 42.0628 107.51 42.165C107.314 42.4423 107.372 42.7489 107.647 42.8657C108.026 43.0262 108.417 43.0846 108.807 43.1868C109.473 43.362 110.139 43.5517 110.736 44.0188C111.552 44.6757 111.827 45.6099 111.678 46.7923C111.667 46.9091 111.644 47.0258 111.667 47.1572C111.85 46.7777 112.034 46.3836 112.218 46.004C113.355 43.5955 114.503 41.187 115.64 38.7785C115.709 38.6325 115.789 38.5595 115.927 38.5595C117.374 38.5595 118.809 38.5595 120.256 38.5595C120.452 38.5595 120.497 38.6763 120.532 38.8806C121.095 41.946 121.669 45.0114 122.232 48.0768C122.335 48.6461 122.45 49.23 122.587 49.7993C122.633 49.4782 122.691 49.1716 122.737 48.8505C122.978 47.2594 123.208 45.6683 123.437 44.0772C123.69 42.3402 123.954 40.5885 124.207 38.8514C124.241 38.6471 124.299 38.5449 124.482 38.5449C125.757 38.5449 127.032 38.5449 128.306 38.5449C128.536 38.5449 128.547 38.5595 128.513 38.8514C128.237 40.7199 127.962 42.5737 127.686 44.4421C127.571 45.2158 127.457 45.9894 127.342 46.7631C127.296 47.0404 127.319 47.0696 127.548 47.0696C128.559 47.0696 129.581 47.0696 130.592 47.0696C130.879 47.0696 130.879 47.0696 130.821 47.42C130.649 48.5585 130.477 49.7117 130.316 50.8649C130.281 51.0984 130.201 51.1714 130.029 51.1714C129.041 51.1714 128.054 51.1714 127.066 51.1714C124.23 51.1714 121.382 51.1714 118.545 51.1714C118.258 51.1714 118.258 51.1714 118.212 50.8065C118.178 50.5 118.143 50.1788 118.12 49.8723C118.109 49.6971 118.051 49.6095 117.902 49.6095C116.961 49.6095 116.019 49.6095 115.066 49.6095C114.939 49.6095 114.871 49.6825 114.813 49.8139C114.675 50.1934 114.538 50.5584 114.4 50.9379C114.342 51.0984 114.262 51.1714 114.124 51.1714C112.758 51.1714 111.38 51.1714 110.013 51.1714C109.795 51.1714 109.783 51.1422 109.898 50.8941C110.151 50.3394 110.415 49.7993 110.656 49.2446C110.392 49.5511 110.116 49.8139 109.829 50.0474C108.945 50.7481 107.969 51.113 106.947 51.2882C106.614 51.3466 106.269 51.332 105.948 51.4196H105.913L105.879 51.3758ZM117.144 46.5441C117.362 46.5441 117.592 46.5441 117.81 46.5441C117.925 46.5441 117.971 46.5003 117.96 46.3398C117.856 45.2158 117.764 44.0918 117.741 42.9532C117.741 42.8948 117.741 42.8073 117.684 42.7927C117.615 42.7781 117.604 42.8511 117.581 42.9094C117.179 44.048 116.777 45.2012 116.375 46.3398C116.317 46.5003 116.375 46.5441 116.49 46.5441C116.708 46.5441 116.926 46.5441 117.144 46.5441Z" fill="#1E1C1C"/>
<path id="Vector_4" d="M55.2821 18.8679C55.2591 19.1744 55.2591 19.481 55.2362 19.7875C55.1098 21.437 54.7653 22.9989 54.2141 24.5024C53.0887 27.5532 51.3088 29.8595 49.0924 31.6404C47.0254 33.2899 44.7631 34.3117 42.3746 34.881C40.7439 35.2751 39.1017 35.4211 37.4481 35.3481C35.3925 35.2459 33.3714 34.8226 31.4537 33.83C30.0527 33.1001 28.778 32.1221 27.7215 30.7208C26.5502 29.1735 25.8267 27.3342 25.5971 25.203C25.2985 22.561 25.6889 20.0357 26.5617 17.6417C27.5722 14.8683 29.134 12.6933 31.0862 10.9562C33.4518 8.82504 36.1045 7.56969 38.9524 6.94201C40.4683 6.60628 41.9956 6.4895 43.5229 6.57708C45.7737 6.70846 47.9556 7.24855 49.9882 8.5185C51.9174 9.71547 53.4907 11.4233 54.4668 13.9049C54.9376 15.1164 55.2017 16.401 55.2821 17.7585C55.2821 17.7877 55.2821 17.8169 55.2821 17.8753C55.4199 15.8025 56.04 14.0216 57.062 12.4451C57.9807 11.0146 59.1176 9.93443 60.3923 9.0586C62.2871 7.75945 64.3312 7.02959 66.4671 6.70846C67.6614 6.53329 68.8557 6.51869 70.0615 6.63547C72.2548 6.83983 74.3448 7.5259 76.297 8.83964C76.5612 9.01481 76.5612 9.01481 76.4004 9.32135C75.2635 11.5255 74.1266 13.7297 72.9898 15.9339C72.8979 16.109 72.7792 16.1431 72.6338 16.036C71.4625 15.131 70.2107 14.4595 68.8557 14.2114C67.9714 14.0508 67.0872 13.9778 66.2259 14.372C65.9389 14.5033 65.6747 14.6931 65.4795 15.0142C65.112 15.6127 65.2384 16.2112 65.7896 16.5031C66.1111 16.6783 66.4671 16.7513 66.8116 16.8389C68.1322 17.1746 69.4643 17.4228 70.7505 17.9191C71.761 18.3132 72.7256 18.8533 73.5525 19.7145C74.5401 20.7655 75.0683 22.1085 75.0798 23.7433C75.1028 26.1519 74.4022 28.2393 73.1505 30.0201C71.8299 31.9177 70.1533 33.1293 68.316 33.9905C66.7772 34.7058 65.1809 35.1291 63.5503 35.3043C62.2641 35.4502 60.9894 35.4065 59.7148 35.2605C57.6936 35.0269 55.7185 34.516 53.7892 33.6986C53.2725 33.4796 52.7672 33.2315 52.2734 32.9541C52.1241 32.8666 52.0897 32.7936 52.193 32.6038C53.4907 30.1369 54.7883 27.67 56.0859 25.203C56.2352 24.9111 56.2352 24.9111 56.4534 25.1155C57.5329 26.1519 58.6927 26.9985 60.0018 27.451C61.1617 27.8597 62.333 28.0495 63.5273 27.6846C63.8603 27.5824 64.1819 27.4364 64.4804 27.1737C64.6412 27.0277 64.7905 26.8525 64.8938 26.6336C65.1924 25.9913 65.0317 25.3636 64.4919 25.0863C64.0326 24.8527 63.5388 24.7943 63.0565 24.6921C62.0689 24.4878 61.0698 24.3564 60.0937 24.0499C58.9913 23.7141 57.9463 23.2178 57.0276 22.342C56.1434 21.51 55.5577 20.4444 55.3625 19.0576C55.3625 19.0139 55.3625 18.9555 55.3051 18.9117L55.2821 18.8679ZM39.607 26.4876C40.3305 26.5022 41.0769 26.3562 41.7889 26.0351C43.2243 25.3928 44.3497 24.2542 44.9813 22.4588C45.3718 21.364 45.5096 20.2108 45.2684 19.0285C44.9354 17.452 44.0741 16.5177 42.8798 16.0652C41.5592 15.5543 40.2271 15.6419 38.9295 16.255C36.9888 17.1892 35.6796 18.8679 35.3811 21.5538C35.1744 23.393 35.76 24.9403 37.0921 25.8161C37.873 26.327 38.7113 26.5022 39.607 26.4876Z" fill="#1E1C1C"/>
<path id="Vector_5" d="M131.487 6.5188C133.956 6.5188 136.104 6.91292 138.159 7.93472C140.18 8.94193 141.903 10.4308 143.12 12.7664C143.786 14.0363 144.222 15.4377 144.36 16.9558C144.705 20.5175 143.947 23.7434 142.385 26.6921C141.294 28.7357 139.87 30.3413 138.228 31.6405C136.701 32.8667 135.047 33.7279 133.313 34.341C132.107 34.7643 130.878 35.0416 129.627 35.2022C128.628 35.3336 127.617 35.3774 126.607 35.3336C124.494 35.2314 122.427 34.7935 120.451 33.7425C119.062 32.998 117.799 31.9908 116.777 30.5749C115.605 28.9546 114.905 27.057 114.71 24.8674C114.491 22.3713 114.859 19.992 115.674 17.7294C116.65 14.9851 118.189 12.8102 120.095 11.0585C122.518 8.82515 125.252 7.5406 128.18 6.89832C129.351 6.65017 130.545 6.5042 131.476 6.5334L131.487 6.5188ZM128.869 26.4731C129.121 26.4731 129.489 26.4439 129.856 26.3709C131.602 25.9914 133.026 24.9842 133.945 22.999C134.473 21.8604 134.703 20.605 134.496 19.2767C134.255 17.6856 133.451 16.6784 132.279 16.1383C131.349 15.7004 130.373 15.642 129.397 15.8318C127.95 16.0945 126.71 16.8536 125.734 18.2695C124.907 19.4665 124.471 20.8532 124.528 22.4735C124.585 23.8018 125.056 24.8382 125.929 25.5681C126.779 26.2833 127.743 26.4877 128.857 26.4877L128.869 26.4731Z" fill="#1E1C1C"/>
<path id="Vector_6" d="M109.795 6.5187C112.091 6.5187 114.09 6.86903 116.053 7.56969C116.237 7.64268 116.306 7.71566 116.271 7.97841C116.053 9.68628 115.847 11.3795 115.64 13.0874C115.445 14.6931 115.249 16.2842 115.043 17.8899C115.031 18.0213 115.043 18.1964 114.962 18.2402C114.859 18.2986 114.779 18.1234 114.71 18.0358C113.768 17.014 112.734 16.1966 111.529 15.8317C108.91 15.0288 106.614 15.7879 104.742 18.284C103.984 19.3058 103.559 20.5466 103.616 21.9917C103.662 23.1157 104.041 24.0353 104.696 24.7797C105.465 25.6702 106.407 26.1227 107.429 26.2686C109.416 26.5314 111.253 25.9037 112.976 24.6776C113.332 24.4294 113.665 24.1667 113.998 23.8747C114.032 23.8455 114.078 23.7725 114.135 23.8309C114.17 23.8747 114.135 23.9331 114.135 23.9915C113.802 25.8745 113.469 27.7576 113.136 29.626C112.884 31.0565 112.62 32.5016 112.378 33.9467C112.344 34.1657 112.264 34.2679 112.091 34.3409C111.219 34.6766 110.311 34.8664 109.404 34.9977C107.831 35.2459 106.246 35.4065 104.65 35.3335C102.135 35.2167 99.7465 34.4722 97.6336 32.6622C95.8995 31.1733 94.6593 29.2027 94.0507 26.6336C93.6143 24.7797 93.5913 22.8967 93.9014 21.0137C94.3148 18.4592 95.245 16.2404 96.5426 14.2406C98.1848 11.7445 100.206 9.89064 102.526 8.5623C104.191 7.59889 105.936 6.98581 107.751 6.69386C108.509 6.57708 109.278 6.5041 109.783 6.5187H109.795Z" fill="#1E1C1C"/>
<path id="Vector_7" d="M87.3557 6.95667C90.6056 6.95667 93.8669 6.95667 97.1168 6.95667C97.1857 6.95667 97.2431 6.95667 97.312 6.95667C97.4842 6.94208 97.5187 7.02966 97.4728 7.23402C97.0708 8.92729 96.6689 10.6206 96.267 12.3138C95.9914 13.4816 95.7158 14.6348 95.4402 15.8025C95.3942 16.0069 95.3138 16.0799 95.1416 16.0653C93.7061 15.9777 92.2707 15.9047 90.8467 15.8317C90.6745 15.8317 90.5022 15.8317 90.33 15.8171C90.1692 15.8025 90.0888 15.8901 90.0429 16.0799C89.7328 17.4374 89.4113 18.7804 89.0897 20.1379C88.0907 24.3419 87.1031 28.5459 86.104 32.7498C85.9547 33.3775 85.8054 34.0052 85.6562 34.6329C85.6102 34.8226 85.5413 34.8956 85.392 34.8956C82.3029 34.8956 79.2024 34.8956 76.1133 34.8956C75.9066 34.8956 75.9066 34.8956 75.987 34.5453C76.676 31.6405 77.365 28.721 78.054 25.8162C78.8234 22.5756 79.5813 19.3497 80.3507 16.1091C80.4196 15.8171 80.4196 15.8025 80.1785 15.8171C78.6856 15.8901 77.1813 15.9485 75.6884 16.0215C75.5506 16.0215 75.4128 16.0361 75.2635 16.0653C75.0913 16.0945 75.0568 15.9923 75.1027 15.788C75.3209 14.9121 75.5276 14.0217 75.7343 13.1313C76.1822 11.219 76.6415 9.29222 77.0894 7.37999C77.2042 6.89829 77.1353 6.94208 77.5602 6.94208C80.8216 6.94208 84.0944 6.94208 87.3557 6.94208V6.95667Z" fill="#1E1C1C"/>
<path id="Vector_8" d="M22.6688 42.0046C15.5375 42.0046 8.40624 42.0046 1.27494 42.0046C1.26345 42.0046 1.25197 42.0046 1.24049 42.0046C1.02613 42.0046 0.918945 41.8732 0.918945 41.6105C0.918945 40.72 0.918945 39.8296 0.918945 38.9392C0.918945 38.6959 1.01464 38.5743 1.20603 38.5743C5.54683 38.5743 9.8991 38.5743 14.2399 38.5743C23.978 38.5743 33.716 38.5743 43.4541 38.5743C43.8905 38.5743 43.8216 38.5013 43.9249 39.0414C44.0857 39.9318 44.235 40.8076 44.3958 41.698C44.4532 42.0046 44.4417 42.0046 44.2005 42.0046C38.987 42.0046 33.7849 42.0046 28.5714 42.0046C26.6077 42.0046 24.644 42.0046 22.6803 42.0046H22.6688Z" fill="#1E1C1C"/>
<path id="Vector_9" d="M23.4957 51.1421H1.38977C1.32087 51.1421 1.26345 51.1421 1.19455 51.1421C0.918945 51.1421 0.918945 51.1421 0.918945 50.7917C0.918945 49.9159 0.918945 49.0401 0.918945 48.1643C0.918945 47.9307 0.976363 47.8577 1.14862 47.8723C1.20603 47.8723 1.26345 47.8723 1.32087 47.8723C15.9165 47.8723 30.5236 47.8723 45.1192 47.8723C45.1766 47.8723 45.2341 47.8723 45.2915 47.8723C45.4523 47.8577 45.5212 47.9307 45.5671 48.1497C45.7279 49.0693 45.8886 50.0035 46.0609 50.9231C46.0953 51.1129 46.0609 51.1567 45.9231 51.1421C45.8542 51.1421 45.7968 51.1421 45.7279 51.1421C38.321 51.1421 30.914 51.1421 23.5071 51.1421H23.4957Z" fill="#1E1C1C"/>
<path id="Vector_10" d="M23.1167 46.6025C15.882 46.6025 8.65888 46.6025 1.42422 46.6025C1.08737 46.6025 0.918945 46.3933 0.918945 45.9748C0.918945 45.2158 0.918945 44.4567 0.918945 43.6831C0.918945 43.3327 0.918945 43.3327 1.19455 43.3327C4.76594 43.3327 8.33734 43.3327 11.9202 43.3327C22.7377 43.3327 33.5668 43.3327 44.3843 43.3327C44.6943 43.3327 44.6943 43.3327 44.7632 43.7123C44.924 44.5881 45.0733 45.4493 45.2341 46.3251C45.28 46.5441 45.2341 46.6171 45.0503 46.6171C44.7862 46.6171 44.5106 46.6171 44.2465 46.6171C37.207 46.6171 30.1561 46.6171 23.1167 46.6171V46.6025Z" fill="#1E1C1C"/>
<path id="Vector_11" d="M135.024 51.1421C133.773 51.1421 132.509 51.1421 131.258 51.1421C131.005 51.1421 131.005 51.1421 131.051 50.821C131.499 47.7848 131.958 44.734 132.406 41.6978C132.544 40.7344 132.693 39.7709 132.831 38.8075C132.865 38.5886 132.934 38.5302 133.095 38.5302C135.587 38.5302 138.067 38.5302 140.559 38.5302C140.778 38.5302 140.789 38.5448 140.755 38.8221C140.617 39.8001 140.467 40.7635 140.33 41.7416C140.295 41.9605 140.226 42.0335 140.054 42.0335C139.021 42.0335 137.987 42.0335 136.954 42.0335C136.758 42.0335 136.655 42.0919 136.643 42.3546C136.643 42.5006 136.598 42.6612 136.575 42.8071C136.529 43.1429 136.529 43.1575 136.793 43.1575C137.447 43.1575 138.09 43.1575 138.745 43.1575C139.032 43.1575 139.319 43.1575 139.606 43.1575C139.744 43.1575 139.801 43.2159 139.767 43.4056C139.629 44.3398 139.491 45.2887 139.354 46.2229C139.331 46.4272 139.25 46.4856 139.089 46.471C138.159 46.471 137.229 46.471 136.299 46.471C136.092 46.471 136 46.5586 135.977 46.8214C135.966 47.0257 135.931 47.2155 135.886 47.4198C135.851 47.6096 135.886 47.6826 136.058 47.6826C137.149 47.6826 138.24 47.6826 139.331 47.6826C139.491 47.6826 139.556 47.7799 139.526 47.9745C139.388 48.9234 139.239 49.8868 139.101 50.8356C139.066 51.0691 138.998 51.1567 138.802 51.1567C137.551 51.1567 136.287 51.1567 135.036 51.1567L135.024 51.1421Z" fill="#1E1C1C"/>
</g>
</svg>
