<svg width="195" height="48" viewBox="0 0 195 48" fill="none" xmlns="http://www.w3.org/2000/svg">
<g id="Group">
<path id="Vector" d="M194.99 46.8725C194.602 47.1502 194.413 47.5881 193.908 47.8168C192.837 48.2971 191.69 47.7482 191.159 46.7516C190.644 45.7845 191.257 44.4318 192.289 44.0463C193.364 43.6444 194.162 43.9025 194.801 44.8468C194.833 44.8925 194.925 44.8991 194.99 44.9219V46.8725ZM192.143 47.2123C192.68 47.5521 193.501 47.5325 193.902 47.1731C194.921 46.6177 195.039 45.2519 193.609 44.3632C193.27 44.4449 192.833 44.1999 192.4 44.5789C192.788 44.7292 193.12 44.6475 193.482 44.703C193.7 44.9187 194.042 45.0886 194.055 45.51C193.964 45.7616 193.872 46.0099 193.654 46.2125C194.006 46.4837 193.85 46.8627 193.918 47.1894C193.299 47.1502 193.374 46.3497 192.859 46.1929C192.651 46.4445 192.82 46.7516 192.661 47.0326C192.507 47.0882 192.319 47.1568 192.13 47.2254C192.279 46.389 192.149 45.5525 192.214 44.6409C191.367 45.3499 191.374 46.4412 192.139 47.2123H192.143ZM193.436 45.3009C193.208 45.18 192.996 45.1572 192.781 45.3009C192.784 45.4937 192.739 45.693 193.019 45.7192C193.335 45.7486 193.397 45.546 193.436 45.3009Z" fill="black"/>
<path id="Vector_2" d="M55.5078 16.9538C55.3482 16.4571 55.3677 15.9278 55.5208 15.4541C55.7489 14.7516 55.6348 14.0263 55.7684 13.3336C56.0355 11.9385 56.0746 10.5237 55.9411 9.13185C55.7912 7.57334 55.7228 5.9887 55.2211 4.4694C55.0941 4.08386 54.9182 3.67218 54.8921 3.23109C55.7098 2.81941 56.5861 2.75407 57.4136 2.52209C58.4365 2.23457 59.4985 2.11694 60.5116 1.78041C60.984 1.62358 61.5052 1.5811 61.9841 1.51576C63.3687 1.32299 64.7369 1.03546 66.1214 0.84596C67.2909 0.685862 68.4865 0.692396 69.6365 0.365666C70.0046 0.261112 70.4216 0.342795 70.8125 0.297052C73.9888 -0.0950244 77.1846 -0.0264109 80.3641 0.0944794C81.6086 0.140222 82.8888 0.189231 84.1203 0.38527C85.0129 0.525764 85.9022 0.486556 86.7753 0.62705C88.4758 0.904771 90.1959 0.970118 91.8932 1.22497C93.0659 1.4014 94.2485 1.54843 95.405 1.78041C97.1153 2.12021 98.8451 2.36526 100.552 2.73773C101.347 2.9109 102.174 3.02199 102.995 3.11674C104.439 3.28664 105.862 3.58396 107.312 3.74406C108.661 3.89436 110.016 4.07079 111.355 4.28317C112.645 4.48901 113.954 4.37792 115.238 4.68178C115.99 4.85821 116.808 4.78306 117.593 4.78306C119.773 4.78306 121.965 4.92356 124.131 4.68504C125.164 4.57069 126.229 4.62623 127.249 4.29297C127.868 4.0904 128.549 4.14267 129.2 4.03158C129.979 3.90089 130.767 3.74406 131.556 3.63297C132.601 3.48921 133.631 3.19842 134.66 2.94684C135.217 2.80961 135.784 2.741 136.341 2.5907C137.674 2.23457 139.029 1.96338 140.342 1.52229C140.599 1.43734 140.876 1.37526 141.234 1.55823C141.068 3.78 140.622 6.01157 140.661 8.28235C140.7 10.5629 141.081 12.7684 141.704 15.1078C141.632 15.4704 141.107 15.526 140.782 15.5782C139.72 15.7481 138.69 16.0618 137.641 16.2709C136.563 16.4866 135.472 16.6793 134.41 16.9897C133.849 17.1531 133.237 17.1008 132.654 17.2772C132.165 17.4243 131.624 17.47 131.119 17.5288C129.793 17.6791 128.464 17.8458 127.135 17.983C125.734 18.13 124.311 18.0287 122.942 18.2542C121.278 18.5286 119.62 18.4959 117.987 18.3783C116.469 18.2705 114.935 18.3391 113.443 18.1137C112.179 17.9242 110.915 17.9862 109.664 17.8163C108.172 17.6138 106.683 17.4177 105.188 17.2642C104.018 17.1433 102.855 16.9113 101.696 16.7153C100.474 16.5062 99.2295 16.3722 98.0242 16.0389C97.3433 15.8494 96.6136 15.7874 95.9132 15.7024C94.5547 15.5423 93.2288 15.1992 91.8671 15.0391C90.564 14.8888 89.2674 14.6634 87.9611 14.4968C85.8175 14.2256 83.6642 14.1308 81.5271 13.889C78.6603 13.5623 75.8001 13.6211 72.9496 13.7649C71.6498 13.8302 70.3141 13.889 69.011 14.1798C68.2161 14.3563 67.3756 14.353 66.5677 14.5294C65.3135 14.8006 64.0463 14.9999 62.7953 15.2973C61.8245 15.5292 60.8342 15.7089 59.8601 15.9409C58.6254 16.2317 57.381 16.4996 56.1887 16.9472C55.9606 17.0322 55.7456 17.0453 55.498 16.957L55.5078 16.9538ZM74.2689 3.66891C73.9432 3.66891 73.6207 3.68198 73.2949 3.66565C73.0408 3.65258 72.8779 3.84861 72.6564 3.90743C70.3239 4.53475 69.7212 7.51126 71.4966 9.0763C72.8388 10.2623 74.9987 10.3211 76.6047 9.28541C77.8655 8.47185 78.4062 6.57355 77.4973 5.19148C76.709 3.98911 75.6209 3.57743 74.2689 3.66891ZM130.416 8.7267C131.719 8.1778 133.067 7.95889 134.647 8.52086C134.364 7.95235 134.914 7.73344 134.761 7.33156C133.716 7.178 132.742 6.9885 131.657 7.21721C130.243 7.51453 129.119 7.93928 128.722 9.45858C128.979 10.5433 129.865 10.8374 130.813 10.9158C131.82 11.0007 132.764 10.5629 133.82 10.7002C133.852 10.9125 134.204 10.8603 134.237 11.2654C133.83 12.0757 133.048 12.2848 132.142 12.3077C131.285 12.3305 130.435 12.3077 129.621 11.9581C129.484 12.507 129.552 12.9415 129.308 13.2977C131.106 14.2517 134.312 13.5264 135.638 11.8633C135.66 11.6313 135.696 11.3765 135.706 11.1216C135.732 10.3865 135.371 9.88006 134.719 9.59254C134.396 9.44878 134.035 9.50432 133.686 9.48799C132.605 9.43898 131.517 9.62521 130.435 9.47818C130.341 9.21353 130.328 8.99135 130.419 8.7267H130.416ZM87.2281 4.92683C87.0587 4.65891 86.873 4.56742 86.6352 4.50534C86.1107 4.36812 85.609 4.12307 85.0813 4.04139C83.9769 3.87475 82.84 3.67871 81.7877 4.25703C81.159 4.60336 80.9082 5.17514 80.9798 5.91028C81.0385 6.52781 81.4229 6.8186 81.9311 7.01463C82.6934 7.30869 83.472 7.50146 84.2864 7.60928C84.8011 7.6779 85.4038 7.73017 85.7654 8.29215C85.6155 8.49472 85.469 8.69403 85.3028 8.91947C83.8368 9.10244 82.4263 9.05997 81.1916 8.03077C80.7616 8.41958 80.5596 8.87373 80.4619 9.3769C81.2633 9.81798 82.0875 10.0696 82.9214 10.2297C84.0584 10.4486 85.1823 10.4486 86.2866 9.87679C87.4659 9.26908 87.5702 7.43938 86.3616 6.91662C85.9055 6.72058 85.469 6.518 84.9673 6.42325C84.1268 6.26315 83.2472 6.23048 82.4979 5.79266C82.4425 5.52474 82.423 5.29603 82.7097 5.09019C82.9768 5.03791 83.3221 5.01178 83.5306 4.85821C84.5894 5.16534 85.7002 5.03791 86.5082 5.78286C86.9121 5.61296 87.0066 5.24375 87.2249 4.92356L87.2281 4.92683ZM121.874 13.1278C121.405 12.7259 121.183 12.2129 121.183 11.5921C121.183 10.5531 121.206 9.51739 121.102 8.44245H119.398C119.681 9.86373 119.297 11.2621 119.704 12.654C120.056 13.8498 120.747 14.5164 121.978 14.5621C122.578 14.585 123.183 14.5784 123.783 14.5425C124.991 14.4706 126.194 13.3401 126.21 11.9352C126.226 10.6773 125.728 9.46185 126.037 8.2072C125.373 7.95889 124.861 8.34443 124.245 8.45878C124.369 9.08284 124.311 9.65789 124.405 10.2623C124.558 11.2229 124.868 12.3338 123.806 13.1212C123.183 13.1931 122.538 13.1768 121.871 13.131L121.874 13.1278ZM67.3235 8.63522C67.1541 8.66789 67.0661 8.65809 67.0205 8.69403C66.1019 9.45204 65.0333 9.61868 63.8899 9.53373C62.8604 9.45531 62.2252 8.37383 62.6194 7.43938C63.0364 6.44612 63.8638 6.19781 64.7988 6.139C65.4601 6.09652 66.1279 6.13246 66.812 6.13246C66.799 5.64237 67.3463 5.25682 67.0499 4.65891C66.6329 4.83861 66.281 4.54128 65.8803 4.50208C65.32 4.4498 64.8216 4.75366 64.2645 4.76346C63.2644 4.77653 62.4076 5.22088 61.717 5.90048C60.7918 6.81206 60.5247 7.89681 60.8667 8.92274C61.4205 10.5793 63.3002 11.2425 64.7467 11.1641C65.105 11.1445 65.4406 10.9713 65.7924 10.8864C66.7013 10.6675 67.5809 10.331 68.3073 9.63501C67.9523 9.27234 67.6362 8.95541 67.3268 8.63849L67.3235 8.63522ZM103.908 10.9191C104.211 10.9191 104.416 10.9223 104.621 10.9191C105.312 10.906 105.947 11.2197 106.651 11.2066C107.794 11.1804 108.406 10.5499 108.612 9.77878C108.872 8.79532 108.38 8.0373 107.468 7.508C106.911 7.18453 106.318 7.26948 105.761 7.15186C104.8 6.94929 103.81 6.72711 102.8 6.74345C102.5 8.80512 102.21 10.7982 101.92 12.7912C102.51 12.9579 103.008 13.2879 103.65 13.0559C103.5 12.3305 103.947 11.7 103.908 10.9256V10.9191ZM96.6624 5.63583C94.5547 5.149 92.4242 4.97257 90.2806 4.59356C90.3262 5.04118 89.8734 5.36138 90.0037 5.77306C90.6943 6.18147 91.4078 6.16187 92.1179 6.18474C92.2222 6.36444 92.3916 6.4984 92.359 6.70751C92.1375 8.17453 91.916 9.63828 91.6912 11.1412C92.2417 11.1903 92.7467 11.2523 93.206 11.4614C93.8348 9.81798 93.5611 8.04057 94.3364 6.42652C94.9978 6.91008 95.7014 6.57355 96.2715 6.88067C96.7927 6.56375 96.6168 6.09325 96.6624 5.63583ZM117.199 13.2062C115.831 13.0526 114.459 13.2683 113.094 12.7847C112.993 11.2719 113.163 9.71016 113.397 8.01443C112.694 8.30522 112.215 7.6779 111.625 7.91641C111.781 9.03383 111.277 10.0696 111.417 11.151C111.54 12.092 111.091 12.9905 111.182 14.0361C112.456 14.5392 113.86 14.0426 115.147 14.4412C115.736 14.6242 116.342 14.4804 116.912 14.5262C117.385 14.1504 117.228 13.6897 117.196 13.2094L117.199 13.2062Z" fill="black"/>
<path id="Vector_3" d="M18.5523 39.0048C19.4123 35.1592 20.2724 31.3169 21.1552 27.3634C19.8163 27.6379 18.7673 26.344 17.4056 26.8635C17.2557 27.0203 17.0896 27.1935 16.9397 27.3503C16.1807 27.0563 16.526 26.6446 16.6759 26.1872C17.0375 25.0828 17.4903 24.0373 18.207 23.1127C19.0866 21.9789 20.1746 21.6456 21.5689 22.0148C22.0511 22.1423 22.5821 22.0867 23.0935 22.1031C23.4877 22.1161 23.8819 22.1031 24.1881 22.1031C24.4227 22.1749 24.4553 22.3285 24.553 22.4233C24.957 22.8153 25.071 23.1617 24.8266 23.7726C24.3803 24.8933 24.1686 26.099 23.8754 27.2752C23.4584 28.9481 23.0935 30.6373 22.6179 32.2971C22.341 33.2642 22.2302 34.277 21.9533 35.2442C21.7058 36.1133 21.4451 36.9922 21.2627 37.8645C21.064 38.8055 20.7969 39.7302 20.5981 40.6712C20.3864 41.6775 20.1127 42.6707 19.8619 43.6673C19.7283 44.1966 19.6371 44.7422 19.5426 45.2715C19.4188 45.9675 19.0703 46.6242 19.2397 47.4018H14.9656C14.617 44.2456 13.6885 41.1547 12.9425 38.005C12.1248 41.1188 11.027 44.1508 10.509 47.3985H6.43687C4.80476 39.7498 2.9218 32.1729 1.17893 24.5797C0.73588 24.5568 0.416625 24.5437 0.0713076 24.5274C0.045246 24.3967 0.00289574 24.2856 0.00289574 24.1745C-0.00361968 23.5047 0.00289574 22.8317 0.00289574 22.1096H7.80185C7.82466 22.9003 7.85723 23.6942 7.77253 24.4849C7.30994 24.6385 6.85712 24.4588 6.43362 24.6319C7.55101 29.3826 8.66189 34.1006 9.78254 38.8741C10.1474 38.6618 10.1735 38.3056 10.2484 38.0442C10.5839 36.8386 10.7827 35.5872 11.1866 34.4045C11.369 33.8719 11.3658 33.3001 11.6394 32.7773C11.8447 32.3853 11.8414 31.807 11.6394 31.4181C11.3332 30.8235 11.3625 30.1766 11.2192 29.5721C10.9683 28.5102 10.711 27.4386 10.5383 26.3538C10.4536 25.8049 10.3005 25.2397 10.2321 24.73C9.80209 24.4326 9.38836 24.6221 8.94857 24.5176C8.51529 23.7759 8.71075 22.9656 8.77591 22.1096H16.412C16.4478 22.8905 16.4641 23.6844 16.3892 24.5176C16.0276 24.5405 15.7116 24.5633 15.3011 24.5895C16.3208 29.4382 17.3339 34.2476 18.3471 39.0538C18.4187 39.0408 18.4904 39.0277 18.5588 39.0146L18.5523 39.0048Z" fill="black"/>
<path id="Vector_4" d="M105.351 47.3953V45.118C105.673 44.8076 106.067 45.0592 106.465 44.8337C106.338 43.8274 106.507 42.7753 106.273 41.72C106.149 41.1613 106.155 40.5699 106.133 39.9948C106.1 39.1617 106.188 38.3089 106.048 37.4953C105.826 36.2048 105.865 34.9011 105.781 33.604C105.706 33.5909 105.628 33.5778 105.553 33.5648C104.442 38.1684 103.331 42.772 102.214 47.4051H100.018C98.8614 42.8211 97.7114 38.2566 96.5647 33.6955C96.3888 33.6824 96.3334 33.7804 96.3301 33.9046C96.2845 35.0971 96.1021 36.2766 96.0304 37.4725C95.949 38.8709 95.8447 40.2693 95.7437 41.6677C95.7046 42.197 95.5646 42.7426 95.558 43.2948C95.5548 43.8241 95.4505 44.3534 95.5613 44.8762C95.7926 45.0101 96.0304 44.9121 96.3301 44.984C96.7536 45.7388 96.607 46.5556 96.4637 47.4084H91.9257C91.8508 46.6079 91.8736 45.8302 91.9094 45.0657C92.2612 44.8402 92.6326 45.0396 93.0007 44.886C93.1082 43.6183 93.2972 42.3342 93.3591 41.0273C93.4242 39.6779 93.4894 38.3154 93.6621 36.9856C93.7989 35.927 93.6751 34.8488 93.9129 33.836C94.2387 32.4539 94.0237 31.0489 94.3201 29.6636C94.5547 28.5691 94.4895 27.4026 94.47 26.2656C94.4602 25.7232 94.7534 25.2364 94.6752 24.6908C94.3364 24.4947 93.9715 24.6581 93.6067 24.5372V22.1096H98.7473C99.9657 26.8668 101.018 31.5946 102.442 36.2832C103.504 31.5652 104.569 26.8472 105.641 22.0933H111.107V24.5078C110.811 24.7071 110.433 24.4849 110.11 24.6581C109.827 25.2201 110.244 25.7298 110.241 26.2754C110.241 27.1086 110.296 27.9417 110.335 28.7749C110.403 30.2027 110.53 31.6305 110.667 33.0453C110.778 34.1888 110.697 35.3585 110.921 36.4694C111.146 37.5705 110.98 38.6814 111.185 39.7465C111.404 40.8901 111.309 42.0336 111.465 43.1609C111.544 43.7163 111.641 44.2783 111.664 44.8206C111.908 45.0396 112.189 44.8795 112.508 45.0134C112.628 45.7616 112.55 46.5589 112.55 47.392H105.344L105.351 47.3953Z" fill="black"/>
<path id="Vector_5" d="M144.541 44.9317C144.909 44.9481 145.118 44.9579 145.388 44.9709C145.492 45.8499 145.495 46.7124 145.388 47.5652C144.069 47.8364 140.599 47.6926 140.231 47.4084C139.661 44.9873 138.739 42.7492 137.863 40.5111C137.43 40.5176 137.079 40.6145 136.807 40.8019V44.8239C137.107 45.0592 137.465 44.8599 137.82 45.0428C137.938 45.7812 137.84 46.5654 137.872 47.3201C137.667 47.6436 137.38 47.6665 137.068 47.6665C135.279 47.6599 133.494 47.6599 131.706 47.6665C131.412 47.6665 131.152 47.6403 130.937 47.343C130.963 46.6046 130.872 45.8204 130.986 45.069C131.315 44.8435 131.676 45.0494 131.992 44.8468V29.3598C131.666 29.3271 131.354 29.2977 130.989 29.2617V26.8831C131.165 26.6969 131.435 26.7655 131.68 26.7655C134.048 26.7753 136.419 26.6871 138.778 26.8472C140.54 26.9648 142.287 27.3863 143.57 28.8043C144.202 29.5003 144.554 30.3301 144.86 31.2123C145.29 32.4604 145.192 33.7412 145.095 34.9861C144.964 36.6622 144.121 38.0345 142.759 39.0571C142.616 39.1649 142.479 39.2826 142.274 39.4492C143.01 41.2887 143.72 43.1478 144.541 44.9317ZM136.778 38.0606C137.736 37.9952 138.478 37.8123 139.104 37.1752C140.071 36.1852 140.117 34.9011 140.358 33.6759C140.518 32.8721 140.267 32.0847 140.075 31.3136C139.765 30.0655 138.208 29.0918 137.003 29.4153C137.003 31.0653 137.003 32.7316 137.003 34.3979C137.003 34.6071 137.048 34.839 136.973 35.0187C136.563 36.0055 136.885 37.0151 136.775 38.0639L136.778 38.0606Z" fill="black"/>
<path id="Vector_6" d="M52.2956 39.2891C53.0807 41.207 53.8398 43.0661 54.576 44.8697C54.9637 45.0232 55.3057 44.8664 55.6576 45.0461C55.7423 45.8041 55.7032 46.5817 55.6771 47.4018H50.3573C49.7122 45.0755 48.9174 42.7198 47.9303 40.4784C47.6013 40.4555 47.37 40.4392 47.0996 40.6091V44.8762C47.2918 45.0494 47.5882 44.8599 47.8423 45.0592C47.9661 45.8008 47.8619 46.5785 47.9042 47.4018H40.9751C40.9588 46.6079 40.9197 45.8368 41.0011 45.118C41.3334 44.8337 41.7048 45.0559 42.0306 44.8468V29.2585C41.7569 28.9873 41.5061 29.2389 41.2259 29.0722C41.1445 28.36 41.1868 27.6085 41.2096 26.906C41.3367 26.7524 41.4572 26.7688 41.568 26.7688C44.1188 26.7916 46.6793 26.6152 49.2171 26.8439C51.1131 27.0138 52.9048 27.6019 54.0939 29.3107C54.6509 30.1112 54.9278 31.0032 55.1103 31.9279C55.2373 32.5748 55.3676 33.2903 55.3188 33.8948C55.1461 36.0643 54.5369 38.0867 52.2956 39.2891ZM47.0865 29.35V37.907C48.1192 38.224 49.5005 37.1065 49.836 36.1917C50.3931 34.6789 50.6016 33.1498 50.1944 31.5162C49.8849 30.2681 48.5818 29.02 47.0865 29.3467V29.35Z" fill="black"/>
<path id="Vector_7" d="M154.2 34.9991C155.451 33.1466 156.702 31.2973 157.96 29.4382C157.679 29.2193 157.409 29.3598 157.103 29.2585C156.761 28.4841 156.852 27.6673 157.018 26.8047H162.1C162.165 27.6346 162.152 28.4351 162.103 29.2323C161.758 29.3761 161.429 29.2552 161.045 29.3401C160.139 30.6373 159.191 31.9769 158.276 33.3328C158.106 33.5844 158.152 33.9372 158.259 34.2182C158.849 35.78 159.347 37.3745 159.963 38.9199C160.751 40.8901 161.325 42.9419 162.217 44.9154C162.507 44.935 162.827 44.9546 163.221 44.9775C163.305 45.8498 163.312 46.7091 163.204 47.6599H160.885C160.305 47.6599 159.725 47.6599 159.145 47.6599C157.969 47.6599 157.94 47.5521 157.637 46.3792C157.318 45.1343 156.849 43.9287 156.425 42.7132C156.116 41.8245 155.77 40.9489 155.448 40.0667C155.226 39.459 155.018 38.8447 154.78 38.1717C154.373 38.5049 154.034 38.8349 154.031 39.3512C154.018 41.1841 154.027 43.0138 154.027 44.8304C154.282 45.0396 154.555 44.886 154.881 45.0036C155.177 45.8596 155.259 46.7484 154.839 47.6273H148.248C148.121 46.7353 148.16 45.8727 148.222 44.9775C148.525 44.9546 148.773 44.935 149.056 44.9154V29.3957C148.796 29.2258 148.522 29.3663 148.229 29.2487V26.8178H154.936C155.197 27.6183 155.164 28.4351 154.92 29.2323C154.637 29.3728 154.356 29.2291 154.086 29.4316V34.9665C154.125 34.9763 154.164 34.9893 154.203 34.9991H154.2Z" fill="black"/>
<path id="Vector_8" d="M71.1806 47.4443C71.0763 46.5523 70.9591 45.7649 71.3141 44.9742C71.5878 44.9546 71.8354 44.9382 72.0797 44.9186V29.2356C71.8061 29.0003 71.5943 29.2356 71.2913 29.0885C70.9134 28.4024 71.0828 27.6281 71.1969 26.8276C71.3695 26.7982 71.4803 26.7622 71.591 26.7622C73.7476 26.7884 75.9108 26.625 78.0576 26.8243C80.8918 27.0857 83.1722 28.3665 84.6545 30.879C85.2604 31.9017 85.5829 33.0126 85.8435 34.179C86.2117 35.8159 86.1074 37.443 86.0097 39.0669C85.9478 40.0896 85.609 41.0992 85.2018 42.0532C84.6708 43.2948 83.9703 44.4482 82.967 45.3597C82.032 46.2092 80.9667 46.8366 79.7158 47.1894C78.9176 47.4149 78.1358 47.4312 77.3376 47.4345C75.3244 47.4443 73.3111 47.4345 71.1806 47.4345V47.4443ZM77.1161 44.8958C78.7287 45.0787 79.921 43.8796 80.4748 42.6446C81.1817 41.0665 81.0612 39.3414 81.3153 37.6816C81.4749 36.6393 81.084 35.6362 81.0612 34.6005C81.0319 33.1237 80.4944 31.8135 79.6408 30.6176C79.0968 29.8596 77.8524 29.2486 77.1129 29.4153V44.8958H77.1161Z" fill="black"/>
<path id="Vector_9" d="M24.1718 37.3124C24.1718 34.0156 24.7875 31.4443 26.449 29.1996C27.3058 28.043 28.3775 27.0759 29.749 26.6217C31.8144 25.9356 33.8309 25.9944 35.7172 27.3111C37.447 28.52 38.3657 30.2288 39.014 32.1598C39.3886 33.2805 39.3723 34.4665 39.6199 35.5807C39.9261 36.9595 39.6232 38.2599 39.4538 39.5341C39.0759 42.3309 38.0692 44.9252 35.6259 46.6438C34.0003 47.7873 32.2184 48.2872 30.2051 47.7906C27.4491 47.1077 25.9636 45.1866 25.0221 42.6773C24.8299 42.1643 24.6572 41.6448 24.5139 41.1188C24.1262 39.691 24.1686 38.2305 24.1718 37.3156V37.3124ZM31.4756 45.4545C32.7624 45.6897 33.2055 45.1016 33.6225 44.141C34.2316 42.7394 34.4532 41.2037 34.5183 39.6681C34.6161 37.381 34.6128 35.1004 34.261 32.8263C34.0948 31.7579 33.9026 30.6961 33.3521 29.7681C33.023 29.216 32.6223 28.6475 31.7818 28.6899C31.1303 28.7226 30.6873 29.0036 30.4006 29.5198C29.6806 30.8104 29.3842 32.2676 29.3027 33.6856C29.1268 36.7177 29.0226 39.7694 29.8044 42.759C30.0846 43.8274 30.4494 44.8468 31.4756 45.4512V45.4545Z" fill="black"/>
<path id="Vector_10" d="M171.121 35.1396H174.9C174.919 34.7051 174.935 34.2967 174.955 33.8588C175.58 33.7543 176.17 33.7804 176.818 33.8392V39.2858H175.014C174.805 38.7859 175.043 38.2534 174.831 37.7339H171.342C171.127 37.8613 171.069 38.0867 171.069 38.3645C171.075 40.5013 171.072 42.6348 171.072 44.8501C172.069 45.0232 173.056 45.0232 174.023 44.8599C174.346 44.8043 174.626 44.422 174.704 43.9842C174.808 43.3798 175.023 42.7917 174.89 42.1219H176.822V47.441C176.691 47.6926 176.427 47.6632 176.17 47.6632C172.782 47.6632 169.397 47.6599 166.009 47.6665C165.687 47.6665 165.42 47.6142 165.221 47.2417C165.332 46.536 164.993 45.7126 165.436 44.9742C165.745 44.9513 165.993 44.9317 166.273 44.9121V29.3892C165.954 29.2095 165.596 29.4218 165.27 29.1703V26.8472H176.812V30.9281C176.235 31.0457 175.62 30.9705 175.004 30.9673C174.812 30.3138 174.616 29.6898 174.01 29.3565H171.117V35.1396H171.121Z" fill="black"/>
<path id="Vector_11" d="M128.298 44.8304C128.549 45.0559 128.891 44.8631 129.213 45.0396C129.292 45.8596 129.262 46.7026 129.23 47.6011H122.297C122.265 46.6993 122.239 45.8596 122.32 44.9807C122.685 44.9611 123.001 44.9448 123.398 44.9219C123.366 44.0202 123.21 43.1903 122.727 42.4747H118.232C117.626 43.1609 117.939 44.1018 117.525 44.8108C117.811 45.0036 118.056 44.9121 118.362 44.9971C118.479 45.7616 118.404 46.5588 118.404 47.3985H114.13C113.912 46.5817 113.863 45.7714 114.215 44.9873C114.492 44.9089 114.736 45.0003 114.994 44.8272C116.508 38.8676 118.033 32.8688 119.571 26.8145H123.571C125.151 32.8492 126.721 38.8382 128.292 44.8304H128.298ZM120.154 33.3034C119.795 35.5154 119.085 37.6064 118.678 39.8249H122.06C121.682 37.5738 120.932 35.4565 120.528 33.2805C120.398 33.2054 120.291 33.2446 120.154 33.3034Z" fill="black"/>
<path id="Vector_12" d="M192.468 32.5911H190.651C190.224 31.2907 190.09 29.7681 188.321 29.3336V44.8827C188.53 45.0265 188.807 44.8827 189.038 44.9905C189.211 45.5656 189.214 46.9836 189.038 47.6207H182.506C182.07 46.7679 182.177 45.876 182.454 44.9676C182.751 44.9513 182.982 44.9415 183.262 44.9252V29.3565C182.07 29.4381 181.184 30.6568 181.034 32.2807C180.78 32.5072 180.191 32.614 179.268 32.6009C179.105 32.5029 178.952 32.3787 178.871 32.15C179.447 30.8431 178.825 29.3891 179.343 28.043C179.473 27.7032 179.363 27.2719 179.363 26.8439H192.195C192.094 28.7422 192.618 30.6111 192.472 32.5846L192.468 32.5911Z" fill="black"/>
<path id="Vector_13" d="M137.091 17.47C137.687 16.944 138.478 16.9767 139.179 16.81C140.042 16.6042 140.896 16.3493 141.765 16.1696C142.147 16.0912 142.365 15.7155 142.645 15.2679C142.147 13.5689 141.681 11.7555 141.586 9.90622C141.492 8.05039 141.391 6.17169 141.87 4.16556C141.961 3.98259 142.261 3.94992 142.603 3.94992C144.554 3.94992 146.457 3.56438 148.323 3.05468C149.503 2.73121 150.578 2.10716 151.669 1.47003C151.802 1.59419 151.946 1.72488 152.07 1.83924C151.099 5.11308 150.301 6.46574 147.893 9.48473C148.887 10.3506 150.167 10.5237 151.346 10.8439C152.562 11.1739 153.839 11.272 155.083 11.4713C155.324 11.9058 155.089 12.2031 154.813 12.4449C152.757 14.2452 150.454 15.6175 147.867 16.5225C146.245 17.091 144.626 17.6367 142.928 17.9503C141.925 18.1333 140.928 18.3457 139.918 18.5058C139.316 18.6005 138.713 18.7116 138.104 18.7312C137.087 18.7639 136.892 18.5025 137.091 17.4668V17.47Z" fill="black"/>
<path id="Vector_14" d="M54.5043 5.89069C54.6347 6.08672 54.8073 6.19128 54.8432 6.42652C55.1494 8.41958 55.2308 10.4355 55.0679 12.4286C54.9604 13.7322 54.7324 15.0424 54.5923 16.3493C54.4555 17.6269 55.2862 18.1039 56.5274 17.7118C57.4917 17.4079 58.4657 17.0681 59.4626 17.0224C60.1076 17.6399 59.961 18.3914 59.1564 18.6985C58.3778 18.9926 57.5992 19.3226 56.788 19.499C54.9735 19.8976 53.1329 20.1492 51.2662 20.1623C49.305 20.1753 47.3765 19.9074 45.4675 19.5088C44.5651 19.3193 43.692 18.9795 42.8189 18.6724C42.5518 18.5776 42.2651 18.411 42.3857 17.9568C44.7996 16.8623 47.2071 15.6599 49.0347 13.5133C48.3342 13.0036 47.5166 12.7488 46.8064 12.3011C45.044 11.187 43.389 9.95848 42.1902 8.20394C41.9785 7.89681 41.9166 7.64523 42.1902 7.28909C44.2393 7.68444 46.3275 7.6583 48.4189 7.30543C50.4583 6.96236 52.4683 6.50821 54.5043 5.89395V5.89069Z" fill="black"/>
<path id="Vector_15" d="M64.8802 26.8308V29.0167C64.5316 29.167 64.0788 28.9775 63.8442 29.5754V44.8631C64.8313 44.9546 65.763 45.1114 66.6687 44.4547C67.5841 43.7914 67.317 42.71 67.7633 41.8474C68.2552 41.7788 68.7797 41.8016 69.3563 41.8376V47.3822H57.9804C58.0357 46.549 57.8142 45.7355 58.1367 44.9709C58.4983 44.9448 58.7492 44.9252 58.9903 44.9056V29.1964C58.6286 29.0297 58.2117 29.2846 58.0097 28.9089V26.821H64.8834L64.8802 26.8308Z" fill="black"/>
<path id="Vector_16" d="M74.1842 8.67442C73.2231 8.69402 72.0569 7.93928 72.1448 6.78592C72.223 5.73385 73.171 4.78959 74.2558 4.83207C75.4188 4.87781 76.2952 5.74365 76.2886 6.83819C76.2821 7.86413 75.3504 8.67769 74.1842 8.67115V8.67442Z" fill="black"/>
<path id="Vector_17" d="M104.178 9.6775C104.233 9.1482 103.979 8.58622 104.527 8.1582C105.005 8.40979 105.533 8.38038 106.054 8.40652C106.703 8.43592 107.269 8.88681 107.211 9.3181C107.149 9.76899 106.54 10.0924 105.905 10.0336C105.608 10.0075 105.393 9.75265 105.064 9.79839C104.797 9.83433 104.51 9.83106 104.178 9.6775Z" fill="black"/>
</g>
</svg>
