<svg width="143" height="79" viewBox="0 0 143 79" fill="none" xmlns="http://www.w3.org/2000/svg">
<g id="Group">
<path id="Vector" d="M28.8908 52.0322C26.106 52.0322 23.3829 52.0281 20.664 52.0404C20.3138 52.0404 20.149 51.8313 19.9966 51.5976C19.6135 51.0237 19.2468 50.4374 18.8843 49.8512C18.0892 48.5721 17.2447 47.3217 16.4496 46.0426C15.7246 44.8701 14.8883 43.7673 14.2827 42.5251C14.2044 42.3611 14.0479 42.2709 13.9531 42.111C13.64 41.574 13.6318 41.6109 13.0303 41.8405C11.9798 42.2422 10.9376 42.6727 9.82116 42.9105C9.42155 42.9966 9.00135 43.1114 8.62647 43.2671C8.35457 43.3778 8.11976 43.3286 7.87258 43.3614C7.48122 43.4106 7.29995 43.5828 7.29995 43.96C7.29995 46.4567 7.29995 48.9492 7.29995 51.4459C7.29995 51.8272 7.12693 52.0035 6.72321 52.0322C6.51311 52.0486 6.29889 52.0322 6.08879 52.0322C4.28852 52.0322 2.49237 52.0322 0.692095 52.0322C0.00823927 52.0322 0 52.0199 0 51.3229C0 43.5992 0 35.8796 0 28.1559V22.7198C0 22.6132 0 22.5107 0 22.4041C0.00823922 21.8383 0.0617942 21.7728 0.609703 21.7728C2.09276 21.7728 3.5717 21.7728 5.05476 21.7728H7.29995V36.2158C7.29995 36.3716 7.31231 36.5314 7.29995 36.6872C7.27524 36.9496 7.46474 36.9373 7.6048 36.8963C8.19391 36.7282 8.77477 36.5314 9.36388 36.3552C10.7975 35.9288 12.0787 35.1827 13.2693 34.3217C13.9778 33.8093 14.6988 33.2599 15.2137 32.481C15.5392 31.9849 15.9841 31.5504 16.3137 31.0379C16.9069 30.1073 17.4095 29.1398 17.805 28.1026C18.0933 27.3483 18.2416 26.557 18.5465 25.8068C18.6742 25.487 18.4641 25.0894 18.736 24.7819C18.6536 24.1874 18.9749 23.6381 18.9049 23.0354C18.7731 21.949 19.1686 20.8831 19.0532 19.7926C19.391 18.7103 19.3251 17.5337 19.8442 16.4924C19.9307 15.5454 20.4209 14.7337 20.7299 13.8646C21.3108 12.2247 22.2624 10.7939 23.2264 9.37955C24.0421 8.18655 25.0637 7.14525 26.1225 6.14904C26.864 5.4521 27.6756 4.84535 28.4912 4.2345C29.793 3.26289 31.2102 2.52906 32.6726 1.87311C33.6984 1.40986 34.7654 1.05319 35.8695 0.782611C36.3638 0.663721 36.8953 0.618625 37.3566 0.360348C37.3978 0.33575 37.4555 0.327551 37.505 0.33575C38.1311 0.425942 38.7161 0.0774733 39.3423 0.175865C40.5535 -0.139807 41.7852 0.11027 43.0046 0.00367982C43.3836 -0.0291173 43.6926 0.167665 44.051 0.184064C44.3723 0.196363 44.7349 0.0323773 45.0191 0.331651C45.0315 0.34395 45.0686 0.331651 45.0974 0.331651C46.2797 0.266057 47.3426 0.811308 48.4796 0.991692C49.0852 1.09008 49.6866 1.38936 50.2675 1.63534C51.7588 2.27488 53.1966 3.02511 54.5396 3.95573C55.3552 4.52148 56.1297 5.13233 56.8754 5.78417C57.3038 6.15723 57.7899 6.48111 58.1319 6.92387C58.8569 7.86268 59.6808 8.71131 60.3606 9.69932C61.0939 10.7611 61.7983 11.8352 62.3256 12.9995C62.8035 14.0572 63.2443 15.1395 63.5285 16.2915C63.7469 17.1771 63.9735 18.0544 64.1588 18.9481C64.233 19.3007 64.2536 19.645 64.2866 19.9935C64.3607 20.7314 64.5173 21.4653 64.4472 22.2155C64.439 22.3139 64.4472 22.4164 64.4472 22.5394H57.9959C57.8764 22.4164 57.9629 22.2524 57.9382 22.1048C57.8476 21.5514 57.9959 21.002 57.8188 20.424C57.6622 19.9197 57.5922 19.3581 57.4974 18.8251C57.3862 18.2061 57.1596 17.6444 57.0031 17.0541C56.9454 16.8327 56.8548 16.6359 56.7641 16.4391C56.4799 15.8201 56.2245 15.1764 55.8578 14.6066C55.3594 13.8318 54.8815 13.0405 54.2594 12.3395C53.798 11.8147 53.3613 11.2654 52.834 10.8103C51.903 10.0027 50.9514 9.21556 49.8555 8.63341C48.8421 8.09636 47.8246 7.56341 46.7123 7.22724C46.1438 7.05505 45.5588 6.95256 44.9903 6.79678C43.3878 6.35402 41.7482 6.5098 40.1209 6.48521C39.4041 6.72708 38.642 6.69429 37.9087 6.88697C37.2166 7.07145 36.541 7.28463 35.8695 7.51421C34.6501 7.93648 33.5584 8.58832 32.4831 9.28936C31.1607 10.1503 30.1061 11.3023 29.0474 12.4338C28.4789 13.0405 28.0422 13.7785 27.6096 14.5123C26.9999 15.5495 26.4973 16.6277 26.1637 17.7797C25.9865 18.3947 25.8053 19.0055 25.6899 19.6409C25.5746 20.2805 25.4798 20.9241 25.4098 21.5637C25.3397 22.2401 25.4757 22.9411 25.3727 23.6094C25.2367 24.4949 25.2821 25.405 24.9401 26.2619C24.8124 26.5775 24.866 26.9465 24.7836 27.295C24.5447 28.324 24.2151 29.3161 23.869 30.3123C23.4736 31.4438 22.9627 32.5179 22.3695 33.5551C21.9122 34.3504 21.3767 35.1007 20.8411 35.8468C20.458 36.3757 19.9925 36.8184 19.5434 37.2817C19.288 37.5441 19.3004 37.6096 19.5146 37.9294C20.7258 39.7702 21.9617 41.5945 23.1852 43.427C24.2728 45.0587 25.3768 46.678 26.4726 48.3056C27.07 49.187 27.655 50.0766 28.2482 50.9581C28.4706 51.286 28.8249 51.5279 28.895 52.0404L28.8908 52.0322Z" fill="#1E1C1C"/>
<path id="Vector_2" d="M58.0703 58.6531H64.3568C64.5051 58.9155 64.6081 59.1778 64.5999 59.5017C64.5669 61.0965 65.0571 62.5682 65.6256 64.04C66.087 65.233 66.7297 66.3112 67.5248 67.2664C68.2292 68.115 69.049 68.894 69.9389 69.595C70.8864 70.3411 71.9204 70.9069 72.9956 71.4112C73.7495 71.7678 74.5322 72.0671 75.3644 72.1942C75.661 72.2393 75.9247 72.4771 76.2501 72.3623C76.5756 72.2516 76.8269 72.5345 77.1358 72.5222C77.453 72.5099 77.7703 72.5222 78.0875 72.5222H79.0391C79.3563 72.5222 79.6859 72.5795 79.9907 72.5099C80.8394 72.3172 81.7045 72.2557 82.5449 71.981C83.5048 71.6653 84.4193 71.28 85.3091 70.7962C85.923 70.4641 86.4874 70.0624 87.0641 69.677C87.715 69.2383 88.2464 68.6644 88.7902 68.115C89.9767 66.9097 90.8459 65.4831 91.5174 63.958C91.847 63.2078 92.0488 62.3878 92.226 61.5679C92.4361 60.6168 92.5391 59.6739 92.5349 58.7023C92.5185 55.9965 92.5308 53.2908 92.5308 50.585V49.7692C91.8593 50.0069 91.3938 50.4292 90.8253 50.6711C89.9519 51.0401 89.0704 51.3106 88.1187 51.4295C87.5296 51.5033 86.9488 51.5566 86.3555 51.5607C86.0383 51.5607 85.6964 51.6386 85.408 51.5443C84.8313 51.3598 84.2257 51.3762 83.6572 51.1835C83.0063 50.9622 82.3719 50.7121 81.7622 50.4005C80.9753 49.9987 80.2379 49.5191 79.6241 48.8877C79.4016 48.6582 79.0556 48.6049 78.899 48.3384C78.6601 47.9325 78.277 47.6538 78.0051 47.2848C77.5231 46.6329 77.0122 45.9811 76.7115 45.2186C76.4273 44.4929 76.1966 43.7468 75.9947 42.9884C75.6981 41.8487 75.7022 40.7131 75.7146 39.5652C75.7146 39.2167 75.6363 38.8723 75.8423 38.5157C75.9906 38.2574 75.7516 37.8515 76.0235 37.5687C75.9823 36.925 76.279 36.3675 76.5014 35.7976C76.8598 34.8793 77.3336 34.002 77.9515 33.2517C78.3717 32.7393 78.7384 32.1612 79.3357 31.7554C79.896 31.3782 80.3574 30.8493 80.9547 30.4927C81.9311 29.9105 82.9445 29.4555 84.0485 29.148C84.5635 29.0045 85.0867 29.066 85.6016 28.8979C86.1042 28.738 86.7139 28.7954 87.2536 28.8774C88.061 29.0045 88.8973 29.0619 89.6471 29.4063C90.3639 29.7342 91.0766 30.0827 91.6945 30.6034C91.9005 30.7756 92.1189 31.0379 92.4979 31.0953V29.3571H98.9863C99.0687 29.5621 99.0233 29.7998 99.0233 30.0253C99.0233 39.7948 99.0233 49.5683 99.0357 59.3377C99.0357 59.7026 98.9121 60.0306 98.8792 60.3749C98.8421 60.7644 98.8709 61.1621 98.8709 61.5556C98.5125 61.7975 98.9121 62.2854 98.5537 62.5272C98.4919 63.6013 98.1005 64.5853 97.7669 65.5938C97.462 66.5244 97.0171 67.3894 96.5722 68.2544C96.0613 69.2506 95.4393 70.1731 94.7348 71.0463C94.0757 71.8703 93.4124 72.6861 92.6503 73.42C92.193 73.8627 91.6657 74.2153 91.1631 74.6048C90.7635 74.9122 90.3721 75.232 89.9561 75.5272C88.9838 76.2118 87.921 76.7325 86.8581 77.2367C85.7994 77.741 84.6706 78.1018 83.5212 78.3641C83.064 78.4666 82.6273 78.6921 82.1453 78.6716C81.6551 78.6511 81.2019 78.934 80.7034 78.8315C80.1102 79.1062 79.4799 78.9627 78.8661 78.9832C78.2605 79.0037 77.6508 78.9709 77.0411 78.9955C76.7239 79.0078 76.4767 78.7905 76.1554 78.8192C75.8588 78.8438 75.5292 78.9299 75.2697 78.6716C74.3675 78.7495 73.56 78.3108 72.6908 78.1797C72.1429 78.0977 71.6114 77.864 71.0965 77.6385C69.9265 77.126 68.773 76.5972 67.6937 75.888C66.9563 75.4042 66.2559 74.8958 65.5515 74.3711C64.5999 73.6619 63.7759 72.8173 63.0097 71.9441C61.7038 70.4518 60.6079 68.7956 59.8252 66.9589C59.3762 65.9012 58.956 64.8394 58.7088 63.712C58.6141 63.2816 58.3875 62.8839 58.3957 62.4248C58.404 61.9697 58.1444 61.5392 58.2392 61.0719C57.9096 60.297 58.165 59.4935 58.0662 58.6531H58.0703ZM82.2071 40.2621C82.2277 40.7418 82.2318 41.2091 82.343 41.697C82.5778 42.7506 83.0887 43.6361 83.822 44.3904C84.1639 44.7389 84.5841 45.03 85.0372 45.2596C85.5028 45.4932 86.0218 45.6531 86.508 45.6982C87.3896 45.7802 88.2917 45.813 89.1569 45.4318C89.3711 45.3375 89.6183 45.2678 89.8325 45.1571C90.1167 45.0054 90.3557 44.7717 90.644 44.6323C90.9942 44.456 91.0807 44.0871 91.3238 43.837C92.0777 43.054 92.3125 42.0332 92.502 41.0246C92.6462 40.2703 92.5308 39.4832 92.3413 38.7411C92.2548 38.4009 92.1601 38.0196 91.9747 37.7203C91.641 37.1874 91.2949 36.6667 90.8253 36.2158C89.886 35.3138 88.7655 34.9326 87.5049 34.8588C87.0723 34.8342 86.6439 34.9408 86.2196 34.9777C85.7417 35.0187 85.4039 35.3753 84.9425 35.3671C84.0774 35.9657 83.3235 36.6503 82.8209 37.6137C82.3801 38.4624 82.1618 39.3274 82.203 40.2703L82.2071 40.2621Z" fill="#1E1C1C"/>
<path id="Vector_3" d="M124.47 42.5825H108.779C108.573 42.8572 108.811 43.0294 108.873 43.2343C109.046 43.8124 109.569 44.743 109.899 45.0956C110.472 45.7146 111.366 46.1123 112.461 46.3788C113.376 46.6001 114.278 46.51 115.176 46.4895C115.778 46.4772 116.375 46.2394 116.964 46.0508C117.66 45.8294 118.25 45.4194 118.83 45.0177C119.086 44.8414 119.263 44.8414 119.448 44.9685C120.202 45.485 121.047 45.8458 121.825 46.3255C122.402 46.678 123.024 46.9896 123.634 47.3012C123.935 47.457 124.083 47.5595 123.745 47.9161C122.925 48.7812 122.035 49.5888 121.047 50.2201C119.901 50.954 118.666 51.5361 117.31 51.9092C115.551 52.397 113.792 52.3888 112.025 52.3191C111.073 52.2822 110.126 51.9912 109.215 51.6632C108.334 51.3434 107.473 50.9581 106.723 50.421C105.454 49.5109 104.383 48.3876 103.625 46.9937C103.369 46.5223 103.106 46.059 102.892 45.5588C102.669 45.0382 102.525 44.4929 102.385 43.96C102.051 42.7014 101.878 40.2662 102.064 39.0568C102.216 38.0688 102.447 37.0931 102.813 36.142C103.217 35.0966 103.687 34.084 104.404 33.2599C105.606 31.8783 106.929 30.6075 108.692 29.8818C109.401 29.5908 110.13 29.3981 110.851 29.1603C111.234 29.0332 111.625 29.1111 111.971 28.9963C112.379 28.8651 112.775 28.8651 113.182 28.861C113.578 28.8569 113.982 28.8159 114.373 28.8692C115.407 29.0086 116.441 29.1685 117.417 29.5498C118.39 29.931 119.337 30.3615 120.103 31.1035C120.28 31.2757 120.524 31.37 120.713 31.5463C121.904 32.6614 122.773 34.002 123.469 35.4573C123.873 36.306 124.194 37.1792 124.264 38.1221C124.59 38.5854 124.371 39.1429 124.548 39.6595C124.709 40.1309 124.557 40.7008 124.59 41.2214C124.618 41.6642 124.301 42.0495 124.47 42.5743V42.5825ZM117.578 38.4542C117.578 38.2041 117.669 37.9089 117.557 37.7613C117.343 37.4703 117.331 37.1177 117.137 36.8225C116.808 36.3142 116.354 35.9329 115.951 35.5024C115.634 35.1663 115.242 34.9162 114.838 34.7399C114.394 34.5472 113.874 34.3791 113.405 34.416C113.022 34.4488 112.61 34.4857 112.223 34.5964C112.202 34.6046 112.185 34.6456 112.165 34.6497C110.884 34.9285 110.035 35.7976 109.376 36.8266C109.079 37.2858 108.746 37.8351 108.89 38.4583H117.57L117.578 38.4542Z" fill="#1E1C1C"/>
<path id="Vector_4" d="M49.6744 40.5573C49.6744 40.3483 49.6744 40.1351 49.6744 39.926C49.6538 38.6592 49.9669 37.458 50.383 36.2773C50.762 35.195 51.3717 34.2562 52.0514 33.3379C52.5829 32.6204 53.1926 31.9686 53.8764 31.4274C54.9146 30.6034 56.0433 29.8778 57.3451 29.4924C57.6047 29.4145 57.8725 29.353 58.1073 29.2259C58.3709 29.0825 58.6552 29.2833 58.9271 29.0825C59.1537 28.9144 59.5079 29.1071 59.7634 29.0087C60.4225 28.7545 61.1022 28.9349 61.7655 28.857C62.2928 28.7955 62.7624 29.0866 63.2897 29.0292C63.7965 28.9759 64.262 29.2218 64.7399 29.3448C65.1889 29.4596 65.6256 29.6318 66.0499 29.8163C66.4989 30.009 66.9727 30.1976 67.3599 30.464C67.9408 30.8617 68.567 31.2184 69.0448 31.7718C69.6216 32.436 70.3343 32.9771 70.8369 33.715C71.4342 34.5883 72.2787 36.1256 72.4971 37.1259C72.6577 37.8803 72.9544 38.6223 72.8637 39.4299C72.8308 39.7128 72.7484 40.0285 72.9914 40.3237C73.0944 40.4466 73.0821 40.791 72.9791 40.9222C72.7649 41.1928 72.8308 41.4798 72.8596 41.738C72.9461 42.5662 72.6577 43.3328 72.4765 44.1117C72.2952 44.8906 71.9739 45.6327 71.5784 46.3419C71.2118 46.9979 70.8492 47.6538 70.3013 48.1786C69.9841 48.4819 69.8152 48.896 69.465 49.1789C68.4887 49.9578 67.5618 50.8064 66.3795 51.2984C65.5185 51.655 64.6533 52.0322 63.7347 52.1675C63.2362 52.2413 62.746 52.4176 62.2186 52.3684C61.6955 52.3151 61.1558 52.311 60.6326 52.3684C59.9735 52.4381 59.339 52.2741 58.7211 52.1634C58.1361 52.0568 57.5429 51.8477 56.962 51.651C55.9445 51.3025 55.0835 50.6793 54.1936 50.1177C53.7158 49.8143 53.3656 49.3142 52.9454 48.9124C51.9361 47.9449 51.1781 46.8134 50.6219 45.5343C50.28 44.7472 49.9216 43.4804 49.8227 42.7096C49.7774 42.3653 49.6415 42.0332 49.6662 41.6683C49.695 41.3035 49.6703 40.9345 49.6703 40.5655L49.6744 40.5573ZM56.1917 40.5655C56.1299 41.2584 56.2205 41.9225 56.4265 42.5908C56.7025 43.4804 57.2216 44.1896 57.8889 44.8251C58.6222 45.5261 59.2937 45.768 60.3071 46.0713C61.1558 46.3255 61.9179 46.059 62.7212 46.0426C62.8613 45.8008 63.1497 45.9484 63.3351 45.8049C63.9571 45.3252 64.6781 44.989 65.1683 44.3208C65.6297 43.6936 65.9428 43.0294 66.2105 42.3038C66.3712 41.8692 66.3135 41.4306 66.4618 40.996C66.6678 40.4015 66.4001 39.7415 66.26 39.1348C66.1034 38.4501 65.8315 37.7901 65.3908 37.212C64.9953 36.6873 64.5174 36.2322 64.0189 35.8223C63.7553 35.605 63.3763 35.482 63.0426 35.3385C62.5606 35.1294 62.0044 35.2196 61.5101 35.0228C61.3741 34.9695 61.1929 35.031 61.0404 35.0105C60.8221 34.9777 60.6944 35.1745 60.4719 35.1868C59.5327 35.236 58.6305 35.6829 57.9425 36.3347C57.5141 36.7406 57.168 37.1997 56.8796 37.7081C56.7684 37.9049 56.4182 38.7822 56.3358 38.979C56.1216 39.4996 56.204 40.0367 56.1917 40.5696V40.5655Z" fill="#1E1C1C"/>
<path id="Vector_5" d="M127.626 29.353H134.262V31.6857C134.262 31.9481 134.254 32.2104 134.262 32.4728C134.262 32.5876 134.188 32.7557 134.37 32.8008C134.543 32.8418 134.522 32.645 134.588 32.5835C135.329 31.9153 135.816 31.0174 136.681 30.4435C137.468 29.9187 138.246 29.4227 139.148 29.1275C140.018 28.8446 140.986 28.7913 141.764 28.984C141.987 29.0414 142.23 29.0004 142.461 29.0291C142.827 29.0701 142.984 29.2423 142.984 29.5908C142.984 31.4807 142.984 33.3706 142.984 35.2606C142.984 35.7074 142.971 35.7238 142.502 35.5475C142.341 35.486 142.197 35.5106 142.049 35.4942C141.567 35.4409 141.076 35.5926 140.603 35.3426C140.36 35.2155 140.17 35.5475 139.878 35.5024C139.288 35.4081 138.741 35.6377 138.184 35.8017C137.019 36.1502 136.162 36.9209 135.367 37.7818C135.371 38.1221 135.004 38.1918 134.889 38.4501C134.629 39.0158 134.39 39.5529 134.398 40.2252C134.436 44.1363 134.415 48.0473 134.415 51.9584C133.772 52.0814 130.098 52.1142 127.618 52.0199V29.3653L127.626 29.353Z" fill="#1E1C1C"/>
<path id="Vector_6" d="M32.0755 52.0322V29.3571H38.7122V32.9278C38.9964 32.5548 39.326 32.4277 39.3837 32.0669C39.9934 31.5422 40.4548 30.8616 41.1592 30.4312C41.5053 30.218 41.7648 29.8572 42.1191 29.685C42.7576 29.3776 43.4209 29.1234 44.1377 28.9963C44.5414 28.9266 44.9451 28.9061 45.3447 28.8528C45.9009 28.779 46.3952 29.0988 46.9473 29.0291C47.145 29.0045 47.2686 29.1644 47.2892 29.3694C47.2974 29.4473 47.2892 29.5252 47.2892 29.6071C47.2892 31.4971 47.2892 33.3911 47.2892 35.281C47.2892 35.6787 47.2068 35.7607 46.8443 35.5721C46.6301 35.4573 46.4406 35.5229 46.2428 35.4901C45.8721 35.4204 45.4601 35.6336 45.1182 35.3343C45.1017 35.322 45.0646 35.3343 45.0399 35.3343C44.7804 35.3056 44.595 35.5598 44.3107 35.5024C44.0841 35.4573 43.8328 35.4655 43.598 35.5024C43.355 35.5352 43.1202 35.6213 42.8853 35.691C42.4404 35.8263 41.9955 35.9534 41.5835 36.1871C41.1881 36.4125 40.8461 36.7159 40.5001 36.9906C40.0964 37.3104 39.8451 37.8146 39.5031 38.2164C39.3713 38.3722 39.3672 38.5853 39.1942 38.7247C38.8852 38.9707 38.8687 39.3274 38.8687 39.6923C38.8728 43.5008 38.8687 47.3094 38.8687 51.1179C38.8687 51.3024 38.8852 51.4869 38.8646 51.6673C38.8358 51.8887 38.7204 52.0404 38.465 52.0363C38.0695 52.0363 37.6699 52.0363 37.2744 52.0363H32.0631L32.0755 52.0322Z" fill="#1E1C1C"/>
<path id="Vector_7" d="M104.268 69.2917C104.354 70.0009 104.123 70.6035 103.588 71.0545C103.271 71.321 102.883 71.4727 102.471 71.6039C102.051 71.7391 101.73 71.6776 101.318 71.6162C100.787 71.5342 100.441 71.2964 100.066 70.9684C99.7031 70.6486 99.5465 70.2387 99.4065 69.8164C99.1881 69.1728 99.3776 68.5414 99.7031 68.0249C100.164 67.2869 100.939 66.9098 101.812 66.8565C102.818 66.7991 103.843 67.5124 104.21 68.4471C104.321 68.7259 104.231 69.0129 104.264 69.2876L104.268 69.2917ZM99.9832 69.2917C99.8473 70.4109 100.89 71.3128 101.841 71.2718C102.888 71.2267 103.794 70.3453 103.794 69.2958C103.794 68.2626 102.9 67.373 101.924 67.3115C100.873 67.2459 99.8473 68.2094 99.9832 69.2917Z" fill="#1E1C1C"/>
<path id="Vector_8" d="M100.935 68.111H102.092C102.146 68.111 102.2 68.111 102.249 68.111C102.809 68.1602 103.061 68.6644 102.694 69.0949C102.48 69.349 102.484 69.4802 102.727 69.6524C102.978 69.8328 102.694 70.1731 102.949 70.3494C103.003 70.3863 103.003 70.4478 102.929 70.456C102.772 70.4765 102.612 70.4929 102.459 70.4683C102.331 70.4478 102.385 70.3043 102.356 70.2141C102.162 69.5827 102.109 69.5458 101.409 69.5458C101.409 69.7713 101.392 70.0009 101.413 70.2264C101.433 70.4519 101.326 70.4806 101.137 70.4806C100.951 70.4806 100.927 70.3945 100.931 70.2387C100.939 69.554 100.931 68.8735 100.931 68.111H100.935ZM101.437 68.4266V69.2138C101.668 69.2138 101.882 69.2466 102.076 69.2015C102.245 69.1646 102.368 69.0293 102.368 68.8161C102.368 68.5988 102.241 68.4717 102.072 68.4348C101.878 68.3938 101.668 68.4266 101.442 68.4266H101.437Z" fill="#1E1C1C"/>
</g>
</svg>
