<svg width="103" height="97" viewBox="0 0 103 97" fill="none" xmlns="http://www.w3.org/2000/svg">
<g id="Group">
<path id="Vector" d="M88.5854 13.8049C88.7423 13.884 88.8687 13.8533 88.9907 13.8533C91.8144 13.8533 94.6359 13.862 97.4596 13.8467C97.8126 13.8467 97.891 13.939 97.891 14.2864C97.8823 29.1181 97.8823 43.9521 97.8823 58.7838C97.8823 66.4833 97.8823 74.1828 97.8823 81.8845C97.8823 82.1865 97.7363 82.3374 97.4444 82.3374C82.0207 82.3374 66.5993 82.3374 51.1756 82.3374C51.0645 82.3374 50.9512 82.3374 50.8401 82.3374C50.8205 82.3088 50.8009 82.2803 50.7813 82.2539C51.119 81.9329 51.4741 81.6295 51.7901 81.2887C55.348 77.4367 57.529 72.8812 58.54 67.7365C58.8668 66.0744 58.9801 64.3925 58.9779 62.6973C58.9692 48.8022 58.9735 34.907 58.9735 21.0141C58.9735 20.8866 58.967 20.7591 58.9735 20.6315C58.9801 20.4842 58.9191 20.4183 58.7709 20.4293C58.7034 20.4337 58.6336 20.4293 58.5639 20.4293C54.8338 20.4293 51.1059 20.4337 47.3758 20.4227C47.0577 20.4227 46.9466 20.4842 46.9488 20.8338C46.9684 23.7865 46.9488 26.7392 46.9749 29.692C47.0229 35.0763 47.0163 40.4585 47.0251 45.8429C47.0294 47.6963 47.0316 49.5475 47.0403 51.4009C47.0534 54.5141 47.1079 57.6296 47.0752 60.7428C47.0425 64.0495 46.4172 67.2264 44.7526 70.1286C43.6763 72.0062 42.2448 73.5474 40.4277 74.7061C40.1292 74.8952 40.1401 75.0073 40.3405 75.2667C42.0727 77.4983 43.7917 79.7431 45.513 81.9857C45.5871 82.0824 45.6916 82.1637 45.7178 82.3044C45.598 82.3748 45.4716 82.3396 45.3517 82.3396C30.3878 82.3396 15.4239 82.3396 0.46001 82.3396C-0.0520048 82.3396 0.01118 82.4012 0.01118 81.8691C0.01118 59.3599 0.01118 36.8506 0.01118 14.3413C0.01118 13.7785 -0.0541836 13.8598 0.481798 13.8598C27.1393 13.8598 53.7946 13.8598 80.452 13.8642C80.7679 13.8642 81.012 13.7785 81.2647 13.5872C86.6398 9.5396 92.3133 5.95808 98.1786 2.68437C99.7822 1.78954 101.377 0.877119 103 -0.00012207C98.1329 4.5224 93.2262 8.99875 88.5854 13.8093V13.8049ZM32.4664 45.7219C32.5579 45.6714 32.5862 45.6494 32.6167 45.6362C35.654 44.3786 37.6584 42.1228 38.7718 39.0514C39.9767 35.7271 39.9854 32.3369 39.0747 28.951C38.1356 25.4663 35.9677 23.028 32.6603 21.6429C30.5447 20.7569 28.318 20.4161 26.0412 20.4139C19.6617 20.4029 13.2822 20.4095 6.90269 20.4095C6.59911 20.4095 6.44659 20.5663 6.44514 20.88C6.44514 38.6622 6.44514 56.4467 6.44514 74.229C6.44514 74.5456 6.59693 74.7039 6.90051 74.7039C12.9575 74.7039 19.0167 74.7083 25.0738 74.7017C26.8212 74.6995 28.5533 74.5236 30.2506 74.0795C33.7628 73.1627 36.6475 71.3114 38.6258 68.1982C40.9157 64.5925 41.6217 60.5735 41.2012 56.3918C40.7523 51.9154 38.3469 48.6769 34.4426 46.553C33.8281 46.2188 33.1767 45.9704 32.4664 45.7219ZM77.4344 75.6361C80.757 75.6339 83.0186 75.3217 85.1952 74.5038C87.8991 73.4903 90.1302 71.8677 91.6248 69.3283C92.7883 67.3518 93.2284 65.1905 93.1652 62.9084C93.0672 59.3511 91.4985 56.7545 88.2651 55.2353C86.655 54.479 84.9447 54.048 83.2256 53.6347C81.9772 53.3357 80.7178 53.0763 79.5239 52.5882C78.9138 52.3397 78.3364 52.0341 77.905 51.5065C77.04 50.4511 77.3276 49.0198 78.5325 48.402C79.1382 48.0898 79.7897 47.9821 80.4607 47.9557C81.7833 47.9052 83.0273 48.2349 84.2322 48.7494C85.5438 49.3101 86.7749 50.029 88.0298 50.6996C88.2368 50.8095 88.3501 50.8425 88.4634 50.5699C89.5485 47.9447 90.6466 45.3262 91.7469 42.7077C91.8318 42.5054 91.8035 42.4109 91.6052 42.3075C90.6182 41.7931 89.6313 41.2764 88.6094 40.8323C84.5416 39.0646 80.3235 38.4864 75.9659 39.3438C73.0703 39.9132 70.6126 41.3226 68.802 43.7234C66.8346 46.3288 66.181 49.3101 66.4947 52.5266C66.7366 54.9956 67.8978 56.9172 69.9808 58.254C71.1508 59.0059 72.4363 59.494 73.7544 59.9029C75.3754 60.4064 77.0422 60.745 78.648 61.2924C79.4977 61.5826 80.3278 61.9212 80.9967 62.5544C82.3454 63.834 82.0099 65.6874 80.3039 66.3866C79.7766 66.602 79.2254 66.6966 78.6589 66.6988C77.4736 66.7032 76.3407 66.4174 75.2316 66.0304C72.9526 65.2367 70.8588 64.0693 68.8369 62.7633C68.6365 62.6336 68.5449 62.6226 68.4382 62.8688C67.2377 65.6588 66.0306 68.4445 64.817 71.2279C64.7277 71.4346 64.7648 71.5269 64.9499 71.6324C65.767 72.1007 66.5928 72.5559 67.4425 72.9626C70.9242 74.6313 74.5671 75.6317 77.4344 75.6317V75.6361ZM67.1527 38.438C67.3052 38.3742 67.3466 38.2445 67.4142 38.1434C69.0439 35.6765 70.7738 33.2845 72.543 30.921C77.3734 24.4725 82.7485 18.5099 88.4068 12.8001C90.9363 10.2475 93.5051 7.73235 96.124 5.26992C96.1981 5.19957 96.3049 5.149 96.3223 4.97971C96.1894 5.04786 96.1001 5.08964 96.0129 5.1402C93.1021 6.83312 90.2479 8.62059 87.4525 10.5026C81.0643 14.8052 75.1271 19.6795 69.5537 25.0045C69.4099 25.1431 69.3337 25.1738 69.1768 25.0111C67.7083 23.4809 66.2311 21.9595 64.7517 20.4425C64.3791 20.0599 63.9869 19.6971 63.5533 19.2772C64.7582 25.6949 65.9522 32.0533 67.1505 38.438H67.1527ZM90.8231 33.467C90.8231 31.8862 89.5964 30.611 88.0625 30.5934C86.4873 30.5758 85.2279 31.8466 85.2279 33.4538C85.2279 35.0763 86.4655 36.3493 88.0342 36.3405C89.5986 36.3317 90.8231 35.0697 90.8231 33.467Z" fill="#1E1C1C"/>
<path id="Vector_2" d="M35.4709 92.3059C35.4709 93.0006 35.46 93.6954 35.4775 94.3901C35.484 94.654 35.3925 94.7529 35.1419 94.7177C35.0962 94.7111 35.0504 94.7177 35.0047 94.7177C34.2682 94.7177 34.266 94.7177 34.1026 93.9988C34.07 93.8515 34.046 93.7152 33.8848 93.902C33.0786 94.8387 32.0306 95.0387 30.8824 94.8782C29.5664 94.6935 28.5467 94.0296 27.88 92.8555C26.9083 91.1472 27.076 88.6364 28.2591 87.1128C29.769 85.1692 33.0634 85.0417 34.5798 86.8665C34.9654 87.3304 35.1986 87.8625 35.3075 88.4539C35.3424 88.6386 35.3075 88.7309 35.0896 88.7243C34.619 88.7112 34.1484 88.7134 33.6778 88.7243C33.5362 88.7265 33.4751 88.6716 33.4359 88.5463C33.1854 87.7174 32.6102 87.2821 31.7735 87.2227C30.8671 87.1567 30.098 87.4711 29.6644 88.3044C28.9912 89.5972 28.9738 90.9361 29.6644 92.2267C30.3704 93.5437 32.0633 93.5085 32.8891 92.9698C33.3836 92.6467 33.6081 92.1498 33.6974 91.5759C33.7257 91.3978 33.656 91.3583 33.4969 91.3605C33.0045 91.3671 32.5099 91.3561 32.0175 91.3671C31.8302 91.3715 31.7495 91.3231 31.7583 91.1186C31.7735 90.7954 31.7713 90.47 31.7583 90.1468C31.7517 89.96 31.8302 89.9094 32.0001 89.9094C33.0677 89.9138 34.1331 89.916 35.2007 89.9094C35.4143 89.9094 35.4775 89.9863 35.4753 90.193C35.4666 90.8988 35.4709 91.6045 35.4731 92.3125L35.4709 92.3059Z" fill="#1E1C1C"/>
<path id="Vector_3" d="M42.7917 92.7544C42.5978 93.7921 41.7633 94.6122 40.6434 94.8101C39.4516 95.0211 38.3077 94.887 37.4428 93.9284C36.5103 92.8973 36.373 91.6463 36.7434 90.3557C37.0876 89.1597 37.909 88.3902 39.127 88.1615C41.2186 87.7724 42.5302 88.9398 42.8854 90.7317C42.9442 91.0263 42.9595 91.3275 42.966 91.6287C42.9725 91.8552 42.9006 91.9233 42.674 91.9211C41.345 91.9123 40.0137 91.9299 38.6847 91.9079C38.3513 91.9035 38.3012 92.02 38.347 92.3059C38.4537 92.9522 38.8002 93.3854 39.3732 93.5173C40.0682 93.6778 40.7044 93.5701 41.1685 92.972C41.2905 92.8159 41.3994 92.75 41.5868 92.7544C41.9855 92.7654 42.3864 92.7566 42.7895 92.7566L42.7917 92.7544ZM39.7588 90.8086C40.1597 90.8086 40.5606 90.8086 40.9637 90.8086C41.1075 90.8086 41.2034 90.7888 41.1707 90.5932C41.0552 89.9116 40.565 89.4367 39.9244 89.4147C39.103 89.3861 38.5431 89.7731 38.3666 90.481C38.3056 90.7251 38.3666 90.8218 38.6237 90.8108C39.0006 90.7954 39.3797 90.8064 39.7588 90.8064V90.8086Z" fill="#1E1C1C"/>
<path id="Vector_4" d="M20.6094 91.9145C19.9558 91.9145 19.3 91.9365 18.6485 91.9057C18.2934 91.8881 18.2781 92.042 18.3261 92.3147C18.4372 92.9237 18.7357 93.3722 19.361 93.5173C20.0451 93.6756 20.6726 93.5679 21.1302 92.9852C21.2718 92.8049 21.4025 92.7412 21.6138 92.75C21.8993 92.7632 22.189 92.7676 22.4745 92.75C22.7512 92.7324 22.81 92.8071 22.7011 93.0754C22.237 94.2164 21.372 94.7771 20.1867 94.8738C18.5897 95.0013 17.2192 94.3418 16.7116 92.6862C16.1843 90.9669 16.8379 89.1597 18.2912 88.4473C20.1127 87.5547 22.6488 88.2121 22.9168 91.1802C22.9821 91.9145 22.9582 91.9167 22.2261 91.9167C21.6879 91.9167 21.1476 91.9167 20.6094 91.9167V91.9145ZM19.7161 90.8064C20.117 90.8064 20.5179 90.8064 20.921 90.8064C21.0583 90.8064 21.1694 90.7976 21.1454 90.5997C21.0648 89.9424 20.5462 89.4389 19.9079 89.4125C19.0647 89.3773 18.4633 89.8105 18.3261 90.5382C18.289 90.7383 18.3478 90.813 18.5483 90.8086C18.9383 90.7998 19.3283 90.8064 19.7183 90.8064H19.7161Z" fill="#1E1C1C"/>
<path id="Vector_5" d="M55.1258 91.9145C54.4612 91.9145 53.7945 91.9211 53.13 91.9101C52.899 91.9057 52.8032 91.9453 52.8468 92.2201C52.9622 92.9412 53.2694 93.3524 53.8664 93.5129C54.5898 93.7064 55.2957 93.5019 55.6879 92.9478C55.799 92.7917 55.9101 92.7456 56.0823 92.75C56.3916 92.7588 56.7032 92.7698 57.0104 92.7478C57.3242 92.7258 57.3133 92.8423 57.2174 93.0842C56.7642 94.2186 55.8992 94.7375 54.7336 94.8738C53.0407 95.0717 51.5961 94.1329 51.1931 92.5345C50.7268 90.6855 51.5155 88.8914 53.1213 88.3132C55.1192 87.5943 57.0605 88.5418 57.4113 90.8878C57.5638 91.9101 57.542 91.9123 56.5376 91.9123C56.067 91.9123 55.5964 91.9123 55.1258 91.9123V91.9145ZM54.2564 90.8086C54.6573 90.8086 55.0604 90.8086 55.4613 90.8086C55.5986 90.8086 55.701 90.8086 55.6683 90.5997C55.5615 89.916 55.0778 89.4411 54.4286 89.4169C53.6093 89.3839 53.0254 89.7885 52.8707 90.4832C52.8206 90.7119 52.8489 90.8284 53.1213 90.8152C53.4982 90.7976 53.8773 90.8108 54.2564 90.8108V90.8086Z" fill="#1E1C1C"/>
<path id="Vector_6" d="M87.472 88.2604C88.0647 88.2604 88.6028 88.2714 89.141 88.256C89.3567 88.2494 89.3785 88.3924 89.4221 88.5309C89.8339 89.7797 90.2413 91.0307 90.6509 92.2795C90.6858 92.3872 90.7272 92.4949 90.7664 92.6071C90.9232 92.5433 90.9167 92.396 90.9516 92.2861C91.3525 91.0329 91.749 89.7797 92.1368 88.5221C92.1978 88.3242 92.285 88.2472 92.4941 88.256C92.919 88.2736 93.3439 88.2692 93.7666 88.256C93.9627 88.2516 94.0346 88.2824 93.9539 88.5001C93.065 90.89 92.1848 93.282 91.3002 95.6741C90.9821 96.5316 90.348 96.9449 89.4591 96.9845C89.0822 97.0021 88.7031 96.9977 88.3261 96.9537C88.1475 96.9339 88.0647 96.8768 88.0756 96.6789C88.0908 96.3557 88.0886 96.0303 88.0756 95.7071C88.0669 95.5092 88.1453 95.474 88.3196 95.4982C88.5222 95.5268 88.7292 95.5444 88.9362 95.5444C89.6029 95.5444 89.9602 95.0453 89.7293 94.3879C89.2957 93.1589 88.8316 91.9409 88.3806 90.7163C88.0865 89.916 87.7902 89.1179 87.4742 88.2582L87.472 88.2604Z" fill="#1E1C1C"/>
<path id="Vector_7" d="M66.475 88.0999C68.5122 88.0999 69.7933 89.4235 69.7911 91.5188C69.7911 93.5701 68.4839 94.8892 66.4532 94.887C64.44 94.887 63.1524 93.5569 63.1545 91.4814C63.1545 89.4213 64.4531 88.0999 66.475 88.0999ZM64.9107 91.3956C64.9085 91.9255 64.9586 92.3454 65.1416 92.7434C65.4096 93.3216 65.878 93.5876 66.4881 93.5811C67.1003 93.5745 67.5818 93.2996 67.8172 92.7126C68.1396 91.9101 68.1462 91.0812 67.8172 90.281C67.5884 89.7247 67.1439 89.4301 66.5273 89.4103C65.8846 89.3905 65.427 89.6741 65.1438 90.2458C64.9499 90.6371 64.9107 91.0637 64.9107 91.3956Z" fill="#1E1C1C"/>
<path id="Vector_8" d="M75.2403 93.8845C74.4865 94.8958 73.4886 95.0343 72.3905 94.7815C71.6715 94.6166 71.2488 94.1307 71.0745 93.4184C70.9917 93.0798 70.9525 92.7346 70.9525 92.3872C70.9481 91.1252 70.959 89.8632 70.9438 88.6012C70.9416 88.3286 71.0157 88.2363 71.2902 88.2538C71.6453 88.278 72.0027 88.2758 72.3556 88.2538C72.6171 88.2385 72.7086 88.3066 72.7042 88.5902C72.6868 89.6895 72.6977 90.791 72.6977 91.8903C72.6977 92.1344 72.7108 92.374 72.7631 92.6137C72.8916 93.1853 73.1378 93.4359 73.6673 93.5085C74.2534 93.5876 74.7784 93.3392 75.0029 92.8687C75.1554 92.5499 75.2033 92.2069 75.2033 91.8574C75.2033 90.769 75.2142 89.6807 75.1968 88.5924C75.1924 88.311 75.2796 88.2385 75.5432 88.2538C75.9441 88.2758 76.3472 88.2648 76.7481 88.256C76.9071 88.2538 76.9703 88.3 76.9703 88.4715C76.9659 90.4744 76.9659 92.4774 76.9703 94.4803C76.9703 94.6694 76.8962 94.7199 76.7263 94.7155C76.3472 94.7089 75.9681 94.7001 75.5911 94.7177C75.3406 94.7287 75.2687 94.6276 75.2839 94.3945C75.2926 94.2406 75.3166 94.0779 75.2403 93.8823V93.8845Z" fill="#1E1C1C"/>
<path id="Vector_9" d="M45.7439 89.1113C46.293 88.2802 47.0926 88.0494 48.0186 88.1021C49.1581 88.1659 49.8618 88.7969 49.9686 89.9446C50.1081 91.4572 50.0013 92.9742 50.0296 94.4891C50.0318 94.6518 49.9686 94.7177 49.8074 94.7155C49.3716 94.7111 48.9359 94.7067 48.5001 94.7155C48.267 94.7221 48.2822 94.5792 48.2822 94.4209C48.2822 93.3678 48.2822 92.3146 48.2822 91.2615C48.2822 90.9603 48.2757 90.6613 48.2125 90.3645C48.1014 89.8434 47.8443 89.5554 47.4085 89.4916C46.744 89.3927 46.2276 89.6082 45.9858 90.0831C45.7635 90.5228 45.7657 90.9999 45.7614 91.4726C45.7548 92.4334 45.7483 93.3942 45.7657 94.3549C45.7723 94.6518 45.672 94.7353 45.3932 94.7199C45.0271 94.6979 44.6589 94.7067 44.2929 94.7177C44.099 94.7221 44.0074 94.6781 44.0074 94.4517C44.0162 92.4729 44.014 90.492 44.0074 88.5133C44.0074 88.3198 44.0597 88.2472 44.258 88.256C44.6371 88.2692 45.0162 88.2714 45.3932 88.256C45.6154 88.2472 45.672 88.3374 45.6611 88.5397C45.6503 88.7199 45.659 88.9002 45.659 89.0805C45.6873 89.0893 45.7156 89.1003 45.7418 89.1091L45.7439 89.1113Z" fill="#1E1C1C"/>
<path id="Vector_10" d="M78.8484 92.6378C78.905 92.6378 78.9638 92.64 79.0205 92.6378C79.3713 92.6202 79.6327 92.6049 79.8027 93.0798C80.0707 93.8361 81.5065 93.9702 82.0294 93.3524C82.3366 92.9918 82.2298 92.5477 81.7701 92.3344C81.3213 92.1256 80.8332 92.031 80.3561 91.9167C79.9334 91.8156 79.5042 91.732 79.1076 91.5407C77.9703 90.9911 77.8156 89.4389 78.8179 88.6518C79.1904 88.3594 79.624 88.2099 80.0837 88.1549C80.8746 88.0604 81.6655 88.034 82.4259 88.3242C83.1428 88.599 83.6047 89.1003 83.7354 89.8852C83.7681 90.0743 83.7158 90.138 83.5306 90.1314C83.2669 90.1226 83.0033 90.1204 82.7397 90.1314C82.3933 90.1468 82.0512 90.1908 81.9771 89.7005C81.9575 89.5686 81.8093 89.485 81.6808 89.4257C81.2581 89.2256 80.8158 89.2146 80.3713 89.3245C80.1382 89.3839 79.9552 89.5202 79.9181 89.7884C79.8789 90.0699 80.0249 90.2524 80.2537 90.3777C80.6524 90.5975 81.1012 90.6503 81.5348 90.758C81.9117 90.8526 82.2952 90.9295 82.6634 91.057C83.2996 91.2769 83.8291 91.6353 83.9228 92.3784C84.0273 93.2271 83.7746 93.9416 83.0316 94.4121C82.2887 94.8826 81.4498 94.92 80.6066 94.8694C80.0423 94.8342 79.4933 94.7243 79.0031 94.4143C78.4649 94.0757 78.1468 93.592 78.0379 92.9632C78.0008 92.7434 78.0226 92.6027 78.3015 92.6334C78.4823 92.6532 78.6675 92.6378 78.8527 92.6378H78.8484Z" fill="#1E1C1C"/>
<path id="Vector_11" d="M0.0111503 90.226C0.0111503 88.8826 0.0264018 87.5393 0.00025637 86.1981C-0.00627999 85.8288 0.111375 85.743 0.444729 85.7694C0.810765 85.798 1.17898 85.7958 1.54502 85.7694C1.84351 85.7496 1.93502 85.8354 1.93284 86.1498C1.91759 88.1747 1.9263 90.2018 1.9263 92.2267C1.9263 92.3894 1.94156 92.5521 1.92195 92.7126C1.88491 93.016 1.99385 93.1127 2.30106 93.1083C3.48196 93.0908 4.66504 93.1127 5.84594 93.0952C6.16622 93.0908 6.30567 93.1611 6.26863 93.5107C6.23812 93.8075 6.24684 94.1131 6.26863 94.4121C6.28606 94.665 6.18148 94.7199 5.95052 94.7199C4.08113 94.7133 2.20955 94.7089 0.340147 94.7221C0.0503685 94.7221 0.00461394 94.6144 0.00679273 94.3594C0.0176867 92.9808 0.0111503 91.6045 0.0111503 90.226Z" fill="#1E1C1C"/>
<path id="Vector_12" d="M9.82227 88.2604C10.3691 88.2604 10.9073 88.2692 11.4455 88.256C11.6677 88.2516 11.6677 88.4077 11.7091 88.544C12.0926 89.7906 12.476 91.0372 12.8595 92.2817C12.8922 92.3894 12.9314 92.4971 12.9684 92.6114C13.1144 92.5081 13.1144 92.3542 13.1536 92.2267C13.5327 91.0043 13.9075 89.7796 14.2713 88.5506C14.3389 88.3242 14.4348 88.2406 14.6744 88.2516C15.132 88.2736 15.5917 88.2582 16.095 88.2582C15.9773 88.6276 15.8684 88.9728 15.7551 89.3157C15.1864 91.0109 14.6091 92.7038 14.0491 94.4033C13.9707 94.6407 13.8683 94.7309 13.6177 94.7221C13.1493 94.7023 12.6765 94.7133 12.208 94.7177C12.0512 94.7177 11.9618 94.6759 11.9052 94.5088C11.2189 92.4641 10.5238 90.4216 9.83316 88.3769C9.82227 88.3462 9.82662 88.311 9.82227 88.2604Z" fill="#1E1C1C"/>
<path id="Vector_13" d="M86.7966 90.2502C86.7966 91.6155 86.7901 92.983 86.8032 94.3483C86.8054 94.632 86.7313 94.7419 86.4393 94.7221C86.0733 94.6979 85.7051 94.7067 85.339 94.7221C85.1168 94.7309 85.0405 94.6605 85.0449 94.4297C85.058 93.6316 85.0493 92.8313 85.0493 92.0332C85.0493 90.0765 85.0558 88.1197 85.0427 86.1652C85.0427 85.8727 85.0928 85.743 85.4131 85.7716C85.7421 85.8024 86.0798 85.8024 86.411 85.7716C86.7509 85.7408 86.8054 85.8881 86.8032 86.1893C86.7901 87.5437 86.7966 88.898 86.7966 90.2524V90.2502Z" fill="#1E1C1C"/>
<path id="Vector_14" d="M60.1741 89.4323C60.4028 89.1355 60.5357 88.8936 60.7384 88.7068C61.2003 88.278 61.7384 88.0692 62.3681 88.1C62.5576 88.1087 62.6622 88.1549 62.6513 88.3814C62.6339 88.7617 62.6361 89.1443 62.6513 89.5268C62.66 89.7379 62.5794 89.7841 62.3877 89.7555C62.2199 89.7291 62.0435 89.7093 61.8757 89.7247C60.941 89.8083 60.4072 90.3469 60.307 91.3011C60.2024 92.3059 60.2677 93.3128 60.2656 94.3176C60.2656 94.6364 60.1784 94.7463 59.8603 94.7221C59.5073 94.6958 59.15 94.7089 58.7949 94.7177C58.6097 94.7221 58.5312 94.6672 58.5312 94.4649C58.5378 92.4752 58.5378 90.4832 58.5312 88.4935C58.5312 88.311 58.5923 88.2539 58.7709 88.2583C59.1609 88.2692 59.5509 88.2692 59.9409 88.2583C60.1218 88.2539 60.1849 88.3176 60.1762 88.4957C60.1653 88.7727 60.1741 89.0497 60.1741 89.4323Z" fill="#1E1C1C"/>
<path id="Vector_15" d="M7.24039 91.4704C7.24039 90.5096 7.24693 89.551 7.23603 88.5902C7.23386 88.344 7.27961 88.2362 7.55196 88.2538C7.95068 88.278 8.35375 88.267 8.75465 88.2582C8.93113 88.2538 8.99649 88.3132 8.99649 88.4935C8.99214 90.4832 8.99214 92.4729 8.99649 94.4627C8.99649 94.665 8.9137 94.7221 8.7285 94.7177C8.32761 94.7089 7.92671 94.7045 7.52581 94.7177C7.29922 94.7265 7.23386 94.643 7.23603 94.4187C7.24693 93.4359 7.24039 92.4532 7.24039 91.4682V91.4704Z" fill="#1E1C1C"/>
<path id="Vector_16" d="M95.7711 92.8247C96.0195 92.8599 96.4095 92.6884 96.6056 92.8995C96.782 93.0908 96.6557 93.4733 96.6557 93.7701C96.6557 94.0669 96.782 94.4495 96.6056 94.6408C96.4116 94.854 96.0216 94.7111 95.7188 94.7111C95.405 94.7111 95.0041 94.8584 94.7972 94.6408C94.6076 94.4407 94.7405 94.0471 94.7383 93.7371C94.7296 92.8247 94.7362 92.8247 95.6491 92.8247C95.6709 92.8247 95.6948 92.8247 95.7711 92.8247Z" fill="#1E1C1C"/>
<path id="Vector_17" d="M96.074 88.5617C95.2373 88.5551 94.5423 87.8647 94.551 87.049C94.5597 86.2399 95.2395 85.576 96.0674 85.5672C96.9084 85.5584 97.5969 86.2289 97.6035 87.06C97.6078 87.8801 96.9084 88.5683 96.074 88.5617ZM95.0064 87.0644C95.0064 87.6998 95.4595 88.1835 96.0652 88.1901C96.6862 88.1989 97.1634 87.7108 97.1655 87.0644C97.1677 86.4246 96.6906 85.9365 96.0631 85.9409C95.4552 85.9431 95.0064 86.4202 95.0064 87.0644Z" fill="#1E1C1C"/>
<path id="Vector_18" d="M8.10969 87.2447C7.53014 87.2447 7.24036 86.9493 7.24036 86.3586C7.24036 85.9688 7.43499 85.7738 7.82427 85.7738C8.13366 85.7738 8.44305 85.7804 8.75243 85.7738C8.92892 85.7694 9.00082 85.8398 8.99646 86.0201C8.98992 86.3432 8.98774 86.6686 8.99646 86.9918C9.003 87.1941 8.91367 87.2557 8.72847 87.2491C8.52148 87.2403 8.31668 87.2469 8.10969 87.2491V87.2447Z" fill="#1E1C1C"/>
<path id="Vector_19" d="M18.5396 57.7505C18.5396 55.8531 18.5396 53.9557 18.5396 52.0561C18.5396 51.8978 18.4982 51.7285 18.7618 51.7329C20.1824 51.7549 21.6095 51.656 23.0257 51.7725C25.2873 51.9594 26.6229 53.0828 27.2025 55.2968C27.7145 57.2558 27.6992 59.2213 26.88 61.1077C26.1392 62.8073 24.7927 63.6757 22.9604 63.7263C21.5855 63.7636 20.2085 63.7263 18.8316 63.7395C18.5745 63.7395 18.5352 63.6361 18.5374 63.4119C18.544 61.5255 18.5418 59.6391 18.5418 57.7527L18.5396 57.7505Z" fill="#1E1C1C"/>
<path id="Vector_20" d="M21.1825 31.1299C21.8514 31.1518 22.6706 31.0573 23.4768 31.176C25.3701 31.453 26.5445 32.5809 27.05 34.419C27.4007 35.6941 27.3746 36.9847 27.0216 38.2577C26.4769 40.2233 25.0411 41.316 22.9952 41.3379C21.6074 41.3533 20.2195 41.3336 18.8316 41.3467C18.581 41.3489 18.5331 41.2632 18.5331 41.0301C18.5396 37.8356 18.5418 34.6432 18.5331 31.4486C18.5331 31.1716 18.6289 31.1233 18.8708 31.1277C19.592 31.1408 20.3153 31.132 21.1825 31.132V31.1299Z" fill="#1E1C1C"/>
<path id="Vector_21" d="M90.2544 33.4912C90.25 34.7883 89.25 35.8524 88.0407 35.848C86.8119 35.8437 85.8075 34.7729 85.8053 33.467C85.8053 32.1588 86.8097 31.0969 88.0429 31.1013C89.2761 31.1057 90.2566 32.1654 90.2522 33.4912H90.2544ZM88.6595 33.5373C89.0669 33.3263 89.2369 33.0031 89.1584 32.5633C89.0909 32.183 88.8229 32.0005 88.4808 31.9126C88.0386 31.7982 87.5941 31.8466 87.1496 31.9016C86.9993 31.9191 86.9753 32.0247 86.9753 32.15C86.9753 33.0624 86.9797 33.977 86.9731 34.8895C86.9731 35.1357 87.1169 35.1247 87.2891 35.1335C87.496 35.1445 87.5396 35.0478 87.5331 34.8653C87.5222 34.5883 87.5418 34.309 87.5265 34.0342C87.5156 33.8319 87.5941 33.7814 87.7836 33.7814C88.2521 33.7814 88.4046 33.9001 88.507 34.3838C88.5506 34.5861 88.5854 34.7927 88.6508 34.9884C88.7292 35.2192 88.9406 35.1093 89.0974 35.1269C89.1628 35.1335 89.2696 35.1137 89.2369 35.028C89.0539 34.5333 89.1846 33.9177 88.6617 33.5417L88.6595 33.5373Z" fill="#1E1C1C"/>
<path id="Vector_22" d="M96.7842 87.724C96.5053 87.7987 96.2983 87.7789 96.2547 87.4359C96.2373 87.304 96.1218 87.2535 95.9933 87.2689C95.856 87.2864 95.8843 87.4008 95.8887 87.4843C95.8952 87.6602 95.8625 87.7679 95.6468 87.7569C95.4202 87.7459 95.4638 87.5942 95.4638 87.4645C95.4595 87.1875 95.4682 86.9083 95.4616 86.6313C95.4573 86.4598 95.5139 86.3696 95.6969 86.3762C95.9366 86.385 96.1806 86.3564 96.4181 86.3894C96.7449 86.4356 96.8539 86.7192 96.6382 86.9632C96.5467 87.0644 96.5292 87.1128 96.6251 87.2073C96.6709 87.2535 96.6992 87.326 96.7166 87.3898C96.7471 87.4975 96.7645 87.6096 96.7863 87.7218L96.7842 87.724ZM96.0848 86.9874C96.1458 86.9632 96.2678 86.9545 96.27 86.8225C96.27 86.6752 96.161 86.64 96.0368 86.64C95.9083 86.64 95.8996 86.7302 95.9018 86.8269C95.9018 86.9281 95.9214 87.0116 96.0848 86.9896V86.9874Z" fill="#1E1C1C"/>
<path id="Vector_23" d="M87.6768 33.3306C87.2933 33.2976 87.6006 32.8799 87.533 32.6402C87.4524 32.361 87.6245 32.2797 87.8707 32.2885C88.3043 32.3039 88.5984 32.5149 88.6006 32.8205C88.6028 33.1393 88.3087 33.335 87.6768 33.3306Z" fill="#1E1C1C"/>
</g>
</svg>
