<svg width="154" height="60" viewBox="0 0 154 60" fill="none" xmlns="http://www.w3.org/2000/svg">
<g id="Group">
<path id="Vector" d="M47.9024 59.0035C47.1851 58.8709 46.4613 58.778 45.7572 58.5923C42.0195 57.6107 39.723 54.2615 40.1178 50.3883C40.6574 44.9963 44.2239 41.1165 49.4948 40.2543C51.186 39.9757 52.8771 40.0819 54.5222 40.6589C57.8453 41.8261 59.872 44.9433 59.5891 48.4716C59.1548 53.8238 55.6079 57.8031 50.3831 58.8045C49.9883 58.8841 49.5606 58.7846 49.1921 59.0101H47.9024V59.0035ZM47.3628 52.6631C47.3628 52.9019 47.343 53.1407 47.3628 53.3794C47.4549 54.3875 48.2972 54.8252 49.1855 54.3411C49.5145 54.162 49.7843 53.9034 49.9817 53.5916C51.5347 51.1908 52.3375 48.5578 52.298 45.6927C52.2849 44.605 51.2452 44.1607 50.3437 44.7775C49.8896 45.0892 49.5672 45.5269 49.304 45.9978C48.1458 48.067 47.5536 50.3021 47.3694 52.6565L47.3628 52.6631Z" fill="#1E1C1C"/>
<path id="Vector_2" d="M72.8157 59.0035C72.1247 58.8709 71.4206 58.778 70.7363 58.6056C66.9986 57.6439 64.7087 54.3809 65.0311 50.5143C65.4851 45.1091 69.0978 41.1165 74.4213 40.2543C76.4217 39.9293 78.4155 40.1084 80.2844 41.0037C83.1271 42.3567 84.7787 45.3279 84.5024 48.5446C84.0483 53.8569 80.4884 57.8097 75.2965 58.8046C74.9016 58.8775 74.4739 58.7847 74.1054 59.0035H72.8157ZM77.2245 46.4289C77.2245 46.1702 77.2442 45.9049 77.2245 45.6529C77.1192 44.6581 76.2638 44.2137 75.3886 44.6979C75.0596 44.877 74.7963 45.1422 74.5989 45.4473C73.0526 47.8482 72.2695 50.4944 72.2958 53.3529C72.309 54.414 73.3026 54.865 74.1975 54.2814C74.6976 53.9564 75.0398 53.4789 75.3228 52.9682C76.4546 50.9388 77.0337 48.7369 77.2245 46.4289Z" fill="#1E1C1C"/>
<path id="Vector_3" d="M121.866 59.0035C121.109 58.8709 120.346 58.7648 119.595 58.5923C117.391 58.0816 115.47 57.0205 113.824 55.4553C113.495 55.1436 113.462 54.9711 113.851 54.6793C114.831 53.9365 115.785 53.1606 116.726 52.3713C117.029 52.1193 117.18 52.1525 117.457 52.4244C118.694 53.6513 120.161 54.4671 121.885 54.7854C122.188 54.8385 122.484 54.8186 122.78 54.7523C123.195 54.6661 123.478 54.4538 123.603 54.0294C123.734 53.5916 123.563 53.26 123.267 52.9815C122.721 52.4774 122.043 52.179 121.392 51.854C120.24 51.277 119.056 50.7531 118.029 49.9439C115.943 48.2992 115.575 45.9779 117.029 43.7362C117.595 42.8674 118.345 42.1975 119.214 41.6537C123.28 39.1003 129.913 39.8497 133.335 43.2255C133.638 43.524 133.612 43.6699 133.296 43.9153C132.309 44.678 131.328 45.4606 130.367 46.2631C130.071 46.5085 129.907 46.4952 129.624 46.2365C128.413 45.1555 127.044 44.3795 125.419 44.1275C125.162 44.0877 124.906 44.0877 124.649 44.1408C124.254 44.2204 123.978 44.4127 123.859 44.8106C123.748 45.1887 123.912 45.4871 124.156 45.7524C124.485 46.1039 124.906 46.3294 125.333 46.535C126.143 46.9329 126.972 47.2977 127.775 47.7023C128.328 47.9808 128.874 48.2925 129.4 48.6308C132.881 50.8923 132.256 54.865 129.67 56.8613C128.064 58.1015 126.209 58.6387 124.235 58.8576C123.919 58.8908 123.59 58.8443 123.287 59.0035H121.866Z" fill="#1E1C1C"/>
<path id="Vector_4" d="M13.5727 18.9119C14.823 16.4712 16.0667 14.0306 17.3169 11.5899C19.0476 8.20751 20.7782 4.82509 22.4957 1.42941C22.6996 1.03148 22.93 0.872302 23.384 0.872302C26.9769 0.892199 30.5698 0.892199 34.1626 0.872302C34.7483 0.872302 34.8799 1.04474 34.8536 1.60848C34.6035 7.2989 34.3798 12.9827 34.1495 18.6731C34.1495 18.7593 34.1495 18.8455 34.1495 18.9782C34.439 18.8787 34.4587 18.6134 34.5509 18.4277C37.2488 12.797 39.9402 7.17289 42.6184 1.52889C42.8421 1.05137 43.0922 0.86567 43.6318 0.872302C46.7969 0.898831 49.9555 0.885567 53.1206 0.885567C53.805 0.885567 53.8116 0.898831 53.4628 1.50899C47.5734 11.7955 41.6774 22.0887 35.7946 32.3819C35.5906 32.74 35.38 32.8992 34.9457 32.8992C31.1817 32.8793 27.4178 32.8793 23.6538 32.8992C23.1537 32.8992 23.0089 32.7732 23.0089 32.2558C22.9694 27.6465 22.9036 23.0305 22.8378 18.4211C22.8378 18.1226 22.8839 17.8176 22.7391 17.4926C22.5088 17.6252 22.443 17.8574 22.3311 18.0497C19.6003 22.8116 16.8695 27.5669 14.1584 32.3354C13.928 32.74 13.678 32.8992 13.2042 32.8992C9.61133 32.8793 6.01845 32.8726 2.42558 32.8992C1.78729 32.8992 1.63594 32.6936 1.60962 32.1033C1.49117 29.3974 1.33982 26.6981 1.20163 23.9988C0.912099 18.5736 0.622563 13.1485 0.339608 7.72336C0.214581 5.66738 0.129037 3.6114 0.00401002 1.56205C-0.0223114 1.0779 0.0698136 0.872302 0.615983 0.878935C5.09062 0.898831 9.56526 0.898831 14.0399 0.878935C14.5334 0.878935 14.6519 1.01158 14.6124 1.50899C14.211 6.9275 13.8293 12.346 13.4543 17.7645C13.4279 18.1425 13.4543 18.5206 13.4543 18.8986C13.4937 18.9052 13.5332 18.9119 13.5661 18.9185L13.5727 18.9119Z" fill="#1E1C1C"/>
<path id="Vector_5" d="M121.543 14.0041C119.885 14.0041 118.233 13.9908 116.575 14.0107C116.042 14.0173 115.845 13.9311 116.003 13.3276C116.279 12.2863 116.272 11.2252 115.943 10.1906C115.371 8.39987 113.548 7.72338 111.949 8.70495C111.1 9.22889 110.495 9.98496 109.988 10.8206C108.409 13.4005 107.58 16.259 107.014 19.2037C106.783 20.3975 106.619 21.5979 106.645 22.8116C106.691 24.9737 108.067 25.9884 110.159 25.4247C111.153 25.1594 111.923 24.5559 112.587 23.7866C113.456 22.7785 114.088 21.6245 114.601 20.4041C114.759 20.0261 114.95 19.8935 115.364 19.92C118.753 20.119 122.149 20.3047 125.544 20.4705C126.117 20.497 126.215 20.6628 126.018 21.2066C123.445 28.2567 118.503 32.4283 111.107 33.5293C107.481 34.0731 103.914 33.6951 100.624 31.9574C95.6495 29.3311 93.3924 25.0135 93.4648 19.469C93.5767 10.2503 100.078 2.33141 109.041 0.487659C113.476 -0.427584 117.845 -0.162296 121.846 2.21203C125.551 4.41392 127.544 7.70349 127.531 12.1006C127.531 13.9974 127.498 13.9974 125.623 13.9974C124.267 13.9974 122.912 13.9974 121.556 13.9974L121.543 14.0041Z" fill="#1E1C1C"/>
<path id="Vector_6" d="M77.6192 13.6526C78.1062 12.9098 78.4747 12.2797 78.909 11.6961C81.6069 8.08815 86.9502 7.69022 89.8521 10.8869C91.4643 12.6577 91.7604 14.8198 91.438 17.0814C91.0366 19.8935 89.9706 22.5397 89.2467 25.2722C89.0296 26.0879 88.7203 26.8772 88.6282 27.7195C88.5229 28.6612 88.7729 29.0658 89.6942 29.2316C90.0627 29.2979 90.0824 29.4637 90.0561 29.7489C90.0166 30.1336 89.9311 30.5381 89.9837 30.9095C90.1153 31.8049 89.6284 32.2293 88.9177 32.5808C87.3121 33.3634 85.6144 33.4828 83.8837 33.3303C82.2847 33.191 80.7252 32.8859 79.4288 31.838C77.8167 30.5381 77.5271 28.7673 77.7903 26.8573C78.1786 24.0585 79.1722 21.4255 80.0079 18.7461C80.2645 17.9237 80.5409 17.1013 80.4488 16.2126C80.3567 15.3703 79.975 15.0586 79.159 15.2045C78.4155 15.3371 77.9483 15.8213 77.5929 16.4447C77.2047 17.1278 77.0007 17.8773 76.7967 18.6333C75.553 23.1963 74.3027 27.7592 73.0788 32.3222C72.9604 32.7665 72.7827 32.8859 72.3418 32.8859C69.0319 32.866 65.7154 32.866 62.4055 32.8859C61.8988 32.8859 61.7935 32.7931 61.9383 32.2758C63.4517 26.7777 64.9521 21.2796 66.4195 15.7682C66.8998 13.9709 67.1762 12.1205 67.1302 10.2502C67.117 9.73294 67.3012 9.58703 67.775 9.5605C70.2229 9.42786 72.6708 9.27532 75.1121 9.12941C75.6254 9.09625 76.1452 9.07635 76.6585 9.01666C77.0599 8.97024 77.1652 9.12278 77.1915 9.50744C77.3034 10.8405 77.4547 12.1736 77.6061 13.6526H77.6192Z" fill="#1E1C1C"/>
<path id="Vector_7" d="M154.004 18.514C153.984 26.7047 148.681 32.5875 141.758 33.2905C138.843 33.5823 136.04 33.1976 133.434 31.8447C129.538 29.8219 127.716 26.4925 127.9 22.1418C128.196 15.2973 132.651 10.1839 139.35 8.95697C142.659 8.34681 145.877 8.85086 148.825 10.5288C152.339 12.5317 153.971 15.6621 154.004 18.5073V18.514ZM137.955 26.7976C137.987 27.1226 137.987 27.4077 138.047 27.6797C138.165 28.2301 138.395 28.7143 139.001 28.8668C139.606 29.0194 140.034 28.7076 140.396 28.2633C140.751 27.8256 141.028 27.3348 141.251 26.8175C142.659 23.5544 143.35 20.1123 143.831 16.6105C143.93 15.881 144.028 15.1514 143.824 14.4219C143.528 13.3674 142.508 13.0888 141.732 13.8449C141.422 14.15 141.186 14.5147 140.982 14.8994C140.514 15.7815 140.159 16.71 139.863 17.6584C138.922 20.6562 138.277 23.7136 137.961 26.7976H137.955Z" fill="#1E1C1C"/>
<path id="Vector_8" d="M94.5703 58.4862C92.912 58.4862 91.2603 58.4862 89.6021 58.4862C88.7664 58.4862 88.7664 58.4862 88.9572 57.7036C90.3325 52.1724 91.721 46.6411 93.0831 41.1032C93.1884 40.6854 93.3529 40.5594 93.774 40.566C96.3338 40.5859 98.8936 40.566 101.453 40.5859C102.684 40.5925 103.888 40.818 105.046 41.2624C108.968 42.7679 110.633 46.5549 109.284 50.9056C107.876 55.4686 103.98 58.4132 99.216 58.4862C97.6696 58.5127 96.1166 58.4862 94.5703 58.4862ZM102.361 47.4104C102.388 45.5932 101.71 44.8637 100.256 44.9565C99.9727 44.9764 99.8411 45.0693 99.7687 45.3478C99.0844 48.1068 98.4 50.8658 97.7025 53.6248C97.617 53.963 97.6959 54.0625 98.0513 54.0824C99.2226 54.1554 100.071 53.6248 100.723 52.7029C101.868 51.078 102.243 49.2078 102.361 47.4038V47.4104Z" fill="#1E1C1C"/>
<path id="Vector_9" d="M58.4967 9.20235C60.0694 9.20235 61.6356 9.20235 63.2083 9.20235C63.7873 9.20235 64.0023 9.47869 63.8531 10.0314C62.3068 15.6953 60.7604 21.3658 59.2206 27.0297C59.1482 27.3016 59.0955 27.5802 59.0692 27.8587C58.9968 28.6479 59.2601 29.0591 60.0234 29.2249C60.3721 29.2979 60.484 29.4305 60.4577 29.7754C60.4182 30.2065 60.3721 30.6509 60.4314 31.0687C60.5301 31.7982 60.1681 32.1497 59.5825 32.4615C57.9374 33.3369 56.187 33.4961 54.384 33.3568C53.0943 33.2573 51.8308 33.0318 50.6727 32.3885C49.2184 31.5794 48.4551 30.3325 48.3038 28.6877C48.159 27.1756 48.4617 25.7165 48.8565 24.2707C50.1528 19.4955 51.4492 14.727 52.7192 9.94516C52.864 9.40132 53.0745 9.17582 53.6733 9.18909C55.2855 9.23551 56.8977 9.20235 58.5099 9.20235H58.4967Z" fill="#1E1C1C"/>
<path id="Vector_10" d="M31.2672 45.7988C29.9314 45.7988 28.6022 45.8121 27.2664 45.7922C26.8781 45.7922 26.661 45.9049 26.6018 46.3028C26.5228 46.8931 26.0161 47.6094 26.3254 48.0073C26.5952 48.3588 27.4177 48.1002 27.9968 48.1068C29.1813 48.1201 30.3657 48.1267 31.5436 48.1068C31.9713 48.1002 32.0635 48.2262 31.9582 48.6307C31.7015 49.5924 31.4581 50.5541 31.2409 51.5224C31.1619 51.8872 30.9974 52.0065 30.6289 51.9999C29.0168 51.98 27.4046 52.0132 25.7858 51.98C25.3252 51.9734 25.1475 52.1325 25.0488 52.5636C24.6277 54.3543 24.167 56.1318 23.7525 57.9158C23.6538 58.3336 23.509 58.5127 23.0352 58.5061C20.844 58.4796 18.6461 58.4862 16.4549 58.4995C16.0206 58.4995 15.8495 58.4597 15.9811 57.9291C17.3893 52.3116 18.7777 46.6941 20.153 41.07C20.2517 40.6721 20.4294 40.5726 20.8111 40.5726C26.0819 40.5859 31.3528 40.5859 36.6236 40.5726C37.0579 40.5726 37.2356 40.6058 37.0908 41.1364C36.7158 42.4694 36.3867 43.8091 36.0972 45.1621C35.9788 45.7059 35.7221 45.832 35.2154 45.8187C33.906 45.7855 32.5899 45.8054 31.2804 45.8054L31.2672 45.7988Z" fill="#1E1C1C"/>
<path id="Vector_11" d="M59.8918 7.39842C58.3981 7.33873 56.9438 7.09334 55.6606 6.24442C53.7063 4.95114 53.6734 2.91506 55.6935 1.72789C58.4507 0.109637 61.3263 0.109637 64.0901 1.70136C66.1695 2.89516 66.1102 4.99756 64.0835 6.29084C62.8069 7.09997 61.379 7.33873 59.8918 7.39179V7.39842Z" fill="#1E1C1C"/>
</g>
</svg>
