<svg width="41" height="43" viewBox="0 0 41 43" fill="none" xmlns="http://www.w3.org/2000/svg">
<path d="M25.8231 24.6059H24.711L24.3168 24.2373C26.0061 22.3256 26.8789 19.7175 26.4003 16.9456C25.7386 13.1495 22.4726 10.1181 18.5308 9.65385C12.5759 8.94379 7.5642 13.8049 8.29625 19.5809C8.77489 23.4043 11.9002 26.5722 15.8138 27.214C18.6716 27.6783 21.3604 26.8317 23.3313 25.1931L23.7114 25.5754V26.6542L29.6945 32.4575C30.2717 33.0174 31.2149 33.0174 31.7921 32.4575C32.3693 31.8977 32.3693 30.9828 31.7921 30.4229L25.8231 24.6059ZM17.4925 24.6439C13.9871 24.6439 11.1575 21.9842 11.1575 18.5842C11.1575 15.1841 13.9871 12.3545 17.4925 12.3545C20.9979 12.3545 23.8275 15.0992 23.8275 18.4992C23.8275 21.8993 20.9979 24.6439 17.4925 24.6439Z" fill="#1E1C1C"/>
</svg>
