<svg width="41" height="43" viewBox="0 0 41 43" fill="none" xmlns="http://www.w3.org/2000/svg">
<path d="M26.62 18.252L21.7104 10.1062C21.4975 9.75856 21.1388 9.58472 20.7801 9.58472C20.4214 9.58472 20.0627 9.75856 19.8497 10.1187L14.9401 18.252H9.57098C8.95448 18.252 8.45007 18.8107 8.45007 19.4937C8.45007 19.6054 8.46128 19.7172 8.49491 19.829L11.342 31.3398C11.5998 32.3828 12.4629 33.1527 13.4942 33.1527H28.066C29.0972 33.1527 29.9603 32.3828 30.2293 31.3398L33.0764 19.829L33.1101 19.4937C33.1101 18.8107 32.6057 18.252 31.9892 18.252H26.62ZM17.4173 18.252L20.7801 12.7884L24.1428 18.252H17.4173Z" fill="#1E1C1C"/>
</svg>
