<svg width="24" height="20" viewBox="0 0 24 20" fill="none" xmlns="http://www.w3.org/2000/svg">
<path d="M8.52357 17.2189C8.52357 17.7185 8.11843 18.124 7.61822 18.124C7.11959 18.124 6.71405 17.7189 6.71405 17.2189C6.71405 16.7193 7.11919 16.3145 7.61822 16.3145C8.11884 16.3145 8.52357 16.7198 8.52357 17.2189Z" fill="#111111" stroke="#231F20" stroke-width="2"/>
<path d="M19.1776 17.2189C19.1776 17.7186 18.7724 18.124 18.2725 18.124C17.7742 18.124 17.3687 17.719 17.3687 17.2189C17.3687 16.7192 17.7738 16.3145 18.2725 16.3145C18.7728 16.3145 19.1776 16.7196 19.1776 17.2189Z" fill="#111111" stroke="#231F20" stroke-width="2"/>
<path d="M0.907043 0.906982H3.53637L6.78565 13.6054H19.5684L22.3583 4.01083H4.6662" stroke="black" stroke-width="1.5"/>
</svg>
