<svg width="15" height="15" viewBox="0 0 15 15" fill="none" xmlns="http://www.w3.org/2000/svg">
<g id="&#240;&#159;&#166;&#134; icon &#34;lock&#34;">
<path id="Vector" d="M12.3832 4.95331H10.5257V3.845C10.5257 2.22898 9.34312 0.786318 7.73329 0.631526C5.88817 0.45816 4.33406 1.90701 4.33406 3.71498V4.95331H2.47656V13.6216H12.3832V4.95331ZM7.4299 10.5258C6.74881 10.5258 6.19156 9.96856 6.19156 9.28748C6.19156 8.60639 6.74881 8.04914 7.4299 8.04914C8.11098 8.04914 8.66823 8.60639 8.66823 9.28748C8.66823 9.96856 8.11098 10.5258 7.4299 10.5258ZM5.5724 4.95331V3.71498C5.5724 2.68716 6.40208 1.85748 7.4299 1.85748C8.45771 1.85748 9.2874 2.68716 9.2874 3.71498V4.95331H5.5724Z" fill="white"/>
</g>
</svg>
