<svg width="20" height="20" viewBox="0 0 20 20" fill="none" xmlns="http://www.w3.org/2000/svg">
<g id="insta">
<path id="Union" fill-rule="evenodd" clip-rule="evenodd" d="M15.6761 6.03737C15.8575 6.52403 15.9537 7.0389 15.9605 7.55894C15.9984 8.21302 15.9986 8.42693 15.9999 10.0826L15.9999 10.1056C15.9999 11.7831 15.9911 11.9925 15.9619 12.653C15.9517 13.1673 15.856 13.6741 15.6775 14.1547C15.5201 14.5651 15.2798 14.9378 14.9721 15.2491C14.6644 15.5604 14.2959 15.8034 13.8902 15.9626C13.4153 16.1429 12.9135 16.2402 12.4064 16.2503C11.7581 16.2887 11.5456 16.2887 9.88802 16.2887C8.23039 16.2887 8.02336 16.2798 7.36968 16.2503C6.86151 16.2334 6.35992 16.1289 5.88651 15.9413C5.48063 15.7824 5.11198 15.5396 4.80412 15.2284C4.49626 14.9173 4.25595 14.5445 4.09855 14.1341C3.92003 13.6528 3.82432 13.146 3.81414 12.6324C3.77612 11.976 3.77612 11.7618 3.77612 10.085C3.77612 8.4083 3.78495 8.19888 3.81414 7.53765C3.82372 7.02482 3.91991 6.51741 4.09855 6.03737C4.25569 5.6268 4.49581 5.25394 4.80357 4.94263C5.11133 4.63132 5.47995 4.38842 5.88583 4.22947C6.36054 4.04921 6.86205 3.9517 7.369 3.94108C8.01725 3.90332 8.22972 3.90332 9.88734 3.90332C11.545 3.90332 11.752 3.91156 12.405 3.94108C12.9122 3.95162 13.4139 4.04913 13.8889 4.22947C14.2947 4.38853 14.6632 4.63147 14.971 4.94276C15.2787 5.25406 15.5189 5.62687 15.6761 6.03737ZM6.74518 10.0816C6.74518 11.8353 8.14962 13.2559 9.88327 13.2559C10.7155 13.2559 11.5137 12.9215 12.1022 12.3262C12.6907 11.7309 13.0213 10.9235 13.0213 10.0816C13.0213 9.23974 12.6907 8.43235 12.1022 7.83705C11.5137 7.24176 10.7155 6.90733 9.88327 6.90733C8.14962 6.90733 6.74518 8.32796 6.74518 10.0816ZM12.8661 7.47394C12.9549 7.51111 13.0501 7.53019 13.1462 7.5301C13.5501 7.5301 13.8773 7.19914 13.8773 6.78991C13.8773 6.69275 13.8584 6.59655 13.8216 6.50679C13.7849 6.41702 13.731 6.33546 13.6631 6.26676C13.5952 6.19806 13.5145 6.14357 13.4258 6.10639C13.3371 6.06921 13.242 6.05007 13.1459 6.05007C13.0499 6.05007 12.9548 6.06921 12.866 6.10639C12.7773 6.14357 12.6966 6.19806 12.6287 6.26676C12.5608 6.33546 12.5069 6.41702 12.4702 6.50679C12.4334 6.59655 12.4145 6.69275 12.4145 6.78991C12.4144 6.88714 12.4333 6.98343 12.47 7.07328C12.5068 7.16312 12.5607 7.24475 12.6286 7.3135C12.6966 7.38226 12.7773 7.43677 12.8661 7.47394ZM11.9219 10.0817C11.9219 11.2206 11.0092 12.1438 9.88341 12.1438C8.7576 12.1438 7.84496 11.2206 7.84496 10.0817C7.84496 8.94293 8.7576 8.01974 9.88341 8.01974C11.0092 8.01974 11.9219 8.94293 11.9219 10.0817Z" fill="#FFFCF4"/>
</g>
</svg>
