<svg width="42" height="43" viewBox="0 0 42 43" fill="none" xmlns="http://www.w3.org/2000/svg">
<path opacity="0.8" fill-rule="evenodd" clip-rule="evenodd" d="M40.8987 7.41727C41.5173 9.06446 41.8456 10.8071 41.869 12.5672C41.9981 14.781 41.9987 15.505 42.0032 21.1088L42.0033 21.1869C42.0033 26.8644 41.9732 27.5732 41.8736 29.8088C41.8389 31.5495 41.5124 33.2646 40.9034 34.8914C40.3663 36.2804 39.5468 37.5419 38.497 38.5955C37.4472 39.649 36.1903 40.4715 34.8062 41.0104C33.1861 41.6207 31.4743 41.95 29.7442 41.9842C27.5328 42.1143 26.8079 42.1143 21.1535 42.1143H21.153C15.4982 42.1143 14.7919 42.0841 12.5619 41.9842C10.8283 41.927 9.11718 41.5733 7.50215 40.9384C6.11753 40.4006 4.85992 39.5788 3.80967 38.5256C2.75942 37.4724 1.93963 36.2109 1.40268 34.8217C0.793656 33.1926 0.467147 31.4775 0.432412 29.7391C0.302734 27.5174 0.302734 26.7923 0.302734 21.1172C0.302734 15.442 0.332838 14.7332 0.432412 12.4952C0.465116 10.7594 0.793265 9.04205 1.40268 7.41727C1.93873 6.02767 2.75791 4.76566 3.80781 3.71199C4.8577 2.65833 6.1152 1.83621 7.49983 1.29823C9.11929 0.688108 10.8301 0.35807 12.5596 0.322155C14.771 0.194336 15.4958 0.194336 21.1507 0.194336C26.8056 0.194336 27.5118 0.222224 29.7395 0.322155C31.4697 0.357808 33.1814 0.68785 34.8016 1.29823C36.186 1.83658 37.4433 2.65883 38.4931 3.71245C39.543 4.76607 40.3623 6.02789 40.8987 7.41727ZM10.4315 21.1055C10.4315 27.041 15.2226 31.8493 21.1368 31.8493C23.976 31.8493 26.699 30.7174 28.7066 28.7025C30.7143 26.6877 31.8421 23.955 31.8421 21.1055C31.8421 18.2561 30.7143 15.5234 28.7066 13.5085C26.699 11.4937 23.976 10.3618 21.1368 10.3618C15.2226 10.3618 10.4315 15.1701 10.4315 21.1055ZM31.3126 12.2795C31.6156 12.4053 31.9403 12.4699 32.2682 12.4696C33.6461 12.4696 34.7622 11.3495 34.7622 9.96436C34.7622 9.63552 34.6977 9.3099 34.5723 9.00609C34.4469 8.70228 34.2631 8.42623 34.0314 8.1937C33.7997 7.96117 33.5246 7.77672 33.2219 7.65088C32.9192 7.52504 32.5947 7.46027 32.2671 7.46027C31.9394 7.46027 31.615 7.52504 31.3122 7.65088C31.0095 7.77672 30.7344 7.96117 30.5027 8.1937C30.2711 8.42623 30.0873 8.70228 29.9619 9.00609C29.8365 9.3099 29.7719 9.63552 29.7719 9.96436C29.7716 10.2934 29.836 10.6194 29.9613 10.9234C30.0867 11.2275 30.2705 11.5038 30.5024 11.7365C30.7343 11.9692 31.0096 12.1537 31.3126 12.2795ZM28.0906 21.1053C28.0906 24.9595 24.9772 28.0838 21.1366 28.0838C17.296 28.0838 14.1826 24.9595 14.1826 21.1053C14.1826 17.2512 17.296 14.1268 21.1366 14.1268C24.9772 14.1268 28.0906 17.2512 28.0906 21.1053Z" fill="white"/>
</svg>
