<svg width="30" height="29" viewBox="0 0 30 29" fill="none" xmlns="http://www.w3.org/2000/svg">
<g id="&#240;&#159;&#166;&#134; icon &#34;phone iphone&#34;">
<path id="Vector" d="M19.374 1.1875H9.37402C7.64902 1.1875 6.24902 2.5175 6.24902 4.15625V24.3438C6.24902 25.9825 7.64902 27.3125 9.37402 27.3125H19.374C21.099 27.3125 22.499 25.9825 22.499 24.3438V4.15625C22.499 2.5175 21.099 1.1875 19.374 1.1875ZM14.374 26.125C13.3365 26.125 12.499 25.3294 12.499 24.3438C12.499 23.3581 13.3365 22.5625 14.374 22.5625C15.4115 22.5625 16.249 23.3581 16.249 24.3438C16.249 25.3294 15.4115 26.125 14.374 26.125ZM19.999 21.375H8.74902V4.75H19.999V21.375Z" fill="#DF9832"/>
</g>
</svg>
