<svg width="26" height="22" viewBox="0 0 26 22" fill="none" xmlns="http://www.w3.org/2000/svg">
<g id="Layer_1" clip-path="url(#clip0_1_1199)">
<g id="bfN6yz.tif">
<path id="Vector" d="M10.2896 8.94326C10.6966 10.5831 11.9394 11.2135 13.3097 11.5597C14.8989 11.9614 16.5229 12.2596 18.1495 12.4832C22.4097 13.0681 24.8631 15.4925 25.8264 19.515C26.1355 20.8061 25.735 21.7069 24.697 21.952C23.6873 22.1908 22.8837 21.53 22.6029 20.2288C22.0762 17.7842 22.0981 17.8183 19.9409 19.0968C16.3375 21.2306 12.5769 20.7063 8.91936 19.3798C2.78655 17.1563 -0.773105 11.0682 0.141279 4.70472C0.27908 3.7471 0.366655 2.77432 0.615213 1.84449C1.07756 0.113702 2.69769 -0.576088 4.08343 0.548295C6.47886 2.49133 9.1486 2.47996 11.9626 2.12243C15.9331 1.61835 19.5958 2.11738 22.3247 5.38946C23.8109 7.17204 24.5502 9.21741 24.4201 11.5369C24.3905 12.0524 24.3686 12.7409 23.583 12.3455C21.1554 11.1225 18.5255 11.024 15.897 10.8509C13.8738 10.7183 11.8544 10.5515 10.2896 8.94326Z" fill="#1E1C1C"/>
</g>
</g>
<defs>
<clipPath id="clip0_1_1199">
<rect width="25.9286" height="22" fill="white"/>
</clipPath>
</defs>
</svg>
