<svg width="20" height="20" viewBox="0 0 20 20" fill="none" xmlns="http://www.w3.org/2000/svg">
<g id="linkedin">
<path id="Union" d="M7.30597 6.12955C7.30582 6.42898 7.18403 6.71608 6.9674 6.9277C6.75077 7.13932 6.45703 7.25813 6.15082 7.25798C5.84461 7.25783 5.551 7.13874 5.33458 6.92691C5.11817 6.71507 4.99667 6.42785 4.99683 6.12842C4.99698 5.829 5.11877 5.54189 5.3354 5.33027C5.55203 5.11865 5.84577 4.99985 6.15198 5C6.45819 5.00015 6.7518 5.11924 6.96822 5.33107C7.18463 5.5429 7.30613 5.83013 7.30597 6.12955ZM7.34061 8.09399H5.03146V15.1615H7.34061V8.09399ZM10.9891 8.09399H8.69146V15.1615H10.966V11.4527C10.966 9.38669 13.7196 9.19476 13.7196 11.4527V15.1615H15.9999V10.685C15.9999 7.20209 11.9243 7.33193 10.966 9.04235L10.9891 8.09399Z" fill="#FFFCF4"/>
</g>
</svg>
