<svg width="30" height="30" viewBox="0 0 30 30" fill="none" xmlns="http://www.w3.org/2000/svg">
<g id="&#240;&#159;&#166;&#134; icon &#34;location pin&#34;">
<path id="Vector" d="M14.9988 2.5C10.1613 2.5 6.24878 6.4125 6.24878 11.25C6.24878 13.425 6.87378 15.4625 8.01128 17.3C9.19878 19.225 10.7613 20.875 11.9613 22.8C12.5488 23.7375 12.9738 24.6125 13.4238 25.625C13.7488 26.3125 14.0113 27.5 14.9988 27.5C15.9863 27.5 16.2488 26.3125 16.5613 25.625C17.0238 24.6125 17.4363 23.7375 18.0238 22.8C19.2238 20.8875 20.7863 19.2375 21.9738 17.3C23.1238 15.4625 23.7488 13.425 23.7488 11.25C23.7488 6.4125 19.8363 2.5 14.9988 2.5ZM14.9988 14.6875C13.2738 14.6875 11.8738 13.2875 11.8738 11.5625C11.8738 9.8375 13.2738 8.4375 14.9988 8.4375C16.7238 8.4375 18.1238 9.8375 18.1238 11.5625C18.1238 13.2875 16.7238 14.6875 14.9988 14.6875Z" fill="#DF9832"/>
</g>
</svg>
