<svg width="160" height="72" viewBox="0 0 160 72" fill="none" xmlns="http://www.w3.org/2000/svg">
<g id="Layer_1" clip-path="url(#clip0_1_1307)">
<path id="Vector" d="M47.7018 61.4281C49.0508 60.0222 50.3581 58.6371 51.6947 57.2812C52.3838 56.5844 53.1022 55.9169 53.9501 55.3996C54.6476 54.9741 55.2908 55.1743 55.7293 55.5748C56.0509 55.8669 56.1011 56.6512 55.8129 57.1769C55.1279 58.4368 54.4053 59.6717 53.7412 60.9442C53.2024 61.9788 52.7012 63.0385 52.3713 64.1649C52.246 64.5863 52.2752 65.0285 52.3253 65.4582C52.3629 65.7628 52.5509 65.8588 52.8683 65.7169C53.4531 65.4457 53.9125 65.016 54.3845 64.6072C55.3451 63.7769 56.2264 62.8674 57.0492 61.8995C57.4167 61.4657 57.5128 60.9191 57.7425 60.431C58.6572 58.4869 59.6721 56.6095 61.2509 55.0992C61.6978 54.6695 62.2157 54.3608 62.8172 54.2231C63.2682 54.1188 63.6734 54.294 64.0159 54.561C64.7426 55.1284 64.9681 55.9211 64.9681 56.8139C64.9681 57.64 65.2772 57.9028 66.0708 57.7359C67.0147 57.5398 67.9336 57.2853 68.7731 56.7722C69.2409 56.4885 69.5667 56.0713 69.93 55.6875C70.5649 55.0158 71.254 54.4234 72.127 54.1146C72.9748 53.8143 74.1568 53.8226 74.7541 54.5527C74.9546 54.7988 75.0632 55.0492 75.1342 55.3412C75.3681 56.3091 74.8251 57.7609 74.0649 58.2741C73.6807 58.5328 73.2672 58.4952 72.8579 58.4243C72.5739 58.3784 72.4987 58.1197 72.482 57.8486C72.4527 57.3938 72.6657 57.0058 72.7994 56.597C72.8621 56.4092 73.0249 56.1839 72.8412 56.0421C72.6699 55.9086 72.4611 56.1005 72.3191 56.2173C70.9617 57.3354 69.7588 58.5912 68.9235 60.1598C68.3805 61.182 67.921 62.25 67.9628 63.4098C68.0046 64.5696 68.6394 65.2246 70.0219 64.7532C71.5548 64.2317 72.7159 63.1845 73.8979 62.154C74.6121 61.5282 75.2302 60.8148 75.8609 60.1139C76.2744 59.655 76.4289 59.0668 76.6712 58.5286C77.5692 56.5636 78.6927 54.7488 80.2339 53.2177C80.685 52.7671 81.207 52.4041 81.8795 52.4C83.1617 52.3874 83.5 52.9173 83.6546 54.0312C83.7047 54.39 83.6546 54.7655 83.6504 55.1326C83.642 55.6458 83.8676 55.871 84.3521 55.7501C85.1206 55.5581 85.8724 55.3203 86.5574 54.8865C87.2215 54.4651 87.6099 53.8476 87.9023 53.1593C89.0216 50.5393 90.2203 47.9568 91.8868 45.633C92.2209 45.1657 92.601 44.6192 93.3069 44.6776C94.2383 44.7569 94.7228 45.2116 94.184 46.1795C92.6845 48.8705 91.2018 51.5656 89.8528 54.3358C89.1093 55.8585 88.37 57.3771 87.7602 58.9541C87.4303 59.8094 87.046 60.6605 87.0586 61.62C87.0753 62.6505 87.7018 63.0677 88.629 62.6046C90.2621 61.7911 91.5903 60.5979 92.743 59.2003C93.0521 58.8248 93.098 58.345 93.2693 57.9153C93.996 56.1047 95.1321 54.5777 96.4519 53.1718C97.2956 52.2706 98.2312 51.4654 99.3547 50.9314C99.952 50.6477 100.578 50.3974 101.276 50.5393C101.702 50.6269 102.028 50.8688 102.186 51.2485C102.312 51.5489 102.483 51.624 102.788 51.6365C103.732 51.674 104.275 52.5084 103.878 53.3553C103.302 54.5861 102.688 55.8043 102.065 57.0142C101.623 57.8778 101.401 58.8123 101.151 59.7385C101.038 60.164 101.255 60.577 101.568 60.8524C101.865 61.1152 102.203 60.9066 102.491 60.7356C103.469 60.1598 104.208 59.3213 104.931 58.4744C105.34 57.9904 105.707 57.4731 106.129 56.9975C106.768 56.2799 106.977 55.3746 107.282 54.5068C107.491 53.9227 107.725 53.347 107.95 52.7713C107.98 52.6962 108.051 52.6252 108.055 52.5501C108.071 52.2289 108.422 51.9536 108.305 51.6657C108.188 51.3862 107.775 51.4988 107.512 51.357C107.228 51.2026 107.119 50.9606 107.094 50.6811C107.061 50.3056 107.295 50.0511 107.599 49.8926C107.896 49.7382 108.213 49.6214 108.56 49.6548C109.27 49.7257 109.704 49.4128 109.993 48.762C110.398 47.8483 110.953 47.0223 111.534 46.2046C111.751 45.8958 111.989 45.5871 112.415 45.6789C112.921 45.7874 113.405 45.9793 113.689 46.4632C113.773 46.6092 113.681 46.7344 113.626 46.8763C113.351 47.6105 112.908 48.2447 112.507 48.908C112.436 49.0248 112.327 49.1291 112.428 49.2626C112.507 49.3711 112.637 49.3294 112.753 49.321C113.835 49.2251 114.921 49.1834 115.99 49.0207C116.65 48.9205 117.31 48.8663 117.97 48.7745C118.141 48.7495 118.371 48.6702 118.438 48.9205C118.496 49.1458 118.254 49.1917 118.125 49.2459C117.202 49.6256 116.233 49.8634 115.268 50.1137C114.311 50.3599 113.342 50.5768 112.386 50.8355C112.023 50.9356 111.642 50.9648 111.283 51.1066C110.978 51.2235 110.744 51.3862 110.611 51.6532C109.646 53.5514 108.727 55.4664 108.113 57.5106C107.925 58.1323 107.854 58.7622 107.796 59.4131C107.708 60.3184 108.84 60.8899 109.546 60.5562C110.628 60.043 111.58 59.3713 112.419 58.5202C112.992 57.9403 113.497 57.302 114.002 56.6679C114.24 56.3675 114.499 56.1297 114.955 56.1547C115.422 56.1839 115.431 55.6916 115.548 55.4038C116.5 53.0967 117.828 51.0774 119.871 49.5797C120.439 49.1625 121.061 48.8663 121.779 48.7787C123.35 48.5868 123.976 49.588 123.847 50.9106C123.713 52.2539 122.874 53.2218 121.934 54.0687C120.844 55.0492 119.616 55.8418 118.217 56.3258C118.137 56.355 118.062 56.3925 117.987 56.4217C117.703 56.5302 117.273 56.3383 117.135 56.7054C116.922 57.2645 116.801 57.8569 116.972 58.466C117.256 59.4673 117.765 59.7218 118.384 59.6675C118.805 59.63 119.227 59.4923 119.616 59.2795C121.32 58.3367 122.757 57.0559 124.089 55.6624C125.605 54.0813 126.887 52.304 128.203 50.5601C129.314 49.0916 130.258 47.5062 131.423 46.0752C131.833 45.5746 132.313 45.4828 132.864 45.8207C133.424 46.1628 133.633 46.6927 133.357 47.2309C132.693 48.5158 132.426 49.8801 132.505 51.3111C132.576 52.5668 132.388 53.8101 132.263 55.045C132.154 56.1631 131.887 57.2979 131.231 58.2699C130.638 59.1502 129.824 59.6508 128.729 59.6634C127.994 59.6717 127.251 59.7552 126.658 59.1919C126.131 58.6913 125.739 58.0905 125.467 57.423C124.991 56.2382 124.949 56.209 124.072 57.0934C123.041 58.1364 121.984 59.1377 120.71 59.8761C119.841 60.3809 118.981 60.8607 117.907 60.8649C116.583 60.8649 114.808 59.5799 114.967 57.8694C114.988 57.64 115.138 57.2853 114.884 57.1852C114.637 57.0893 114.587 57.4731 114.441 57.6316C113.443 58.7414 112.449 59.8553 111.187 60.6855C110.427 61.1861 109.6 61.5783 108.702 61.5908C107.428 61.6117 106.472 60.6521 106.309 59.3713C106.292 59.2545 106.296 59.1377 106.284 59.0209C106.267 58.879 106.338 58.6871 106.154 58.6287C105.954 58.562 105.874 58.7539 105.77 58.8832C105.24 59.5466 104.684 60.1807 104.049 60.7439C103.556 61.182 103.064 61.6284 102.429 61.8703C100.938 62.4377 99.7389 61.7452 99.3965 60.3434C99.3547 60.1765 99.4382 59.9345 99.1918 59.8845C98.9454 59.8344 98.866 60.0722 98.7533 60.2266C97.9973 61.2779 97.187 62.275 96.1178 63.0385C95.6583 63.3681 95.1237 63.3389 94.6852 63.172C93.7329 62.8049 92.9477 62.2124 92.6762 61.1277C92.5718 60.7022 92.3379 60.9901 92.2209 61.111C91.6988 61.6451 91.1141 62.1081 90.5336 62.5712C89.9822 63.0135 89.4142 63.4307 88.7334 63.6852C87.5514 64.1316 86.595 63.7144 85.9726 62.8591C85.342 61.9913 85.1791 61.0401 85.4297 60.0096C85.7137 58.8457 86.0896 57.7067 86.5407 56.5928C86.6075 56.4217 86.6868 56.2507 86.7244 56.0755C86.7578 55.9211 86.9291 55.7417 86.7913 55.6124C86.6075 55.433 86.4571 55.6666 86.3151 55.7501C85.626 56.1673 84.9076 56.5094 84.1182 56.6804C83.8342 56.743 83.6922 56.864 83.6462 57.1644C83.358 59.1043 82.4225 60.7731 81.3532 62.3668C80.7434 63.2805 80.0209 64.1065 79.0018 64.5821C77.4439 65.3039 76.0823 64.5821 75.7022 63.0009C75.627 62.6839 75.6312 62.1958 75.3973 62.1081C75.0924 61.9997 74.917 62.4711 74.6914 62.688C73.3591 63.973 71.9223 65.0953 70.2015 65.8254C68.464 66.5638 66.3631 65.3331 66.1919 63.4557C66.1209 62.7047 66.3089 61.9997 66.5344 61.2988C66.8685 60.2725 67.328 59.3004 67.8709 58.3701C67.9545 58.2324 68.0463 58.0989 67.9545 57.9654C67.8333 57.7902 67.7206 57.9904 67.6161 58.028C66.8727 58.3158 66.1376 58.6287 65.3273 58.6663C65.1227 58.6746 65.0099 58.8165 64.9598 59.0209C64.35 61.6075 63.0135 63.7978 61.2384 65.7336C60.7455 66.2718 60.1399 66.6347 59.3923 66.835C58.1518 67.1688 57.3457 66.2301 56.9823 65.3915C56.8069 64.9826 56.69 64.5446 56.7317 64.0857C56.7443 63.9605 56.7693 63.7686 56.6148 63.7436C56.5146 63.7269 56.3684 63.8353 56.2807 63.923C55.6876 64.5321 55.1154 65.1579 54.5139 65.7628C54.1046 66.1758 53.6494 66.5346 53.1774 66.8767C52.2251 67.5734 50.9972 66.8934 50.6004 66.0507C50.1284 65.0494 50.1618 64.0648 50.4834 63.0468C50.9721 61.4907 51.7114 60.0472 52.4047 58.5787C52.4715 58.4368 52.6386 58.2658 52.4548 58.1364C52.317 58.0405 52.1833 58.2073 52.0706 58.3033C51.0515 59.1961 50.1827 60.2266 49.3474 61.2863C48.3116 62.5921 47.3008 63.9104 46.5365 65.3998C46.1063 66.2342 45.6803 67.0728 45.2334 67.8989C44.9368 68.4496 44.4064 68.5997 43.8342 68.3286C43.4624 68.1533 43.3288 67.6193 43.4374 67.1187C43.571 66.5179 43.8592 65.9756 44.0555 65.3998C44.0973 65.2747 44.1767 65.137 44.0347 65.041C43.9052 64.9576 43.8342 65.0869 43.7465 65.162C41.9296 66.7849 39.9875 68.2368 37.8574 69.4216C36.4582 70.2018 34.9963 70.8359 33.4718 71.3532C31.6801 71.9582 29.8423 72.0917 28.0171 71.8789C26.3673 71.687 24.8595 70.9653 23.6024 69.8054C22.2867 68.5914 21.3595 67.1187 20.7915 65.4416C19.9102 62.8424 19.8225 60.164 20.1107 57.448C20.2193 56.4509 20.4573 55.4789 20.6035 54.4901C20.7038 53.8143 20.9752 53.1634 21.1841 52.5084C21.6727 50.969 22.2867 49.4754 23.026 48.0402C24.1119 45.925 25.3607 43.91 26.9228 42.0993C27.7582 41.1273 28.6478 40.2136 29.6293 39.3917C29.9384 39.1331 29.9467 38.9495 29.6251 38.695C28.0881 37.4851 27.2402 35.8497 26.668 34.014C26.0666 32.0782 25.9872 30.0924 25.9789 28.0982C25.9664 24.1431 25.9831 20.1881 25.9705 16.2331C25.9664 14.7312 25.9455 13.2209 26.1042 11.7315C26.3715 9.22833 26.9145 6.80441 28.6937 4.85609C29.6168 3.84647 30.7654 3.19982 32.056 2.83686C34.587 2.12762 37.139 2.28615 39.6951 2.74924C40.7476 2.94116 41.7792 3.18313 42.7775 3.56695C43.0239 3.66291 43.262 3.58781 43.5042 3.49603C44.1265 3.2624 44.7447 3.01208 45.438 3.04963C45.7429 3.06631 45.8432 3.17061 45.8432 3.46682C45.839 6.33715 45.839 9.20747 45.8432 12.0778C45.8432 12.3657 45.7638 12.4866 45.4464 12.4992C44.4189 12.5367 44.4147 12.5075 44.2435 11.477C43.9428 9.66221 43.1743 8.08938 41.654 6.96294C40.4636 6.07848 39.0936 5.84902 37.6485 5.90743C35.2971 5.99921 33.8477 7.29253 32.979 9.37434C32.5989 10.288 32.4026 11.2392 32.4026 12.228C32.4026 18.4526 32.3859 24.6772 32.411 30.9018C32.4193 32.7166 32.9498 34.3687 34.2028 35.7496C34.4325 36.0041 34.658 36.0249 34.8961 35.8914C36.099 35.2239 37.3896 34.7608 38.7052 34.4062C39.8496 34.0975 41.0275 33.8096 42.2345 33.9348C42.7023 33.9848 42.9237 33.7929 43.0615 33.3757C43.4541 32.2201 43.7214 31.0394 43.6713 29.817C43.6504 29.2914 43.83 29.1579 44.3187 29.1954C44.8992 29.2371 45.4881 29.2163 46.0729 29.1996C46.3527 29.1912 46.4571 29.283 46.4613 29.5667C46.4864 30.9852 46.4279 32.3953 46.0687 33.7762C45.8933 34.4563 45.9058 34.4396 46.5574 34.7733C47.8772 35.4534 48.8629 36.4713 49.5395 37.7939C50.3832 39.4418 50.5085 41.1982 50.3874 43.0005C50.166 46.3464 48.3074 48.7662 45.9392 50.9022C44.9452 51.8034 43.7924 52.4625 42.5185 52.8338C41.6414 53.0883 40.7184 53.3804 39.787 53.2761C38.2082 53.1008 36.6754 52.717 35.5477 51.4946C34.4742 50.3307 34.0608 48.9831 34.3448 47.3602C34.658 45.5621 35.6061 44.1728 36.8007 42.892C37.0053 42.6709 37.306 42.3205 37.59 42.6042C37.8699 42.8795 37.6569 43.2508 37.3896 43.522C36.5668 44.348 35.8985 45.2992 35.5769 46.4048C35.2093 47.6731 35.0381 49.0081 35.815 50.218C36.6503 51.5155 38.4463 52.0912 39.9707 51.7157C42.2637 51.1525 43.9261 49.7424 45.3294 47.9401C45.9016 47.2058 46.4864 46.4632 46.8497 45.6038C47.3509 44.4273 47.8104 43.2508 47.8981 41.9241C47.9524 41.1356 47.9357 40.3721 47.8312 39.6128C47.6349 38.161 47.0669 36.8885 45.8097 36.0124C45.5424 35.8247 45.413 35.8789 45.2751 36.1501C44.5066 37.6353 43.4123 38.8035 41.9171 39.5878C40.8562 40.1427 39.7285 40.5056 38.5549 40.6266C36.525 40.8352 34.4742 40.9228 32.507 40.2345C31.9515 40.0384 31.7051 40.2345 31.3752 40.5599C29.6711 42.2537 28.2802 44.177 27.0231 46.2129C26.1668 47.5938 25.4192 49.029 24.7802 50.5184C23.2599 54.0479 22.2742 57.6984 22.7294 61.5783C22.9926 63.8103 23.8237 65.8254 25.6113 67.3273C26.8476 68.3619 28.2844 68.9377 29.8883 69.0461C31.8179 69.1755 33.6932 68.9043 35.5518 68.3286C37.8281 67.6235 39.929 66.6014 41.8377 65.1912C43.3497 64.0731 44.6779 62.7506 45.7429 61.1945C46.2901 60.3976 46.5824 59.4589 46.9625 58.5745C47.3384 57.6984 47.7143 56.8264 48.1111 55.9628C48.9381 54.173 49.7567 52.3791 50.6213 50.606C51.6362 48.5325 52.6804 46.4716 53.9918 44.5608C54.113 44.3856 54.2633 44.2312 54.4137 44.0769C54.7269 43.764 55.0861 43.6597 55.4787 43.9183C55.9006 44.1895 55.9716 44.5525 55.7669 45.0531C54.8397 47.356 53.5867 49.4921 52.4381 51.6824C51.277 53.8977 50.0783 56.0963 48.9172 58.3158C48.4745 59.1586 48.0819 60.0305 47.6642 60.8858C47.589 61.0401 47.5472 61.1987 47.6934 61.4073L47.7018 61.4281ZM94.4179 60.7815C94.4179 60.9817 94.3928 61.1861 94.422 61.378C94.4889 61.8245 94.9441 62.2083 95.2783 62.0581C95.604 61.9121 95.9632 61.837 96.2514 61.5866C96.7819 61.1236 97.2496 60.6104 97.6631 60.0514C99.3672 57.7568 100.566 55.1785 101.819 52.6294C101.978 52.304 101.773 52.2372 101.598 52.1622C101.414 52.0871 101.197 52.1037 101.009 52.1872C100.42 52.4417 99.8726 52.7754 99.3672 53.1676C97.8887 54.3107 96.7443 55.7459 95.7293 57.2937C95.0318 58.3534 94.5265 59.4965 94.4137 60.7815H94.4179ZM130.793 50.0803C130.793 49.7466 130.797 49.4128 130.793 49.0791C130.793 48.9497 130.793 48.7954 130.63 48.7495C130.479 48.7036 130.383 48.7995 130.295 48.908C130.02 49.2626 129.736 49.6089 129.456 49.9635C128.291 51.4529 127.171 52.9757 126.328 54.6779C126.169 54.9991 126.19 55.2661 126.278 55.579C126.545 56.5302 127.184 57.0601 128.115 57.3062C128.629 57.4439 129.502 57.1518 129.828 56.7263C130.245 56.1839 130.27 55.5164 130.408 54.8948C130.755 53.3094 130.617 51.6782 130.797 50.0762L130.793 50.0803ZM77.3937 62.2124C77.3937 62.7923 77.6151 63.3347 77.8699 63.4432C78.2708 63.6101 78.5674 63.3681 78.8598 63.147C78.9934 63.0468 79.1312 62.9551 79.2524 62.8424C80.5597 61.6075 81.4409 60.0806 82.2053 58.4785C82.6188 57.6191 82.8777 56.768 81.8335 56.1297C81.821 56.1214 81.8127 56.1047 81.8043 56.088C81.2864 55.458 81.1569 55.4455 80.5722 56.0546C79.5238 57.1393 78.8013 58.4368 78.1748 59.7927C77.7989 60.6062 77.519 61.4531 77.3937 62.2124ZM63.7235 59.1127C63.7694 58.9458 63.6525 58.7414 63.4604 58.5536C63.2474 58.345 63.0427 58.1239 62.8422 57.9028C62.4663 57.4898 62.2533 57.4981 61.8523 57.8903C60.6119 59.1085 59.8225 60.6146 59.1166 62.1666C58.7532 62.9676 58.5194 63.8145 58.6196 64.724C58.6906 65.3998 59.0874 65.6418 59.6763 65.3247C59.9687 65.1662 60.236 64.9785 60.4782 64.749C61.4556 63.8145 62.1572 62.6755 62.8172 61.5199C63.2223 60.8107 63.6149 60.0681 63.7235 59.1127ZM121.921 50.3307C121.524 50.3974 121.119 50.6352 120.781 50.9481C119.482 52.1371 118.363 53.4638 117.623 55.0825C117.561 55.2202 117.444 55.3537 117.569 55.4872C117.703 55.6291 117.882 55.5665 118.033 55.4914C120.054 54.5235 121.708 53.201 122.435 50.9731C122.552 50.6102 122.381 50.3432 121.921 50.3307ZM37.7864 37.2056C39.3777 37.264 40.6515 36.5923 41.7458 35.5034C41.8335 35.4158 41.9171 35.3199 41.8461 35.2031C41.8168 35.153 41.6832 35.1238 41.6247 35.1488C41.1695 35.3449 40.6683 35.2448 40.2088 35.3825C39.3902 35.6286 38.5799 35.8831 37.7738 36.1668C37.3854 36.3045 37.0137 36.5047 36.6461 36.6883C36.5292 36.7467 36.3997 36.8552 36.4373 36.997C36.4707 37.1263 36.6294 37.1013 36.7422 37.1138C37.0888 37.1472 37.4397 37.1722 37.7864 37.2056Z" fill="#FFFCF4"/>
<path id="Vector_2" d="M82.8862 13.075C82.7358 13.4255 82.7817 13.6758 82.7817 13.9178C82.7817 21.394 82.7817 28.8702 82.7817 36.3422C82.7817 37.3351 83.2621 37.9943 84.206 38.303C84.4399 38.3781 84.678 38.4657 84.9202 38.5158C85.5843 38.6618 85.8641 39.2 85.601 39.8258C85.5216 40.0177 85.3755 40.0427 85.2 40.0427C82.3265 40.0427 79.4529 40.0427 76.5794 40.0427C76.262 40.0427 76.1367 39.8967 76.1199 39.588C76.0657 38.6868 76.0698 38.6993 76.9386 38.5074C77.4857 38.3864 78.0329 38.2154 78.4881 37.8775C79.0019 37.4978 79.194 36.9596 79.194 36.3171C79.1856 27.7896 79.1898 19.2621 79.1898 10.7387C79.1898 9.77084 79.219 8.80294 79.1815 7.83504C79.123 6.37068 78.5717 5.14412 77.2101 4.45991C76.7799 4.24297 76.6796 4.01768 76.6838 3.59214C76.6838 3.1958 76.8216 3.07065 77.2101 3.07482C78.3962 3.09151 79.5824 3.07899 80.7686 3.07899C82.0884 3.07899 83.4082 3.07899 84.7281 3.07899C85.7347 3.07899 85.7138 3.08733 86.1147 3.99265C87.0169 6.01606 87.9483 8.03113 88.8588 10.0545C89.8612 12.274 90.8469 14.4977 91.8493 16.713C92.5468 18.2483 93.2735 19.7669 93.9752 21.3022C94.9233 23.3882 95.8631 25.4783 96.7945 27.5727C96.8697 27.7395 96.949 27.8897 97.0952 28.0608C97.2163 27.8522 97.1704 27.6686 97.1704 27.4976C97.1704 20.6222 97.1537 13.7467 97.1913 6.87549C97.1996 5.61555 96.4311 5.13577 95.6626 4.8187C95.3285 4.68103 94.9818 4.54753 94.6268 4.48077C94.2801 4.41819 94.1924 4.25132 94.2384 3.93842C94.2509 3.84246 94.2509 3.73816 94.2384 3.63803C94.1757 3.20832 94.3344 3.06647 94.7855 3.07065C97.5421 3.09151 100.299 3.07899 103.055 3.08316C103.31 3.08316 103.678 3.01641 103.644 3.41692C103.611 3.77988 103.962 4.28886 103.26 4.46826C102.646 4.62679 102.028 4.78533 101.464 5.14412C100.842 5.54046 100.604 6.06613 100.604 6.74199C100.604 12.2323 100.604 17.7226 100.604 23.213C100.604 28.6699 100.604 34.1268 100.604 39.5838C100.604 40.0344 100.375 40.261 99.9186 40.2638C98.5153 40.2638 97.1119 40.2513 95.7085 40.2722C95.3243 40.2763 95.1071 40.1512 94.9484 39.7882C94.1214 37.89 93.2777 36.0001 92.4257 34.1143C91.44 31.9282 90.4334 29.7463 89.4435 27.5602C88.3325 25.107 87.2383 22.6456 86.1273 20.1883C85.3086 18.3818 84.4733 16.5837 83.6505 14.7814C83.4041 14.2432 83.1785 13.7008 82.9029 13.0709L82.8862 13.075Z" fill="#FFFCF4"/>
<path id="Vector_3" d="M50.3916 21.5484C50.3916 18.4111 50.3415 15.2779 50.4083 12.1406C50.4543 10.0421 51.1142 8.08541 52.363 6.37907C53.4406 4.89802 54.8857 3.88423 56.6065 3.22506C58.8369 2.37397 61.1466 2.25716 63.4604 2.48662C65.9289 2.73276 68.2093 3.53378 70.0136 5.36528C71.1288 6.49589 71.8639 7.8184 72.3275 9.337C72.7744 10.8055 72.9123 12.2908 72.9081 13.8094C72.8997 19.3289 72.9457 24.8526 72.8788 30.3721C72.8454 33.2716 72.0059 35.9292 69.8215 37.9985C68.4098 39.3335 66.7015 40.1262 64.8053 40.485C62.3494 40.9481 59.881 40.9523 57.4669 40.2472C54.9066 39.4962 52.8684 38.0277 51.6196 35.5913C50.7132 33.8182 50.3499 31.9324 50.354 29.9591C50.3582 27.1555 50.354 24.3561 50.354 21.5526C50.3666 21.5526 50.3749 21.5526 50.3875 21.5526L50.3916 21.5484ZM66.4426 21.5818C66.4426 18.4444 66.4551 15.3071 66.4342 12.1698C66.4301 11.1435 66.3799 10.1297 66.0124 9.12841C65.3316 7.30108 63.8489 5.83672 61.5058 5.91598C59.9395 5.97022 58.7617 6.60436 57.8679 7.88933C57.0367 9.08251 56.8028 10.4384 56.7986 11.8193C56.7652 18.3109 56.7694 24.8025 56.7986 31.2941C56.8028 32.5415 56.995 33.7765 57.6507 34.8904C58.9455 37.089 60.896 37.5437 62.9718 37.0306C64.7552 36.5884 65.6866 35.1782 66.1962 33.4677C66.4468 32.6208 66.4342 31.753 66.4384 30.8936C66.4593 27.7897 66.4468 24.6857 66.4468 21.5818H66.4426Z" fill="#FFFCF4"/>
<path id="Vector_4" d="M153.731 42.2871C151.826 42.2871 149.922 42.2788 148.017 42.2954C147.646 42.2954 147.533 42.1953 147.537 41.8198C147.549 40.8311 147.537 40.8311 148.447 40.5224C148.681 40.4431 148.919 40.3555 149.141 40.2428C149.767 39.9258 150.047 39.4668 149.926 38.7743C149.738 37.6979 149.504 36.6257 149.233 35.566C148.978 34.5731 148.777 33.5677 148.552 32.5706C148.356 31.6986 148.155 30.8308 147.95 29.9589C147.884 29.671 147.633 29.7628 147.453 29.7628C146.267 29.7503 145.081 29.7586 143.895 29.7586C142.207 29.7586 140.52 29.7837 138.833 29.7461C138.302 29.7336 138.127 29.9756 138.052 30.4136C137.768 32.0532 137.325 33.6594 136.937 35.274C136.719 36.1793 136.527 37.093 136.335 38.0025C136.289 38.2111 136.26 38.4197 136.181 38.6241C135.959 39.1831 136.252 39.9049 136.815 40.2595C137.2 40.5015 137.605 40.6934 138.064 40.7435C138.432 40.7852 138.595 40.9771 138.553 41.3484C138.536 41.4986 138.54 41.6488 138.553 41.799C138.574 42.1494 138.444 42.2996 138.064 42.2996C135.04 42.2871 132.016 42.2871 128.997 42.2996C128.658 42.2996 128.491 42.2037 128.516 41.8532C128.525 41.7364 128.529 41.6196 128.516 41.5028C128.433 40.9688 128.7 40.7977 129.197 40.7059C130.325 40.4931 131.369 40.076 131.833 38.9078C132.075 38.2987 132.183 37.6353 132.338 36.997C132.597 35.9207 132.893 34.8526 133.081 33.7637C133.261 32.7249 133.562 31.7195 133.75 30.6848C133.933 29.6919 134.276 28.7282 134.468 27.7352C134.598 27.0552 134.765 26.3877 134.907 25.7118C135.12 24.6772 135.37 23.6467 135.596 22.6162C135.771 21.8069 135.98 21.0058 136.147 20.1965C136.456 18.6862 136.853 17.1926 137.175 15.6824C137.467 14.3015 137.826 12.9331 138.089 11.5438C138.382 9.98764 138.824 8.45653 139.184 6.91289C139.426 5.86573 139.63 4.81439 139.86 3.76305C140.056 2.86607 140.257 1.9691 140.462 1.0763C140.528 0.788429 140.775 0.871868 140.954 0.871868C142.592 0.863524 144.229 0.867696 145.866 0.867696C146.468 0.867696 147.069 0.8969 147.671 0.859352C148.109 0.830149 148.264 1.04292 148.339 1.41005C148.69 3.1456 149.149 4.85611 149.5 6.58748C149.888 8.51076 150.339 10.4215 150.774 12.3365C151.129 13.9051 151.43 15.4863 151.839 17.0425C152.194 18.3858 152.378 19.7709 152.737 21.1101C153 22.0989 153.18 23.1043 153.422 24.0931C153.601 24.8357 153.773 25.5908 153.923 26.346C154.107 27.293 154.345 28.2317 154.554 29.1746C154.779 30.2092 155.034 31.2355 155.276 32.266C155.594 33.6177 155.932 34.9653 156.224 36.3212C156.35 36.9052 156.513 37.4893 156.588 38.0776C156.751 39.3625 157.523 40.0467 158.659 40.4473C158.893 40.5307 159.144 40.5808 159.378 40.6684C159.582 40.7476 159.942 40.5891 159.983 40.8728C160.046 41.3109 160.025 41.7698 159.967 42.212C159.946 42.3789 159.674 42.2996 159.516 42.2996C157.594 42.3038 155.673 42.2996 153.752 42.2996L153.731 42.2871ZM143.105 25.8704C143.105 25.8704 143.105 25.8829 143.105 25.8871C144.292 25.8871 145.478 25.8787 146.664 25.8954C146.915 25.8954 146.973 25.837 146.986 25.595C147.002 25.2321 146.789 24.9275 146.768 24.5812C146.718 23.6384 146.409 22.7414 146.28 21.811C146.121 20.6846 145.808 19.579 145.591 18.4568C145.269 16.7796 144.977 15.0983 144.663 13.4212C144.434 12.1779 144.196 10.9347 143.949 9.6956C143.786 8.86121 143.615 8.03098 143.435 7.20076C143.406 7.05891 143.465 6.81694 143.21 6.82945C142.993 6.8378 143.076 7.05891 143.022 7.1799C142.821 7.60961 142.83 8.08522 142.725 8.53579C142.475 9.59965 142.258 10.6718 142.04 11.7399C141.873 12.5659 141.723 13.4003 141.56 14.2264C141.318 15.4529 141.071 16.6795 140.825 17.9061C140.746 18.2941 140.666 18.682 140.583 19.0659C140.403 19.8961 140.215 20.7263 140.04 21.5565C139.931 22.0572 139.839 22.5578 139.735 23.0543C139.576 23.8303 139.417 24.6104 139.25 25.3864C139.171 25.7661 139.321 25.8787 139.697 25.8704C140.833 25.8495 141.969 25.862 143.105 25.862V25.8704Z" fill="#FFFCF4"/>
<path id="Vector_5" d="M20.7581 5.81966C20.7581 7.32157 20.7455 8.82349 20.7664 10.3254C20.7706 10.705 20.6453 10.8427 20.2819 10.8052C20.165 10.7927 20.048 10.8052 19.9311 10.8052C19.2252 10.8052 19.2837 10.7927 19.1584 10.1001C18.6864 7.48428 17.3791 5.47756 14.8522 4.39284C13.3278 3.73784 11.7364 3.58765 10.1159 3.81294C8.35751 4.05491 6.7829 5.34406 6.11464 7.08794C5.21665 9.42842 6.06452 11.3559 7.53888 13.0747C9.21373 15.0314 11.3021 16.5708 13.1774 18.3314C14.9817 20.0252 16.9615 21.5438 18.5904 23.4212C19.835 24.8564 20.8123 26.4543 21.3804 28.2858C21.6727 29.2245 21.915 30.1632 22.0152 31.1561C22.0862 31.8528 22.1739 32.5412 22.1405 33.2379C21.9818 36.5338 20.545 39.1371 17.8553 41.0562C16.431 42.07 14.8314 42.6749 13.1356 43.0087C12.5049 43.1338 11.8367 43.1171 11.1893 43.113C9.67316 43.1005 8.15285 43.1046 6.64925 42.846C4.7238 42.5164 2.83177 42.0575 1.03998 41.2564C0.639017 41.077 0.480304 40.8142 0.48448 40.372C0.501187 37.6852 0.501187 34.9985 0.48448 32.3117C0.48448 31.8278 0.647371 31.6818 1.12351 31.6859C2.45587 31.7026 2.40993 31.6943 2.60205 33.0001C2.88189 34.8983 3.58357 36.6256 4.96605 38.0148C6.01857 39.0703 7.32587 39.6294 8.771 39.8338C10.5419 40.0841 12.2251 39.8296 13.6953 38.6865C14.7771 37.8438 15.4662 36.7549 15.8379 35.4491C16.5229 33.046 15.6291 31.056 14.1631 29.2411C12.7388 27.4806 10.9053 26.1414 9.26385 24.6061C7.16298 22.6369 4.8324 20.9055 2.95707 18.6944C1.70825 17.2217 0.826968 15.5529 0.392594 13.6505C0.0584597 12.207 -0.0835472 10.7468 0.0501064 9.28657C0.34665 6.01992 1.71242 3.32065 4.55256 1.52252C6.44459 0.320993 8.54964 -0.0711727 10.7842 0.00809491C12.175 0.0581587 13.5366 0.25007 14.8898 0.50456C15.6333 0.646408 16.3893 0.825803 17.0868 1.11367C17.7592 1.38902 18.3565 1.29306 18.9579 1.00937C19.4716 0.767395 20.0063 0.86335 20.5325 0.855007C20.8332 0.850835 20.7539 1.09698 20.7539 1.25969C20.7581 2.77829 20.7539 4.29689 20.7539 5.81549L20.7581 5.81966Z" fill="#FFFCF4"/>
<path id="Vector_6" d="M116.951 40.0467C113.677 40.0467 110.402 40.0467 107.128 40.0467C106.468 40.0467 106.413 40.0384 106.497 39.375C106.639 38.2486 106.739 37.1222 107.015 36.0082C107.399 34.4479 107.867 32.921 108.452 31.4357C109.73 28.1649 111.246 25.0026 112.929 21.9195C113.631 20.6345 114.282 19.3203 114.967 18.0312C116.016 16.0662 117.068 14.1054 117.995 12.0819C118.605 10.7511 119.232 9.42022 119.524 7.96837C119.591 7.64713 119.724 7.3384 119.712 6.9963C119.704 6.75016 119.616 6.63751 119.353 6.63751C117.097 6.64168 114.842 6.59996 112.587 6.65837C111.317 6.69175 110.436 7.43436 109.868 8.55662C109.312 9.65802 108.953 10.8137 108.807 12.0361C108.765 12.3698 108.589 12.545 108.23 12.5075C108.097 12.495 107.963 12.4991 107.829 12.5075C107.428 12.5367 107.261 12.3823 107.27 11.9568C107.29 10.7052 107.278 9.4536 107.278 8.202C107.278 6.6834 107.29 5.1648 107.27 3.6462C107.265 3.22901 107.416 3.08716 107.825 3.08716C114.224 3.0955 120.618 3.08716 127.017 3.0955C127.543 3.0955 127.677 3.27907 127.514 3.77971C127.468 3.92573 127.43 4.06757 127.43 4.21776C127.401 5.64458 127.004 6.98796 126.641 8.35637C126.269 9.75398 125.743 11.0807 125.188 12.399C124.135 14.9064 122.886 17.3219 121.596 19.7125C119.808 23.0292 117.899 26.2834 116.266 29.6835C115.64 30.9852 115.03 32.2994 114.629 33.6928C114.416 34.4437 114.165 35.1989 114.169 36.0041C114.169 36.3337 114.282 36.4505 114.6 36.4505C117.072 36.4463 119.545 36.4505 122.017 36.4421C123.296 36.438 123.968 35.5952 124.482 34.5814C124.916 33.722 125.217 32.8167 125.438 31.8738C125.605 31.1646 125.81 30.4637 125.839 29.7294C125.847 29.4874 125.981 29.3664 126.219 29.3581C126.269 29.3581 126.319 29.3581 126.37 29.3581C127.063 29.3359 127.41 29.6724 127.41 30.3677C127.41 33.4049 127.397 36.4421 127.422 39.4793C127.422 39.9508 127.276 40.0634 126.829 40.0634C123.538 40.0467 120.247 40.0551 116.955 40.0551L116.951 40.0467Z" fill="#FFFCF4"/>
</g>
<defs>
<clipPath id="clip0_1_1307">
<rect width="160" height="72" fill="white"/>
</clipPath>
</defs>
</svg>
