<?xml version="1.0" encoding="UTF-8"?>
<svg id="Layer_1" data-name="Layer 1" xmlns="http://www.w3.org/2000/svg" viewBox="0 0 280 130">
  <defs>
    <style>
      .cls-1, .cls-2 {
        stroke-width: 0px;
      }

      .cls-2 {
        fill: #8d6f4b;
      }
    </style>
  </defs>
  <g id="RXknwL">
    <g>
      <path class="cls-1" d="M81.48,53.75c-1.1.03-2.2.05-3.29,0-.85-.05-1.1.32-1.14,1.11-.1,1.9-.22,3.85-.95,5.63-1.22,2.95-3.19,5.81-6.41,6.69-4.65,1.27-9.89-1.79-11.1-6.39-.59-2.27-.62-4.61-.61-6.95.02-8.67.02-17.34,0-26.01,0-1.79,0-3.58.23-5.36.25-1.91.89-3.69,2.06-5.23,2.91-3.8,6.91-4.15,10.74-2.96,4.01,1.25,6.19,4.35,6.9,8.43.42,2.39.46,2.49,2.63,2.38.59-.03.85-.27.83-.85,0-.17,0-.35,0-.52,0-4.62,0-9.25,0-13.87,0-1.32-.03-1.31-1.38-1.35-.95-.03-1.84.15-2.7.52-.76.33-1.5.27-2.27.02-1.04-.33-2.1-.62-3.17-.86-1.65-.38-3.35-.52-5.02-.77-3.49-.52-6.9-.23-10.23.83-4.06,1.3-6.75,4.08-8.23,8.06-1.98,5.33-1.9,10.85-1.89,16.44.01,6.1.02,12.2-.03,18.29-.03,4.02.13,7.99,1.38,11.85.78,2.4,1.91,4.82,3.76,6.58,2.62,2.5,6.72,4.4,10.35,4.62,3.57.21,7.1.07,10.54-1.23,3.01-1.14,5.39-2.95,7.08-5.67,2.2-3.54,2.96-8.39,2.86-12.5-.02-.69-.33-.91-.97-.89Z"/>
      <path class="cls-1" d="M145.06,26.82c0,2.57,0,5.14,0,7.71,0,10.43,0,20.86,0,31.29,0,1.98.52,2.75,2.34,3.47.67.26,1.33.55,2.05.62.42.04.58.29.63.69.26,1.94.09,2.15-1.85,2.15-4.62,0-9.25,0-13.87,0-.62,0-1.14,0-1.16-.87-.04-1.65.05-1.84,1.07-2,1.12-.17,2.17-.58,3.11-1.22.7-.47,1.06-1.11,1.06-2.04-.03-16.67,0-33.34-.03-50.02,0-2.42-.99-4.34-3.29-5.44-.81-.39-1.17-1.53-.81-2.33.15-.33.43-.35.72-.35,4.8,0,9.59,0,14.39,0,.56,0,.82.33,1.02.78,1.6,3.51,3.22,7.01,4.82,10.52,2,4.38,3.98,8.76,5.97,13.15,1.83,4.03,3.68,8.06,5.51,12.09.75,1.65,1.49,3.31,2.24,4.96.11.25.26.49.52.95,0-.55,0-.83,0-1.12,0-11.64,0-23.29,0-34.93,0-1.53-.53-2.3-1.98-2.87-.72-.28-1.41-.63-2.21-.71-.72-.07-.93-.7-.83-1.91.06-.63.34-.91,1-.9,4.94.02,9.88.02,14.82,0,.69,0,1.04.23.99.95-.02.32,0,.64,0,.95,0,.72-.46.87-1.08.96-1.36.2-2.62.64-3.6,1.69-.33.36-.53.74-.51,1.24.02.35,0,.69,0,1.04,0,18.75,0,37.5,0,56.26q0,1.53-1.52,1.53c-2.46,0-4.91-.04-7.37.02-.88.02-1.22-.4-1.52-1.09-1.67-3.77-3.36-7.53-5.05-11.29-2.68-5.94-5.36-11.87-8.05-17.81-2.33-5.14-4.66-10.28-7-15.42-.12-.26-.26-.51-.39-.76-.04.02-.08.03-.12.05Z"/>
      <path class="cls-1" d="M267.74,76.87c-3.21,0-6.41,0-9.62,0-1.29,0-1.42-.14-1.43-1.46,0-.26.02-.52,0-.78-.06-.8.36-1.19,1.12-1.23.79-.04,1.44-.42,2.07-.81,1.02-.64,1.23-1.44.95-2.6-.56-2.35-1.03-4.71-1.56-7.06-.57-2.5-1.17-4.98-1.75-7.48-.14-.59-.58-.55-1.02-.55-3.9,0-7.8,0-11.7,0-.98,0-1.97.02-2.95,0-.55-.02-.82.16-.95.74-.6,2.76-1.25,5.51-1.88,8.27-.46,1.99-.87,3.99-1.4,5.96-.5,1.87.5,2.88,2.08,3.5.03.01.06.01.08.02,2.01.56,2.03.61,1.86,2.7-.04.54-.27.79-.81.78-.55,0-1.1,0-1.65,0-4.68,0-9.36,0-14.04,0-1.24,0-1.39-.15-1.4-1.4-.01-1.55-.02-1.59,1.52-1.94.97-.22,1.87-.55,2.72-1.06,1.24-.74,1.78-1.83,2-3.23.25-1.55.7-3.07,1.06-4.6.56-2.44,1.08-4.88,1.67-7.31.39-1.62.66-3.27,1.1-4.89.48-1.74.75-3.54,1.18-5.3.57-2.31,1.07-4.64,1.61-6.96.41-1.72.76-3.47,1.15-5.2.53-2.34,1.01-4.7,1.64-7.03.46-1.71.74-3.47,1.13-5.2.62-2.68,1.18-5.36,1.79-8.04.72-3.14,1.43-6.28,2.1-9.43.13-.63.5-.9,1.17-.89,3.87.02,7.74.02,11.61,0,.77,0,1.1.32,1.26,1.1.59,2.78,1.27,5.55,1.9,8.32.38,1.66.71,3.32,1.08,4.98.57,2.53,1.16,5.06,1.72,7.6.59,2.72,1.13,5.46,1.74,8.18.62,2.77,1.32,5.51,1.95,8.28.52,2.26.97,4.54,1.49,6.81.52,2.29,1.1,4.57,1.62,6.87.62,2.75,1.2,5.51,1.82,8.25.42,1.88.85,3.77,1.33,5.63.26,1,.98,1.7,1.9,2.14.85.41,1.7.85,2.69.88.57.02.88.32.87.94-.03,2.93.31,2.48-2.37,2.5-2.83.02-5.66,0-8.49,0ZM249.69,15.44c-.42.21-.39.46-.44.68-.17.87-.35,1.74-.53,2.62-.39,1.91-.79,3.82-1.18,5.74-.31,1.49-.62,2.97-.92,4.46-.38,1.85-.82,3.7-1.13,5.56-.24,1.44-.59,2.86-.86,4.3-.26,1.4-.52,2.81-.91,4.19-.37,1.33-.37,2.73-.86,4.02-.27.7-.01.9.64.89,1.3,0,2.6,0,3.9,0,2.51,0,5.02,0,7.54,0,.48,0,1.05,0,.82-.72-.39-1.22-.44-2.5-.72-3.74-.42-1.88-.84-3.76-1.09-5.66-.21-1.59-.57-3.16-.87-4.73-.3-1.57-.48-3.17-.94-4.7-.26-.87-.25-1.76-.45-2.62-.43-1.87-.93-3.73-1.17-5.62-.2-1.54-.77-2.99-.81-4.66Z"/>
      <path class="cls-1" d="M88.66,40.54c0-4.04.03-8.09-.01-12.13-.02-1.94,0-3.89.24-5.79.27-2.09.89-4.12,1.86-6.05,1.24-2.47,2.94-4.47,5.19-6.01,2.07-1.41,4.36-2.28,6.83-2.78,2.36-.49,4.73-.78,7.11-.58,4.63.38,9.05,1.43,12.61,4.72,2.44,2.26,3.99,5.01,4.78,8.26.39,1.58.53,3.15.68,4.76.52,5.39.12,10.78.23,16.17.07,3.49-.05,6.99.04,10.49.06,2.37-.1,4.74-.41,7.06-.64,4.88-2.65,9.12-6.87,12-2.03,1.39-4.3,2.24-6.69,2.84-2.78.71-5.61.84-8.4.56-5.6-.55-10.6-2.47-13.95-7.35-1.14-1.66-1.89-3.5-2.46-5.46-.76-2.61-.7-5.24-.74-7.88-.07-4.27-.02-8.55-.02-12.83ZM100.3,40.53s0,0-.01,0c0,5.81,0,11.61,0,17.42,0,.95.03,1.88.3,2.82.92,3.2,2.44,5.79,6.02,6.51,2.4.48,4.64.17,6.57-1.44,2.5-2.09,3.31-4.97,3.33-8.03.07-11.47.05-22.94,0-34.41,0-2.1-.46-4.14-1.58-6-2.14-3.56-6.32-4.52-9.72-3.04-3.33,1.45-4.75,4.41-4.86,7.79-.2,6.12-.06,12.25-.06,18.37Z"/>
      <path class="cls-1" d="M38.02,13.37c0,2.4,0,4.8,0,7.2,0,1.61-.1,1.7-1.74,1.7-.17,0-.35-.01-.52,0-.61.04-.81-.25-.92-.86-.73-4.19-2.52-7.71-6.42-9.83-2.84-1.54-5.95-2.05-9.05-1.52-3.82.66-6.24,2.68-7.2,6.67-.54,2.21-.18,4.47,1.02,6.59,1.34,2.37,3.27,4.17,5.23,5.94,2.1,1.89,4.18,3.8,6.28,5.7,5.97,5.39,12.28,10.39,14.67,18.49.94,3.17,1.01,6.45.67,9.69-.22,2.1-1.04,4.12-2.19,5.94-4.66,7.38-13.14,10.03-21.5,8.94-1.91-.25-3.83-.41-5.72-.8-2.59-.55-5.13-1.29-7.53-2.45-.46-.22-.69-.56-.69-1.09,0-4.94.01-9.88,0-14.82,0-.67.26-.96.93-.93.4.02.81,0,1.21,0,1.36,0,1.57.26,1.75,1.64.51,3.91,1.83,7.45,4.94,10.07,1.63,1.38,3.53,2.26,5.71,2.35,1.15.05,2.28.18,3.45.06,3.32-.33,5.71-2.06,7.37-4.81,1.5-2.49,2.05-5.2,1.12-8.06-1.76-5.42-6.43-8.73-10.48-12.37-2.38-2.14-4.69-4.36-7.11-6.46-2.01-1.74-3.93-3.55-5.53-5.69-1.83-2.44-3.04-5.15-3.69-8.13-.64-2.95-.61-5.96-.23-8.88.6-4.59,2.78-8.45,6.63-11.23,2.3-1.66,4.83-2.72,7.65-3.17,2.36-.37,4.68-.32,7.04-.02,2.48.32,4.92.8,7.33,1.45.36.1.73.18,1.06.35,1.25.64,2.34-.09,3.46-.43.54-.16,1.06-.25,1.61-.24,1.16.01,1.38.22,1.38,1.36,0,2.54,0,5.09,0,7.63Z"/>
      <path class="cls-1" d="M204.04,72.75c-5.66,0-11.33,0-16.99,0-1.23,0-1.22-.04-1.19-1.29.12-4.39,1.37-8.52,2.84-12.61,1.1-3.04,2.36-6,3.76-8.91,1.23-2.56,2.5-5.1,3.84-7.6,1.41-2.64,2.75-5.32,4.15-7.97,1.6-3.03,3.25-6.03,4.74-9.11,1.06-2.19,1.99-4.45,2.81-6.73.32-.9.43-1.9.67-2.85.13-.49-.21-.53-.55-.53-.81,0-1.62,0-2.43,0-3.01,0-6.01.07-9.02-.02-2.18-.07-3.52,1.07-4.51,2.79-1.16,1.99-1.7,4.19-2.04,6.45-.07.44-.24.69-.7.7-.06,0-.12,0-.17,0q-2.08.11-2.08-1.97c0-4.42,0-8.84,0-13.26,0-1.31.02-1.33,1.28-1.33,10.95,0,21.91,0,32.86,0,1.23,0,1.35.05,1.23,1.27-.19,1.91-.43,3.8-.87,5.68-.72,3.09-1.81,6.04-3,8.95-1.27,3.09-2.66,6.14-4.25,9.09-1.08,2-2.06,4.05-3.21,6.01-1.33,2.28-2.51,4.65-3.88,6.92-1.04,1.73-1.89,3.56-2.8,5.36-1.15,2.29-2.28,4.6-3.23,6.98-.88,2.22-1.62,4.47-1.86,6.86-.03.3.08.44.36.47.26.02.52.02.78.02,4.02,0,8.04-.06,12.05.03,1.7.04,2.78-.78,3.65-2.05,1.24-1.8,1.82-3.87,2.42-5.94.35-1.2.29-2.45.65-3.64.14-.48.34-.7.82-.7.03,0,.06,0,.09,0q1.99-.11,1.99,1.86c0,5.29,0,10.58,0,15.87,0,1.19-.02,1.22-1.21,1.22-5.66,0-11.33,0-16.99,0Z"/>
    </g>
  </g>
  <g id="RXknwL-2" data-name="RXknwL">
    <path class="cls-2" d="M231.59,81.06c-.21-.13-.4-.22-.58-.3-.3-.04-.61-.07-.91-.11-.4.1-.79.39-1.28.92-1.62,1.77-2.82,3.86-4.2,5.8-2.15,3.03-4.35,6.04-6.74,8.88-1.65,1.95-3.49,3.77-5.49,5.4-1.59,1.3-3.2,2.56-5.17,3.25-1.37.48-2.6-.23-2.74-1.62-.08-.74-.03-1.5,0-2.25.01-.41.21-.67.65-.79,3.25-.89,6.03-2.59,8.38-4.99,1.33-1.35,2.44-2.84,2.81-4.78.47-2.45-1.01-4.32-3.48-4.32-2.08,0-3.7,1.1-5.14,2.38-3.01,2.67-5.17,5.95-6.58,9.73-.1.27-.14.72-.56.64-.68-.12-1.13.25-1.51.67-.97,1.06-1.89,2.18-2.83,3.27-1.46,1.67-3.19,3.01-5.3,3.75-1.31.46-2.59-.48-2.52-1.79.04-.77.15-1.56.39-2.29,1.2-3.68,2.66-7.25,4.47-10.67.34-.64.83-1,1.47-1.07,1.21-.14,2.33-.6,3.51-.85,2.49-.53,4.93-1.32,7.39-2,.46-.13.82-.42,1.19-.7.2-.15.27-.37.21-.62-.07-.3-.3-.42-.58-.42-.69,0-1.42-.09-2.07.07-2.36.58-4.8.42-7.17.92-.48.1-.67-.09-.39-.56.38-.65.75-1.29,1.13-1.94,1.38-2.35.54-3.14-1.64-3.85-.05-.02-.11-.04-.16-.06-.3-.11-.57-.04-.8.17-.6.54-1.19,1.09-1.63,1.78-.83,1.29-1.53,2.64-2.25,3.99-.3.56-.69.92-1.37.86-.74-.06-1.42.23-2.11.43-.86.25-1.38,1.13-1.28,1.94.12.95.48,1.35,1.49,1.47.48.06.6.21.41.67-.39.96-.68,1.97-1.12,2.91-.75,1.62-.89,3.47-1.98,4.95-.44.6-.91,1.19-1.39,1.76-1.48,1.8-2.86,3.71-4.9,4.96-.47.29-.95.82-1.56.51-.71-.37-.62-1.11-.59-1.77,0-.2.02-.41.08-.6.46-1.4.94-2.79,1.59-4.11,1.09-2.2,2.14-4.42,3.23-6.61.29-.57.21-1.04-.16-1.52-.57-.77-1.24-1.38-2.23-1.5-.34-.04-.61-.18-.78-.47-.79-1.31-2-1.56-3.38-1.3-1.69.32-3.09,1.19-4.44,2.23-3.92,3.02-6.75,6.85-8.52,11.45-.35.91-.72,1.74-1.4,2.43-.57.57-1.14,1.15-1.76,1.66-1.54,1.25-2.97,2.66-4.97,3.21-1.2.33-2.12-.46-1.84-1.71.37-1.68.9-3.33,1.57-4.92,1.18-2.82,2.48-5.59,3.86-8.32,1.18-2.34,2.36-4.68,3.59-7,1.23-2.32,2.52-4.6,3.76-6.9.28-.53.25-1.06-.21-1.51-1.14-1.11-2.86-1.11-3.92.06-.87.96-1.64,2.01-2.3,3.13-2.17,3.65-3.99,7.48-5.66,11.39-.51,1.21-1.39,2.03-2.49,2.65-.65.37-1.35.63-2.06.87-1.53.52-1.96.22-1.8-1.32.23-2.11-.76-3.75-2.58-4.24-1.43-.39-2.54.34-3.54,1.18-2.34,1.99-3.98,4.54-5.46,7.19-1.42,2.55-2.37,5.36-4.65,7.42-2.55,2.3-4.96,4.75-8.36,5.81-1.31.41-2.44-.31-2.57-1.67-.13-1.32.11-2.58.58-3.8,1.1-2.89,2.89-5.31,5.1-7.43.56-.54,1.06-1.21,2.03-1.55-.22.65-.41,1.11-.52,1.58-.18.8-.33,1.62.42,2.24.66.54,1.46.52,2.13.18,2.36-1.18,3.08-4.19,2.38-6.36-.54-1.7-2.96-2.6-4.81-2.01-2.2.7-3.85,2.16-5.38,3.81-1.64,1.77-3.78,2.4-6.09,2.64-.77.08-1.14-.21-1.06-1.03.11-1.11-.26-2.13-.74-3.08-.56-1.09-1.37-1.82-2.78-1.85-1.48-.03-2.55.6-3.53,1.54-2.44,2.35-4.13,5.22-5.64,8.22-.61,1.21-.86,2.62-1.74,3.65-1.97,2.31-4.07,4.49-6.59,6.22-.18.13-.35.36-.61.23-.29-.14-.21-.44-.24-.69-.18-1.52.34-2.91.94-4.25,1.28-2.87,2.82-5.61,4.43-8.31.53-.89,1.01-1.8.91-2.92-.12-1.35-1.69-2.49-2.99-2.08-1.26.4-2.33,1.13-3.26,2.05-2.35,2.3-4.7,4.61-6.94,7.02-.21.23-.39.56-.78.59-.06-.24.05-.38.12-.53,1.64-3.4,3.42-6.74,5.2-10.07,1.12-2.1,2.19-4.24,3.32-6.34,1.82-3.37,3.72-6.69,5.11-10.27.21-.53.13-.94-.2-1.36-.94-1.17-2.16-1.14-3.19.14-1.17,1.46-2.18,3.06-3.05,4.7-2.27,4.28-4.47,8.6-6.44,13.02-1.08,2.42-2.15,4.84-3.19,7.27-.63,1.48-1.09,3.07-2.05,4.37-3.09,4.2-6.96,7.52-11.62,9.87-1.98,1-4.04,1.8-6.18,2.4-1.47.41-2.93.87-4.45,1.03-1.81.19-3.62.27-5.44.04-2.38-.3-4.52-1.13-6.37-2.63-2.4-1.94-3.86-4.49-4.6-7.45-.58-2.3-.92-4.65-.67-7.02.16-1.46.27-2.92.54-4.37.45-2.42,1.11-4.77,1.95-7.07,1.21-3.33,2.69-6.55,4.5-9.62,2.3-3.89,5.02-7.45,8.15-10.72,4.3-4.49,10.19-7.46,16.41-8,4.99-.43,10.9.78,11.45,6.8.27,2.95,0,5.83-1.21,8.55-1.39,3.11-3.38,5.81-5.89,8.13-1.94,1.8-4.15,3.07-6.76,3.46-4.58.68-7.64-2.15-7.32-6.34.2-2.68,1.45-5.01,3.32-6.97.44-.46.92-.9.95-1.6.04-.84-.5-1.26-1.27-.95-.26.1-.54.25-.73.45-2.29,2.4-4.15,5.02-4.55,8.44-.41,3.47.7,6.31,3.58,8.28,3.33,2.28,7.06,2.5,10.78,1.33,6.14-1.94,10.02-6.45,12.83-12.01,1.31-2.59,1.55-5.42,1.37-8.28-.18-2.79-1.08-5.44-2.78-7.67-3.07-4.03-6.59-5.72-11.62-5.62-2,.04-3.96.37-5.89.87-8.84,2.3-17.46,8.63-22.88,15.88-2.67,3.57-4.81,7.45-6.51,11.57-1.2,2.91-2.17,5.88-2.8,8.99-.56,2.8-.96,5.6-.94,8.46.01,1.24.13,2.46.25,3.69.21,2.12.7,4.14,1.41,6.12,1.39,3.87,3.76,6.99,7.33,9.12,3.77,2.25,7.9,2.15,12.03,1.6,2.58-.34,5.01-1.35,7.34-2.47,4.4-2.12,8.46-4.78,12.14-8.01.28-.24.53-.58.99-.7-.32,1.32-1.12,2.43-.92,3.81.12.85.58,1.44,1.44,1.57,1.24.19,1.79-.06,2.39-1.18.88-1.65,1.64-3.38,2.59-4.99,2.36-3.99,5.26-7.57,8.49-10.89.1-.11.25-.25.49-.14-.03.1-.04.21-.08.31-1.2,2.45-2.44,4.88-3.15,7.55-.59,2.2-.4,4.22.97,6.07.63.85,2.4,1.42,3.28,1.05.77-.33,1.48-.74,2.11-1.33,1.46-1.34,2.84-2.77,4.29-4.27.22,1.29.62,2.37,1.24,3.39,1.08,1.79,2.97,2.17,4.92,1.37,2.28-.94,3.69-2.91,5.03-4.87,1.68-2.47,3.1-5.08,3.82-8.01.12-.5.36-.84.95-.96,1.14-.24,2.3-.47,3.35-1.03.03-.01.09.04.16.07-1.06,2.19-2.08,4.37-2.72,6.76-.94,3.49,1.67,6.96,5.15,6.97,1.8,0,3.26-.9,4.72-1.73,2.04-1.17,3.76-2.76,5.45-4.38.18-.17.31-.51.59-.45.33.07.18.44.24.67.58,2.27,1.94,4.16,4.92,3.81,1.03-.12,1.86-.64,2.64-1.22,2.25-1.66,3.62-4.01,4.92-6.4.94-1.73,1.76-3.52,2.03-5.48.09-.66.35-1.05.93-1.17,1.14-.25,2.18-.72,3.18-1.3.11-.06.3-.11.4-.06.19.1.1.29.05.46-.46,1.42-1.05,2.79-1.45,4.23-.54,1.91-1.28,3.77-.49,5.79.98,2.49,3.55,4.76,6.9,2.75,1.83-1.1,3.41-2.47,4.92-3.93.37-.36.64-.31.74.13.27,1.21,1.18,1.88,2.06,2.58,1.69,1.33,3.34,1.29,4.95-.09,1.01-.86,1.95-1.8,2.72-2.9.43-.62.96-1.17,1.48-1.79.23.42.39.75.5,1.11.56,1.88,3.11,3.09,4.92,2.34,2.22-.92,3.93-2.47,5.38-4.36.33-.42.65-.85,1.26-1.21,0,.67.21,1.17.35,1.69.73,2.55,3.32,3.53,5.58,2.97,2.27-.56,4.1-1.92,5.75-3.53,1.1-1.07,2.24-2.12,3.26-3.56.05,2.32.87,4.03,2.68,5.15,1.25.78,2.61,1.31,4.1.89,2.57-.72,4.72-2.21,6.77-3.87,1.19-.97,2.25-2.08,3.33-3.16.63-.62.76-.6,1.17.21.3.59.59,1.19.87,1.78,1.98,4.24,6.85,3.69,9.14,1.38,2.08-2.11,2.37-4.93,2.79-7.63.31-2.01.08-4.07.29-6.12.22-2.18.36-4.3,1.37-6.31.58-1.15.08-2.29-1.02-2.97ZM205.7,97.02c1.41-2.65,3.26-4.95,5.59-6.85.3-.25.68-.44,1.09-.49.51-.06.78.14.7.77-.21.76-.58,1.55-1.08,2.26-1.49,2.12-3.42,3.73-5.74,4.88-.21.1-.45.28-.65.13-.28-.22-.02-.49.08-.69ZM111.23,105.87c-1.2,2.74-2.67,5.31-4.64,7.57-.36.41-.79.75-1.25,1.06-.47.31-.96.69-1.5.37-.5-.29-.32-.94-.45-1.31.04-1.58.5-2.94,1.1-4.25,1.04-2.29,2.31-4.43,3.9-6.38.75-.92,1.23-.94,1.99-.04.09.11.18.25.3.31,1.25.67.98,1.68.55,2.67ZM144.18,101.27c-.15.52-.27,1.07-.49,1.56-1.23,2.78-2.74,5.39-4.88,7.59-.23.24-.52.36-.75.57-.46.42-.98.71-1.56.4-.56-.3-.52-.91-.54-1.56.16-1.6.82-3.14,1.51-4.66.88-1.94,1.94-3.79,3.36-5.4.23-.26.46-.52.71-.75.41-.38.8-.37,1.19.06.38.43.79.83,1.2,1.24.28.28.34.59.24.95ZM172.73,102.3c-.88,1.45-1.81,2.87-2.88,4.19-.66.81-1.41,1.53-2.25,2.15-.48.36-1.06.68-1.69.38-.62-.3-.46-.93-.49-1.46,0-.14,0-.29,0-.43.04-2.11,1.01-3.88,2.09-5.58,1.87-2.94,4.07-5.6,6.91-7.67.72-.53,1.47-1.02,2.4-1.1.56-.04.76.17.49.72-1.48,2.96-2.86,5.97-4.58,8.81ZM227.11,96.19c-.07,1.07-.41,2.14-.74,3.18-.39,1.23-1.61,1.78-3.11,1.51-1.69-.3-2.86-1.71-2.86-3.4,0-.52.19-.97.44-1.38,1.85-3.14,3.96-6.09,6.3-8.89.05-.06.14-.08.21-.13.24.22.14.5.16.74.19,2.8-.21,5.58-.39,8.37Z"/>
  </g>
</svg>