<svg width="25" height="25" viewBox="0 0 25 25" fill="none" xmlns="http://www.w3.org/2000/svg">
<path id="Vector" d="M12.5 0C5.59655 0 0 5.59655 0 12.5C0 19.4034 5.59655 25 12.5 25C19.4034 25 25 19.4034 25 12.5C25 5.59655 19.4034 0 12.5 0ZM8.27129 8.39483C9.36606 8.39483 10.2536 9.28235 10.2536 10.3771C10.2536 11.4719 9.36606 12.3594 8.27129 12.3594C7.17653 12.3594 6.28901 11.4719 6.28901 10.3771C6.28901 9.28235 7.17653 8.39483 8.27129 8.39483ZM18.6907 16.0525C17.5284 18.6923 15.143 20.3324 12.4659 20.3324C9.78869 20.3324 7.33176 18.6167 6.20205 15.9615L6.04275 15.5876L8.06161 14.7285L8.2209 15.1024C9.0052 16.9465 10.6713 18.138 12.4659 18.138C14.2604 18.138 15.8753 17.0002 16.6824 15.1682L16.8466 14.796L18.8548 15.6803L18.6915 16.0525H18.6907ZM16.9742 12.3586C15.8794 12.3586 14.9919 11.4711 14.9919 10.3763C14.9919 9.28153 15.8794 8.39402 16.9742 8.39402C18.0689 8.39402 18.9564 9.28153 18.9564 10.3763C18.9564 11.4711 18.0689 12.3586 16.9742 12.3586Z" fill="#1E1C1C"/>
</svg>
