<svg width="20" height="20" viewBox="0 0 20 20" fill="none" xmlns="http://www.w3.org/2000/svg">
<g id="tiktok">
<path id="Union" d="M13.0049 6.26581C12.5839 5.76541 12.3519 5.12276 12.3521 4.45752H10.4493V12.4089C10.4347 12.8392 10.2602 13.2467 9.96273 13.5458C9.66524 13.8448 9.26793 14.0119 8.85446 14.012C7.98004 14.012 7.25342 13.2681 7.25342 12.3448C7.25342 11.2418 8.27562 10.4146 9.32862 10.7545V8.72817C7.20415 8.4332 5.34448 10.1517 5.34448 12.3448C5.34448 14.4801 7.04405 15.9998 8.8483 15.9998C10.7819 15.9998 12.3521 14.3647 12.3521 12.3448V8.31137C13.1237 8.88839 14.0501 9.19797 15 9.19628V7.21485C15 7.21485 13.8423 7.27256 13.0049 6.26581Z" fill="#FFFCF4"/>
</g>
</svg>
