<svg width="13" height="12" viewBox="0 0 13 12" fill="none" xmlns="http://www.w3.org/2000/svg">
<g id="x-hover">
<path id="Vector" d="M0.0318994 0.00736376C0.0265977 0.0152209 0.45603 0.594031 0.983543 1.2907C1.51106 1.98737 2.63235 3.46975 3.47531 4.58285L5.00748 6.60737L4.9094 6.71737C4.85374 6.77761 3.72714 7.97976 2.40703 9.38881C1.08692 10.8005 0.00274036 11.9633 8.95461e-05 11.9764C-0.00521209 11.9895 0.225409 12 0.556761 11.9974L1.12139 11.9948L1.30694 11.7931C1.41032 11.6831 2.36992 10.659 3.44085 9.51452C4.51178 8.36999 5.41836 7.40095 5.45547 7.35904L5.52174 7.28309L6.05191 7.98499C6.3435 8.36999 7.14669 9.43333 7.83591 10.3448L9.09239 12H11.0142C12.6127 12 12.9334 11.9948 12.9228 11.966C12.9149 11.945 12.4271 11.2955 11.8386 10.5176C11.2502 9.74238 10.5769 8.8519 10.3436 8.54285C10.1077 8.2338 9.41579 7.31452 8.8008 6.50523C8.18581 5.69332 7.68216 5.01761 7.68216 5.00713C7.68216 4.9888 10.9321 1.50284 12.0375 0.337364L12.3529 0.0047447H11.7724L11.1945 0.00736376L10.5185 0.730222C10.1474 1.12832 9.23819 2.1026 8.49596 2.89094L7.152 4.32618L5.52174 2.17332L3.88884 0.01784L1.967 0.0047447C0.90932 -0.00311245 0.037201 -0.000493398 0.0318994 0.00736376ZM4.586 2.32784C5.21425 3.1607 6.18445 4.44142 6.74112 5.17737C7.29779 5.91071 8.53307 7.54499 9.48737 8.80476C10.4417 10.0671 11.2316 11.1121 11.2449 11.1305C11.2608 11.154 11.0726 11.1619 10.386 11.1619H9.50857L7.76964 8.86238C3.7563 3.56404 1.73107 0.887365 1.70722 0.848079C1.69131 0.824508 1.87157 0.816651 2.56343 0.816651H3.44085L4.586 2.32784Z" fill="#FFFCF4"/>
</g>
</svg>
