<svg width="20" height="20" viewBox="0 0 20 20" fill="none" xmlns="http://www.w3.org/2000/svg">
<g id="youtube">
<path id="Union" d="M8.4 12.7067L12.552 10.3947L8.4 8.08267V12.7067ZM17.648 6.67235C17.752 7.03456 17.824 7.52008 17.872 8.13662C17.928 8.75315 17.952 9.28491 17.952 9.74731L18 10.3947C18 12.0824 17.872 13.3232 17.648 14.117C17.448 14.8106 16.984 15.2576 16.264 15.4502C15.888 15.5504 15.2 15.6198 14.144 15.666C13.104 15.72 12.152 15.7431 11.272 15.7431L10 15.7893C6.648 15.7893 4.56 15.666 3.736 15.4502C3.016 15.2576 2.552 14.8106 2.352 14.117C2.248 13.7548 2.176 13.2693 2.128 12.6527C2.072 12.0362 2.048 11.5044 2.048 11.042L2 10.3947C2 8.70691 2.128 7.46614 2.352 6.67235C2.552 5.97875 3.016 5.53176 3.736 5.33909C4.112 5.23891 4.8 5.16955 5.856 5.12331C6.896 5.06936 7.848 5.04624 8.728 5.04624L10 5C13.352 5 15.44 5.12331 16.264 5.33909C16.984 5.53176 17.448 5.97875 17.648 6.67235Z" fill="#FFFCF4"/>
</g>
</svg>
